<?xml version="1.0" standalone="no"?>
<!DOCTYPE svg PUBLIC "-//W3C//DTD SVG 1.1//EN" "http://www.w3.org/Graphics/SVG/1.1/DTD/svg11.dtd" >
<svg xmlns="http://www.w3.org/2000/svg" xmlns:xlink="http://www.w3.org/1999/xlink" version="1.1">
<metadata>
Created by FontForge 20190801 at Wed Oct 28 22:28:21 2020
 By Unknown
Copyright (c) 2020 CoType Foundry. All Rights Reserved.
</metadata>
<defs>
<font id="Aeonik-Medium" horiz-adv-x="600" >
  <font-face 
    font-family="Aeonik Medium"
    font-weight="500"
    font-stretch="normal"
    units-per-em="1000"
    panose-1="2 11 6 3 3 3 0 0 0 0"
    ascent="800"
    descent="-200"
    x-height="512"
    cap-height="700"
    bbox="-388 -206 2155 902"
    underline-thickness="72"
    underline-position="-200"
    unicode-range="U+000D-1F10C"
  />
<missing-glyph horiz-adv-x="620" 
d="M60 -109v829h500v-829h-500zM217 632q-41 0 -63 -24t-22 -66t22 -66t63 -24q32 0 52 18.5t22 48.5h-46q-7 -29 -30 -29q-35 0 -35 52t35 52q23 0 30 -30h46q-2 31 -22 49.5t-52 18.5zM394 632q-40 0 -63.5 -25.5t-23.5 -64.5q0 -40 23.5 -65t63.5 -25q39 0 63 25t24 65
q0 39 -24 64.5t-63 25.5zM394 490q-39 0 -39 52t39 52t39 -52t-39 -52zM288 400h-146v-40h49v-138h47v138h50v40zM417 222v66l64 112h-52l-35 -65l-33 65h-55l64 -112v-66h47zM203 46h28q30 0 48.5 16.5t18.5 44.5t-18.5 45t-48.5 17h-74v-178h46v55zM338 -9h125v40h-78v31
h60v37h-60v30h75v40h-122v-178zM203 131h24q24 0 24 -24q0 -23 -24 -23h-24v47z" />
    <glyph glyph-name="fi" unicode="fi" horiz-adv-x="548" 
d="M442 584q-28 0 -47 18.5t-19 46.5t19 46.5t47 18.5t47 -18.5t19 -46.5t-19 -46.5t-47 -18.5zM199 512h297v-512h-109v417h-188v-417h-109v417h-89v95h89v51q0 137 143 137h91v-95h-76q-26 0 -37.5 -12t-11.5 -38v-43z" />
    <glyph glyph-name="f_f.liga" unicode="ff" horiz-adv-x="637" 
d="M633 605h-88q-26 0 -38 -12t-12 -38v-43h138v-95h-138v-417h-108v417h-188v-417h-109v417h-89v95h89v51q0 137 143 137h91v-95h-76q-26 0 -37.5 -12t-11.5 -38v-43h188v51q0 137 143 137h103v-95z" />
    <glyph glyph-name="f_f_i.liga" unicode="ffi" horiz-adv-x="849" 
d="M743 584q-28 0 -47 18.5t-19 46.5t19 46.5t47 18.5t47 -18.5t19 -46.5t-19 -46.5t-47 -18.5zM499 512h297v-512h-108v417h-189v-417h-108v417h-192v-417h-109v417h-89v95h89v51q0 137 143 137h91v-95h-76q-26 0 -37.5 -12t-11.5 -38v-43h192v51q0 137 143 137h90v-95h-75
q-26 0 -38 -12t-12 -38v-43z" />
    <glyph glyph-name="f_f_t.liga" unicode="fft" horiz-adv-x="945" 
d="M847 95h82v-95h-104q-73 0 -106 34t-33 105v278h-187v-417h-108v417h-192v-417h-109v417h-89v95h89v51q0 137 143 137h91v-95h-76q-26 0 -37.5 -12t-11.5 -38v-43h192v51q0 137 143 137h83v-95h-68q-26 0 -38 -12t-12 -38v-43h187v143h108v-143h124v-95h-124v-267
q0 -30 12 -42.5t41 -12.5z" />
    <glyph glyph-name="f_t.liga" unicode="ft" horiz-adv-x="644" 
d="M546 95h82v-95h-104q-73 0 -106 34t-33 105v278h-186v-417h-109v417h-89v95h89v51q0 137 143 137h84v-95h-69q-26 0 -37.5 -12t-11.5 -38v-43h186v143h108v-143h124v-95h-124v-267q0 -30 12 -42.5t41 -12.5z" />
    <glyph glyph-name="t_t.liga" unicode="tt" horiz-adv-x="655" 
d="M557 95h82v-95h-104q-73 0 -106 34t-33 105v278h-197v-267q0 -30 12 -42.5t41 -12.5h67v-95h-89q-73 0 -106.5 34t-33.5 105v278h-89v95h89v143h109v-143h197v143h108v-143h124v-95h-124v-267q0 -30 12 -42.5t41 -12.5z" />
    <glyph glyph-name=".notdef" horiz-adv-x="620" 
d="M60 -109v829h500v-829h-500zM217 632q-41 0 -63 -24t-22 -66t22 -66t63 -24q32 0 52 18.5t22 48.5h-46q-7 -29 -30 -29q-35 0 -35 52t35 52q23 0 30 -30h46q-2 31 -22 49.5t-52 18.5zM394 632q-40 0 -63.5 -25.5t-23.5 -64.5q0 -40 23.5 -65t63.5 -25q39 0 63 25t24 65
q0 39 -24 64.5t-63 25.5zM394 490q-39 0 -39 52t39 52t39 -52t-39 -52zM288 400h-146v-40h49v-138h47v138h50v40zM417 222v66l64 112h-52l-35 -65l-33 65h-55l64 -112v-66h47zM203 46h28q30 0 48.5 16.5t18.5 44.5t-18.5 45t-48.5 17h-74v-178h46v55zM338 -9h125v40h-78v31
h60v37h-60v30h75v40h-122v-178zM203 131h24q24 0 24 -24q0 -23 -24 -23h-24v47z" />
    <glyph glyph-name=".null" 
 />
    <glyph glyph-name="nonmarkingreturn" horiz-adv-x="333" 
 />
    <glyph glyph-name="CR" unicode="&#xd;" 
 />
    <glyph glyph-name="space" unicode=" " horiz-adv-x="256" 
 />
    <glyph glyph-name="exclam" unicode="!" horiz-adv-x="267" 
d="M175 213h-82l-17 487h116zM64 62q0 30 20 49t50 19t49.5 -19t19.5 -49t-19.5 -49t-49.5 -19t-50 19t-20 49z" />
    <glyph glyph-name="quotedbl" unicode="&#x22;" horiz-adv-x="383" 
d="M140 445h-76l-22 187q-4 32 12 52.5t48 20.5q33 0 48.5 -20.5t11.5 -52.5zM319 445h-76l-22 187q-4 32 12 52.5t48 20.5q33 0 48.5 -20.5t11.5 -52.5z" />
    <glyph glyph-name="numbersign" unicode="#" horiz-adv-x="571" 
d="M157 450l24 156h89l-24 -156h121l24 156h89l-24 -156h84v-90h-97l-17 -114h92v-90h-105l-24 -156h-89l24 156h-120l-24 -156h-89l24 156h-84v90h97l16 114h-92v90h105zM354 360h-121l-16 -114h120z" />
    <glyph glyph-name="dollar" unicode="$" horiz-adv-x="615" 
d="M350 403q50 -9 85.5 -20.5t71 -33t53.5 -57.5t18 -85q0 -85 -59.5 -142.5t-158.5 -68.5v-103h-97v105q-104 13 -164 75.5t-63 156.5l116 -2q5 -62 50 -99.5t118 -37.5q64 0 103.5 27.5t39.5 76.5q0 22 -9.5 38t-22.5 26.5t-40 19.5t-49.5 14t-62.5 12q-50 9 -85.5 20.5
t-70 32.5t-52.5 57t-18 86q0 83 57 138t153 65v104h97v-106q94 -14 149 -70.5t58 -141.5h-115q-7 54 -47 86.5t-103 32.5q-61 0 -97.5 -26t-36.5 -74q0 -49 42 -69t140 -37z" />
    <glyph glyph-name="percent" unicode="%" horiz-adv-x="909" 
d="M47 535q0 74 51 122.5t128 48.5t128 -48.5t51 -122.5t-51 -122t-128 -48t-128 48t-51 122zM269 0h-106l478 700h107zM314 535q0 38 -25 63.5t-63 25.5q-37 0 -62 -25.5t-25 -63.5t25 -63.5t62 -25.5q38 0 63 25.5t25 63.5zM504 164q0 75 50.5 123t128.5 48t128.5 -48
t50.5 -123q0 -73 -51 -121.5t-128 -48.5t-128 48.5t-51 121.5zM771 164q0 38 -25.5 64t-62.5 26t-62.5 -26t-25.5 -64t25 -63t63 -25t63 25t25 63z" />
    <glyph glyph-name="ampersand" unicode="&#x26;" horiz-adv-x="769" 
d="M643 92h68v-92h-83q-81 0 -120 44l-27 30q-84 -80 -193 -80q-103 0 -168.5 48.5t-64.5 137.5q0 129 151 196q-36 45 -49 78.5t-13 78.5q0 74 59 123.5t148 49.5q76 0 127 -45t51 -113q0 -124 -164 -191l128 -139l105 160h107l-151 -227l31 -34q23 -25 58 -25zM345 624
q-41 0 -67 -25t-26 -63q0 -32 12.5 -57t45.5 -62q114 48 114 128q0 35 -21.5 57t-57.5 22zM293 83q70 0 130 54l-164 179l-2 2q-50 -26 -70.5 -55.5t-20.5 -71.5q0 -51 35 -79.5t92 -28.5z" />
    <glyph glyph-name="quotesingle" unicode="'" horiz-adv-x="204" 
d="M140 445h-76l-22 187q-4 32 12 52.5t48 20.5q33 0 48.5 -20.5t11.5 -52.5z" />
    <glyph glyph-name="parenleft" unicode="(" horiz-adv-x="320" 
d="M307 -130h-117q-145 192 -145 430t145 430h117q-83 -111 -119 -212t-36 -218q0 -119 35.5 -219.5t119.5 -210.5z" />
    <glyph glyph-name="parenright" unicode=")" horiz-adv-x="320" 
d="M13 730h116q146 -194 146 -430q0 -237 -146 -430h-116q83 111 119 212t36 218q0 119 -35.5 219.5t-119.5 210.5z" />
    <glyph glyph-name="asterisk" unicode="*" horiz-adv-x="429" 
d="M358 631l30 -71l-119 -44l82 -93l-58 -50l-80 105l-79 -104l-57 50l82 93l-118 44l30 70l109 -52l-3 122h74l-3 -123z" />
    <glyph glyph-name="plus" unicode="+" horiz-adv-x="520" 
d="M210 331v169h99v-169h160v-91h-160v-169h-99v169h-159v91h159z" />
    <glyph glyph-name="comma" unicode="," horiz-adv-x="224" 
d="M103 129q40 0 65 -33t25 -82q0 -72 -43 -112t-118 -41v58q44 1 66 23t22 52q0 9 -1 13q-13 -10 -33 -10q-26 0 -42.5 16.5t-16.5 47.5q0 29 21 48.5t55 19.5z" />
    <glyph glyph-name="hyphen" unicode="-" horiz-adv-x="434" 
d="M387 240h-340v89h340v-89z" />
    <glyph glyph-name="period" unicode="." horiz-adv-x="224" 
d="M43 62q0 30 19.5 49t49.5 19t50 -19t20 -49t-20 -49t-50 -19t-49.5 19t-19.5 49z" />
    <glyph glyph-name="slash" unicode="/" horiz-adv-x="368" 
d="M107 -130h-104l283 860h105z" />
    <glyph glyph-name="zero" unicode="0" horiz-adv-x="630" 
d="M39 334v32q0 152 76.5 246t199.5 94t199.5 -94t76.5 -246v-32q0 -156 -76 -248t-200 -92t-200 92t-76 248zM479 338v24q0 116 -44.5 181.5t-119.5 65.5t-119.5 -65.5t-44.5 -181.5v-24q0 -116 44.5 -181.5t119.5 -65.5t119.5 65.5t44.5 181.5z" />
    <glyph glyph-name="one" unicode="1" horiz-adv-x="340" 
d="M166 629v71h109v-700h-111v480q-15 -9 -44 -9h-114v95h109q51 0 51 63z" />
    <glyph glyph-name="two" unicode="2" horiz-adv-x="547" 
d="M22 0v89l269 229q55 46 82.5 84.5t27.5 84.5q0 59 -36 91.5t-97 32.5q-60 0 -97 -38t-37 -103v-12h-111v18q0 101 67.5 165.5t177.5 64.5q116 0 180.5 -58t64.5 -156q0 -71 -37 -124.5t-111 -115.5l-186 -155h339v-97h-496z" />
    <glyph glyph-name="three" unicode="3" horiz-adv-x="578" 
d="M408 364q58 -12 95.5 -53.5t37.5 -114.5q0 -91 -70.5 -146.5t-188.5 -55.5q-120 0 -189.5 60t-69.5 167h109q1 -63 44.5 -99t111.5 -36q61 0 100.5 32t39.5 85q0 50 -38.5 78.5t-109.5 28.5h-64v92h58q67 0 102.5 30t35.5 80q0 47 -37 74.5t-93 27.5q-60 0 -98.5 -33.5
t-39.5 -87.5h-108q1 94 69.5 153.5t176.5 59.5q112 0 177.5 -51t65.5 -136q0 -62 -32 -101.5t-85 -53.5z" />
    <glyph glyph-name="four" unicode="4" horiz-adv-x="596" 
d="M13 162v94l336 444h130v-442h106v-96h-106v-162h-109v162h-357zM370 579l-243 -321h243v321z" />
    <glyph glyph-name="five" unicode="5" horiz-adv-x="578" 
d="M316 472q104 0 169 -65.5t65 -171.5q0 -113 -73 -176.5t-181 -63.5q-115 0 -185 64.5t-75 161.5h110q6 -57 46 -95t105 -38q58 0 99.5 39t41.5 108q0 64 -38.5 105t-102.5 41q-42 0 -82 -19t-59 -67l-107 2l22 403h437v-97h-336l-12 -190q55 59 156 59z" />
    <glyph glyph-name="six" unicode="6" horiz-adv-x="601" 
d="M98 107q-59 97 -59 238q0 170 73.5 265.5t202.5 95.5q97 0 162 -53t78 -145h-110q-11 50 -46.5 78t-90.5 28q-80 0 -124 -64.5t-44 -174.5q0 -14 1 -27q1 1 3 7t4 10q24 47 72 74t110 27q105 0 170.5 -65t65.5 -171q0 -104 -70 -170t-181 -66q-142 0 -217 113zM455 230
q0 65 -37.5 105t-101.5 40t-104 -40.5t-40 -105.5q0 -64 39 -104t103 -40q63 0 102 40.5t39 104.5z" />
    <glyph glyph-name="seven" unicode="7" horiz-adv-x="521" 
d="M8 603v97h502v-74l-328 -626h-119l326 603h-381z" />
    <glyph glyph-name="eight" unicode="8" horiz-adv-x="595" 
d="M420 364q60 -13 100 -58t40 -115q0 -88 -70.5 -142.5t-192.5 -54.5t-192 54.5t-70 142.5q0 69 39.5 113.5t99.5 58.5q-51 13 -85.5 54.5t-34.5 102.5q0 83 66 134.5t177 51.5t177.5 -51.5t66.5 -134.5q0 -59 -35 -101.5t-86 -54.5zM297 620q-59 0 -95 -28.5t-36 -74.5
q0 -47 36 -75.5t95 -28.5q60 0 96 28.5t36 75.5q0 46 -36 74.5t-96 28.5zM297 79q66 0 108 33.5t42 84.5t-42 84t-108 33t-107.5 -33t-41.5 -84t41.5 -84.5t107.5 -33.5z" />
    <glyph glyph-name="nine" unicode="9" horiz-adv-x="601" 
d="M286 -6q-101 0 -165 53t-76 145h109q12 -49 47 -77.5t90 -28.5q81 0 125 64.5t44 174.5q0 15 -1 28q-1 -2 -4 -9t-6 -12q-24 -45 -70.5 -70.5t-107.5 -25.5q-105 0 -170.5 64t-65.5 170q0 103 70 169.5t181 66.5q139 0 214 -110q62 -95 62 -241q0 -169 -72.5 -265
t-203.5 -96zM285 326q64 0 104 40.5t40 105.5q0 64 -39 103.5t-103 39.5q-63 0 -102 -40.5t-39 -104.5t37.5 -104t101.5 -40z" />
    <glyph glyph-name="colon" unicode=":" horiz-adv-x="224" 
d="M43 425q0 30 19.5 49t49.5 19t50 -19t20 -49t-20 -49t-50 -19t-49.5 19t-19.5 49zM43 62q0 30 19.5 49t49.5 19t50 -19t20 -49t-20 -49t-50 -19t-49.5 19t-19.5 49z" />
    <glyph glyph-name="semicolon" unicode=";" horiz-adv-x="224" 
d="M39 425q0 30 19.5 49t49.5 19t50 -19t20 -49t-20 -49t-50 -19t-49.5 19t-19.5 49zM103 129q40 0 65 -33t25 -82q0 -72 -43 -112t-118 -41v58q44 1 66 23t22 52q0 9 -1 13q-13 -10 -33 -10q-26 0 -42.5 16.5t-16.5 47.5q0 29 21 48.5t55 19.5z" />
    <glyph glyph-name="less" unicode="&#x3c;" horiz-adv-x="520" 
d="M453 66l-386 167v102l386 167v-105l-266 -113l266 -113v-105z" />
    <glyph glyph-name="equal" unicode="=" horiz-adv-x="520" 
d="M459 337h-398v92h398v-92zM459 126h-398v91h398v-91z" />
    <glyph glyph-name="greater" unicode="&#x3e;" horiz-adv-x="520" 
d="M67 502l386 -167v-102l-386 -167v105l266 113l-266 113v105z" />
    <glyph glyph-name="question" unicode="?" horiz-adv-x="522" 
d="M139 471h-110q0 101 63.5 168t172.5 67q103 0 164 -51t61 -131q0 -62 -26 -100.5t-74 -72.5q-48 -33 -68 -56t-20 -57v-20h-102v32q0 38 16 67.5t35 45.5t56 40q71 47 71 110q0 43 -31 70t-81 27q-58 0 -92.5 -38.5t-34.5 -100.5zM185 61q0 30 19.5 48.5t49.5 18.5
t49 -18.5t19 -48.5t-19 -48.5t-49 -18.5t-49.5 18.5t-19.5 48.5z" />
    <glyph glyph-name="at" unicode="@" horiz-adv-x="981" 
d="M48 244q0 187 134.5 311.5t328.5 124.5q187 0 305 -102t118 -262q0 -119 -64 -193.5t-162 -74.5q-45 0 -73.5 22t-34.5 55l-2 14q-19 -41 -60 -65.5t-93 -24.5q-73 0 -124 53t-51 138q0 96 60 163t145 67q53 0 86.5 -20t43.5 -50l17 62h85l-30 -282q-7 -62 50 -62
q47 0 82 58t35 143q0 129 -91 207.5t-244 78.5q-162 0 -267 -103t-105 -256q0 -155 94.5 -240.5t268.5 -85.5q128 0 225 57l-3 -82q-84 -52 -231 -52q-196 0 -319.5 109.5t-123.5 291.5zM595 286q0 51 -27 79t-71 28q-54 0 -90.5 -43t-36.5 -104q0 -54 28.5 -86t72.5 -32
q52 0 88 43.5t36 114.5z" />
    <glyph glyph-name="A" unicode="A" horiz-adv-x="676" 
d="M127 0h-119l262 700h137l261 -700h-123l-66 173h-287zM335 576l-111 -305h223z" />
    <glyph glyph-name="B" unicode="B" horiz-adv-x="627" 
d="M64 0v700h257q115 0 178.5 -49t63.5 -136q0 -120 -120 -153q67 -10 107 -50.5t40 -111.5q0 -94 -67.5 -147t-192.5 -53h-266zM324 604h-145v-201h145q59 0 91.5 27t32.5 74t-32.5 73.5t-91.5 26.5zM331 308h-152v-211h152q68 0 104.5 27.5t36.5 76.5q0 51 -37 79t-104 28
z" />
    <glyph glyph-name="C" unicode="C" horiz-adv-x="703" 
d="M368 -6q-152 0 -241.5 97t-89.5 259q0 161 92 258.5t246 97.5q120 0 200.5 -66.5t97.5 -177.5h-119q-17 67 -65.5 105t-118.5 38q-99 0 -157 -70.5t-58 -184.5t57 -184.5t155 -70.5q72 0 120.5 38t65.5 105h119q-17 -111 -99.5 -177.5t-204.5 -66.5z" />
    <glyph glyph-name="D" unicode="D" horiz-adv-x="696" 
d="M302 0h-238v700h238q163 0 260 -96t97 -253t-97 -254t-260 -97zM179 600v-500h123q114 0 176.5 68t62.5 183q0 114 -62.5 181.5t-176.5 67.5h-123z" />
    <glyph glyph-name="E" unicode="E" horiz-adv-x="563" 
d="M64 0v700h457v-102h-342v-194h282v-99h-282v-203h354v-102h-469z" />
    <glyph glyph-name="F" unicode="F" horiz-adv-x="535" 
d="M64 0v700h447v-102h-332v-203h274v-99h-274v-296h-115z" />
    <glyph glyph-name="G" unicode="G" horiz-adv-x="748" 
d="M368 -6q-147 0 -239 98.5t-92 257.5q0 161 92.5 258.5t247.5 97.5q121 0 203 -66.5t98 -177.5h-119q-16 67 -64.5 105t-120.5 38q-99 0 -159 -71t-60 -184q0 -114 59.5 -184.5t158.5 -70.5q84 0 140.5 46t60.5 128v17h-194v97h304v-383h-89l-10 94q-29 -42 -84.5 -71
t-132.5 -29z" />
    <glyph glyph-name="H" unicode="H" horiz-adv-x="683" 
d="M64 0v700h115v-294h325v294h115v-700h-115v304h-325v-304h-115z" />
    <glyph glyph-name="I" unicode="I" horiz-adv-x="243" 
d="M64 0v700h115v-700h-115z" />
    <glyph glyph-name="J" unicode="J" horiz-adv-x="371" 
d="M192 191v509h115v-526q0 -84 -45.5 -129t-129.5 -45h-108v102h82q45 0 65.5 21.5t20.5 67.5z" />
    <glyph glyph-name="K" unicode="K" horiz-adv-x="658" 
d="M64 0v700h115v-361l321 361h140l-257 -294l276 -406h-139l-220 321l-121 -136v-185h-115z" />
    <glyph glyph-name="L" unicode="L" horiz-adv-x="500" 
d="M480 0h-416v700h115v-598h301v-102z" />
    <glyph glyph-name="M" unicode="M" horiz-adv-x="867" 
d="M64 0v700h149l224 -551l220 551h146v-700h-111v515l-210 -515h-97l-210 515v-515h-111z" />
    <glyph glyph-name="N" unicode="N" horiz-adv-x="687" 
d="M177 0h-113v700h105l341 -496v496h113v-700h-105l-341 496v-496z" />
    <glyph glyph-name="O" unicode="O" horiz-adv-x="754" 
d="M717 350q0 -155 -95 -255.5t-245 -100.5t-245 100.5t-95 255.5t95 255.5t245 100.5t245 -100.5t95 -255.5zM155 350q0 -112 61.5 -183.5t160.5 -71.5t160.5 71.5t61.5 183.5t-61.5 183.5t-160.5 71.5t-160.5 -71.5t-61.5 -183.5z" />
    <glyph glyph-name="P" unicode="P" horiz-adv-x="606" 
d="M64 0v700h276q110 0 176 -60.5t66 -162.5q0 -101 -66 -162t-176 -61h-161v-254h-115zM331 600h-152v-246h151q62 0 98.5 33.5t36.5 89.5q0 57 -36 90t-98 33z" />
    <glyph glyph-name="Q" unicode="Q" horiz-adv-x="759" 
d="M692 102h61v-102h-68q-41 0 -64.5 11.5t-43.5 37.5l-3 4q-84 -59 -197 -59q-150 0 -245 100.5t-95 255.5t95 255.5t245 100.5t245 -100.5t95 -255.5q0 -136 -73 -229q19 -19 48 -19zM377 95q75 0 131 43l-15 20q-25 34 -56 34h-62v100h75q37 0 58.5 -11.5t40.5 -37.5
l21 -27q29 58 29 134q0 112 -61.5 183.5t-160.5 71.5t-160.5 -71.5t-61.5 -183.5t61.5 -183.5t160.5 -71.5z" />
    <glyph glyph-name="R" unicode="R" horiz-adv-x="623" 
d="M64 0v700h276q110 0 177 -60.5t67 -162.5q0 -70 -37 -123t-99 -75l148 -279h-128l-135 254h-154v-254h-115zM331 600h-152v-246h152q62 0 98.5 33.5t36.5 89.5t-36.5 89.5t-98.5 33.5z" />
    <glyph glyph-name="S" unicode="S" horiz-adv-x="615" 
d="M36 230l116 -2q5 -62 50 -99.5t118 -37.5q64 0 103.5 27.5t39.5 76.5q0 22 -9.5 38t-22.5 26.5t-40 19.5t-49.5 14t-62.5 12q-50 9 -85.5 20.5t-70 32.5t-52.5 57t-18 86q0 92 68.5 148.5t180.5 56.5q119 0 190 -59t75 -157h-115q-7 54 -47 86.5t-103 32.5
q-61 0 -97.5 -26t-36.5 -74q0 -49 42 -69t140 -37q50 -9 85.5 -20.5t71 -33t53.5 -57.5t18 -85q0 -95 -72 -154t-187 -59q-129 0 -204.5 64.5t-78.5 171.5z" />
    <glyph glyph-name="T" unicode="T" horiz-adv-x="587" 
d="M20 598v102h547v-102h-216v-598h-115v598h-216z" />
    <glyph glyph-name="U" unicode="U" horiz-adv-x="672" 
d="M60 300v400h115v-406q0 -198 160 -198q162 0 162 198v406h115v-400q0 -150 -70.5 -228t-206.5 -78q-135 0 -205 78t-70 228z" />
    <glyph glyph-name="V" unicode="V" horiz-adv-x="639" 
d="M251 0l-246 700h122l193 -562l195 562h119l-245 -700h-138z" />
    <glyph glyph-name="W" unicode="W" horiz-adv-x="974" 
d="M210 0l-199 700l119 1l149 -555l156 554h109l152 -554l150 554h118l-201 -700h-134l-143 515l-141 -515h-135z" />
    <glyph glyph-name="X" unicode="X" horiz-adv-x="635" 
d="M13 0l232 358l-219 342h136l157 -249l160 249h130l-219 -337l233 -363h-137l-171 269l-172 -269h-130z" />
    <glyph glyph-name="Y" unicode="Y" horiz-adv-x="647" 
d="M266 259l-261 441h135l184 -320l189 320h129l-261 -441v-259h-115v259z" />
    <glyph glyph-name="Z" unicode="Z" horiz-adv-x="610" 
d="M36 599v101h538v-79l-392 -520h403v-101h-560v79l392 520h-381z" />
    <glyph glyph-name="bracketleft" unicode="[" horiz-adv-x="313" 
d="M58 -130v860h240v-95h-137v-670h137v-95h-240z" />
    <glyph glyph-name="backslash" unicode="\" horiz-adv-x="422" 
d="M136 730l283 -860h-104l-284 860h105z" />
    <glyph glyph-name="bracketright" unicode="]" horiz-adv-x="313" 
d="M255 730v-860h-240v95h137v670h-137v95h240z" />
    <glyph glyph-name="asciicircum" unicode="^" horiz-adv-x="519" 
d="M132 388h-94l179 312h85l180 -312h-99l-126 217z" />
    <glyph glyph-name="underscore" unicode="_" horiz-adv-x="503" 
d="M448 -109h-393v103h393v-103z" />
    <glyph glyph-name="grave" unicode="`" horiz-adv-x="400" 
d="M156 561l-119 139h125l77 -139h-83z" />
    <glyph glyph-name="a" unicode="a" horiz-adv-x="549" 
d="M521 94h22v-94h-57q-94 0 -94 82q-58 -88 -169 -88q-86 0 -138 40t-52 110q0 79 56 121.5t163 42.5h129v31q0 43 -29.5 67.5t-82.5 24.5q-47 0 -78 -20.5t-37 -54.5h-106q8 75 68.5 118.5t157.5 43.5q103 0 158.5 -48t55.5 -138v-205q0 -19 8 -26t25 -7zM381 210v18h-134
q-104 0 -104 -77q0 -33 25.5 -53t69.5 -20q67 0 104.5 36t38.5 96z" />
    <glyph glyph-name="b" unicode="b" horiz-adv-x="603" 
d="M327 518q107 0 174.5 -70.5t67.5 -191.5q0 -117 -68 -189.5t-174 -72.5q-111 0 -167 80l-13 -74h-94v700h108v-264q61 82 166 82zM309 85q67 0 108.5 47.5t41.5 123.5q0 75 -41.5 122.5t-108.5 47.5t-108 -47t-41 -122q0 -76 41 -124t108 -48z" />
    <glyph glyph-name="c" unicode="c" horiz-adv-x="556" 
d="M288 -6q-116 0 -185 70.5t-69 190.5q0 119 70.5 191t186.5 72q97 0 158 -50t77 -139h-113q-11 46 -43 71.5t-81 25.5q-65 0 -104.5 -47.5t-39.5 -123.5q0 -75 39.5 -122t104.5 -47q49 0 81 26t42 71h114q-15 -88 -78 -138.5t-160 -50.5z" />
    <glyph glyph-name="d" unicode="d" horiz-adv-x="603" 
d="M442 441v259h108v-700h-94l-13 77q-61 -83 -167 -83q-107 0 -174.5 70.5t-67.5 191.5q0 117 68.5 189.5t173.5 72.5q110 0 166 -77zM294 85q67 0 108 47t41 122q0 77 -41 124.5t-108 47.5t-108 -47.5t-41 -122.5q0 -76 41 -123.5t108 -47.5z" />
    <glyph glyph-name="e" unicode="e" horiz-adv-x="570" 
d="M296 -6q-120 0 -191 71.5t-71 189.5t69.5 190.5t182.5 72.5q111 0 179.5 -66t70.5 -178q0 -20 -3 -41h-386v-7q2 -66 41 -105t102 -39q50 0 84 23.5t45 66.5h108q-14 -78 -76 -128t-155 -50zM151 312h273q-7 56 -43.5 87.5t-93.5 31.5q-53 0 -91.5 -32.5t-44.5 -86.5z
" />
    <glyph glyph-name="f" unicode="f" horiz-adv-x="339" 
d="M1 417v95h89v48q0 140 143 140h103v-95h-89q-26 0 -38 -12t-12 -38v-43h139v-95h-137v-417h-109v417h-89z" />
    <glyph glyph-name="g" unicode="g" horiz-adv-x="603" 
d="M444 432l12 80h94v-491q0 -108 -64 -167.5t-198 -59.5q-104 0 -169 46.5t-72 131.5h110q10 -43 46 -66.5t93 -23.5q147 0 147 143v57q-56 -84 -167 -84q-107 0 -174.5 70t-67.5 190q0 116 68 188t174 72q112 0 168 -86zM294 89q67 0 108 46.5t41 120.5q0 76 -41 123.5
t-108 47.5t-108 -47t-41 -122t41 -122t108 -47z" />
    <glyph glyph-name="h" unicode="h" horiz-adv-x="574" 
d="M322 518q93 0 150 -56t57 -177v-285h-108v276q0 73 -31.5 111t-91.5 38q-64 0 -100.5 -44.5t-36.5 -121.5v-259h-108v700h108v-262q58 80 161 80z" />
    <glyph glyph-name="i" unicode="i" horiz-adv-x="214" 
d="M108 584q-28 0 -47 18.5t-19 46.5t19 46.5t47 18.5t47 -18.5t19 -46.5t-19 -46.5t-47 -18.5zM53 0v512h108v-512h-108z" />
    <glyph glyph-name="j" unicode="j" horiz-adv-x="220" 
d="M113 584q-28 0 -47 18.5t-19 46.5t19 46.5t47 18.5t47 -18.5t19 -46.5t-19 -46.5t-47 -18.5zM-53 -200v95h58q28 0 41 13.5t13 42.5v561h108v-569q0 -143 -140 -143h-80z" />
    <glyph glyph-name="k" unicode="k" horiz-adv-x="531" 
d="M53 0v700h108v-436l232 248h127l-193 -207l205 -305h-128l-151 226l-92 -96v-130h-108z" />
    <glyph glyph-name="l" unicode="l" horiz-adv-x="214" 
d="M53 0v700h108v-700h-108z" />
    <glyph glyph-name="m" unicode="m" horiz-adv-x="879" 
d="M642 518q86 0 139 -54t53 -169v-295h-108v288q0 137 -107 137q-56 0 -88.5 -39.5t-32.5 -108.5v-277h-109v288q0 137 -108 137q-55 0 -87.5 -41t-32.5 -110v-274h-108v512h94l12 -67q55 72 150 73q114 0 158 -93q55 93 175 93z" />
    <glyph glyph-name="n" unicode="n" horiz-adv-x="574" 
d="M323 518q92 0 149 -56t57 -177v-285h-109v276q0 149 -122 149q-64 0 -100.5 -44.5t-36.5 -122.5v-258h-108v512h94l12 -67q58 73 164 73z" />
    <glyph glyph-name="o" unicode="o" horiz-adv-x="590" 
d="M295 -6q-117 0 -189 72t-72 190q0 117 72 189.5t189 72.5t189 -72.5t72 -189.5q0 -118 -72 -190t-189 -72zM295 86q68 0 109.5 47.5t41.5 122.5t-41.5 122.5t-109.5 47.5t-109 -47.5t-41 -122.5t41 -122.5t109 -47.5z" />
    <glyph glyph-name="p" unicode="p" horiz-adv-x="603" 
d="M327 518q107 0 174.5 -70.5t67.5 -191.5q0 -117 -68 -189.5t-174 -72.5q-112 0 -166 78v-272h-108v712h94l13 -76q62 82 167 82zM309 85q67 0 108.5 48t41.5 123q0 76 -41.5 123t-108.5 47t-108 -46.5t-41 -121.5q0 -77 41 -125t108 -48z" />
    <glyph glyph-name="q" unicode="q" horiz-adv-x="603" 
d="M444 439l12 73h94v-712h-108v276q-61 -82 -166 -82q-107 0 -174.5 70.5t-67.5 191.5q0 117 68.5 189.5t173.5 72.5q113 0 168 -79zM294 85q67 0 108 47.5t41 122.5q0 76 -41 123.5t-108 47.5t-108 -47t-41 -123t41 -123.5t108 -47.5z" />
    <glyph glyph-name="r" unicode="r" horiz-adv-x="350" 
d="M312 512h24v-101h-48q-67 0 -97 -43.5t-30 -110.5v-257h-108v512h96l12 -77q47 77 151 77z" />
    <glyph glyph-name="s" unicode="s" horiz-adv-x="513" 
d="M31 169h106q3 -41 37 -66t91 -25q50 0 80.5 18t30.5 49q0 19 -7 31.5t-25.5 19.5t-34.5 10t-51 7q-5 1 -8 1q-50 6 -83 14t-64 23.5t-46.5 42.5t-15.5 65q0 72 58.5 116t151.5 43q96 0 156.5 -43t65.5 -120h-106q-5 36 -36 58t-78 22q-48 0 -77 -18t-29 -49
q0 -12 3.5 -20.5t12.5 -15t17.5 -10.5t25.5 -7t29 -4.5t35 -4.5q40 -5 67.5 -10.5t57 -16.5t47 -26.5t29 -40.5t11.5 -58q0 -72 -61 -116t-156 -44q-104 0 -168 46.5t-66 128.5z" />
    <glyph glyph-name="t" unicode="t" horiz-adv-x="346" 
d="M90 139v278h-89v95h89v143h109v-143h125v-95h-125v-267q0 -30 12 -42.5t43 -12.5h76v-95h-100q-73 0 -106.5 34t-33.5 105z" />
    <glyph glyph-name="u" unicode="u" horiz-adv-x="565" 
d="M404 256v256h108v-512h-95l-12 65q-58 -71 -158 -71q-90 0 -146 55t-56 178v285h108v-273q0 -151 119 -151q62 0 97 44.5t35 123.5z" />
    <glyph glyph-name="v" unicode="v" horiz-adv-x="514" 
d="M191 0l-189 512h116l141 -396l139 396h114l-189 -512h-132z" />
    <glyph glyph-name="w" unicode="w" horiz-adv-x="798" 
d="M171 0l-167 512h114l117 -392l117 392h99l112 -392l121 392h110l-170 -512h-116l-108 348l-112 -348h-117z" />
    <glyph glyph-name="x" unicode="x" horiz-adv-x="514" 
d="M0 0l192 262l-181 250h126l122 -173l125 173h119l-182 -250l193 -262h-126l-134 186l-135 -186h-119z" />
    <glyph glyph-name="y" unicode="y" horiz-adv-x="516" 
d="M201 -3l-199 515h115l143 -389l139 389h115l-232 -592q-26 -68 -51 -94t-78 -26h-116v95h76q31 0 43.5 10t24.5 42z" />
    <glyph glyph-name="z" unicode="z" horiz-adv-x="488" 
d="M34 417v95h419v-77l-286 -340h299v-95h-444v77l286 340h-274z" />
    <glyph glyph-name="braceleft" unicode="{" horiz-adv-x="336" 
d="M321 635h-33q-88 0 -88 -77q0 -14 3 -31l20 -83q5 -22 5 -37q0 -83 -88 -105q42 -7 65 -35t23 -70q0 -22 -5 -41l-20 -83q-3 -18 -3 -31q0 -77 88 -77h33v-95h-29q-92 0 -144.5 39.5t-52.5 108.5q0 21 4 41l19 89q3 18 3 33q0 71 -95 73v92q96 2 96 73q0 9 -4 33l-19 89
q-4 20 -4 42q0 68 53 107.5t144 39.5h29v-95z" />
    <glyph glyph-name="bar" unicode="|" horiz-adv-x="237" 
d="M64 -130v860h109v-860h-109z" />
    <glyph glyph-name="braceright" unicode="}" horiz-adv-x="336" 
d="M310 346v-92q-95 -2 -95 -73q0 -15 3 -33l19 -89q4 -20 4 -41q0 -69 -52.5 -108.5t-144.5 -39.5h-29v95h33q88 0 88 77q0 13 -3 31l-20 83q-5 19 -5 41q0 42 23 70t65 35q-88 22 -88 105q0 15 5 37l20 83q3 17 3 31q0 77 -88 77h-33v95h29q91 0 144 -39.5t53 -107.5
q0 -22 -4 -42l-19 -89q-4 -24 -4 -33q0 -71 96 -73z" />
    <glyph glyph-name="asciitilde" unicode="~" horiz-adv-x="520" 
d="M139 205h-88q0 77 32 117.5t90 40.5q38 0 67.5 -15.5t51 -31t39.5 -15.5q50 0 50 62h88q0 -77 -32 -117t-90 -40q-30 0 -55.5 9.5t-39.5 21t-31 21t-32 9.5q-50 0 -50 -62z" />
    <glyph glyph-name="uni00A0" unicode="&#xa0;" horiz-adv-x="256" 
 />
    <glyph glyph-name="exclamdown" unicode="&#xa1;" horiz-adv-x="267" 
d="M134 706q30 0 49.5 -19t19.5 -49t-19.5 -49t-49.5 -19t-50 19t-20 49t20 49t50 19zM76 0l17 487h82l17 -487h-116z" />
    <glyph glyph-name="cent" unicode="&#xa2;" horiz-adv-x="556" 
d="M289 178q49 0 81 26t42 71h114q-13 -75 -60 -123t-122 -61v-91h-97v88q-99 13 -156 82t-57 177q0 107 57.5 176.5t155.5 83.5v93h97v-94q75 -13 121.5 -61t60.5 -124h-113q-11 46 -43 71.5t-81 25.5q-65 0 -104.5 -47.5t-39.5 -123.5q0 -75 39.5 -122t104.5 -47z" />
    <glyph glyph-name="sterling" unicode="&#xa3;" horiz-adv-x="618" 
d="M36 281v85h78q-22 90 -22 121q0 96 68 157.5t169 61.5q112 0 178.5 -61t74.5 -170h-109q-8 63 -42.5 98t-96.5 35q-59 0 -95.5 -35t-36.5 -93q0 -22 23 -114h203v-85h-193q6 -42 -11.5 -91.5t-51.5 -86.5l408 -2v-101h-528v96q77 83 72 185h-88z" />
    <glyph glyph-name="currency" unicode="&#xa4;" horiz-adv-x="641" 
d="M43 552l76 75l73 -72q57 38 129 38q71 0 128 -38l73 72l76 -75l-71 -71q43 -58 43 -138q0 -70 -37 -130l65 -65l-76 -75l-64 64q-60 -44 -137 -44q-78 0 -138 44l-64 -64l-76 76l65 65q-37 60 -37 129q0 80 43 138zM166 343q0 -68 43.5 -112t111.5 -44q67 0 110.5 44
t43.5 112t-43.5 112t-110.5 44q-68 0 -111.5 -44t-43.5 -112z" />
    <glyph glyph-name="yen" unicode="&#xa5;" horiz-adv-x="675" 
d="M515 700h128l-218 -374h143v-83h-182v-69h182v-83h-182v-91h-115v91h-183v83h183v69h-183v83h143l-223 374h136l184 -320z" />
    <glyph glyph-name="brokenbar" unicode="&#xa6;" horiz-adv-x="237" 
d="M64 358v372h109v-372h-109zM64 -130v369h109v-369h-109z" />
    <glyph glyph-name="section" unicode="&#xa7;" horiz-adv-x="609" 
d="M548 301q0 -93 -108 -133q65 -41 65 -116q0 -71 -55 -114.5t-146 -43.5q-88 0 -144.5 42t-60.5 113h107q2 -35 28.5 -54.5t69.5 -19.5t69 18t26 51q0 37 -25.5 54t-83.5 33q-46 13 -70.5 21t-60 23.5t-53 31t-31 39.5t-13.5 54q0 92 104 134q-63 41 -63 114
q0 71 56 114.5t148 43.5q87 0 142.5 -41.5t59.5 -113.5h-106q-2 36 -28 55t-68 19q-44 0 -71 -18t-26 -50q0 -37 26 -54.5t83 -33.5q47 -13 71 -21t59.5 -23.5t53.5 -30.5t31.5 -39t13.5 -54zM305 218l52 -15q78 25 78 89q0 36 -29.5 53.5t-101.5 36.5q-7 2 -24 6.5t-26 7.5
q-80 -24 -80 -88q0 -36 29.5 -53.5t101.5 -36.5z" />
    <glyph glyph-name="dieresis" unicode="&#xa8;" horiz-adv-x="400" 
d="M41 637q0 26 18 43.5t44 17.5q28 0 45.5 -17.5t17.5 -43.5t-17.5 -43.5t-45.5 -17.5q-26 0 -44 17.5t-18 43.5zM234 637q0 26 18.5 43.5t44.5 17.5q27 0 44.5 -17.5t17.5 -43.5t-17.5 -43.5t-44.5 -17.5q-26 0 -44.5 17.5t-18.5 43.5z" />
    <glyph glyph-name="copyright" unicode="&#xa9;" horiz-adv-x="806" 
d="M38 350q0 152 104.5 254t259.5 102t260.5 -102.5t105.5 -253.5t-105.5 -253.5t-260.5 -102.5t-259.5 102t-104.5 254zM700 350q0 127 -85.5 212t-212.5 85q-126 0 -211 -85t-85 -212t85 -212t211 -85q127 0 212.5 85t85.5 212zM509 295h76q-10 -70 -59 -110t-123 -40
q-90 0 -143 60t-53 146t53 146t143 60q71 0 121.5 -40t60.5 -110h-77q-9 36 -36.5 58.5t-66.5 22.5q-57 0 -88 -39t-31 -98q0 -58 31.5 -97.5t87.5 -39.5q40 0 67 22t37 59z" />
    <glyph glyph-name="ordfeminine" unicode="&#xaa;" horiz-adv-x="426" 
d="M53 470q0 49 37 75.5t107 26.5h74v18q0 26 -18 41t-51 15q-26 0 -43 -13t-19 -34h-79q4 50 43 78.5t101 28.5q67 0 104.5 -31t37.5 -88v-118q0 -24 24 -24h12v-61h-39q-60 0 -60 53v6q-31 -63 -110 -63q-54 0 -87.5 23.5t-33.5 66.5zM271 518v5h-76q-29 0 -45.5 -13
t-16.5 -34q0 -40 53 -40q38 0 61.5 24t23.5 58zM50 241v68h333v-68h-333z" />
    <glyph glyph-name="guillemotleft" unicode="&#xab;" horiz-adv-x="546" 
d="M181 512h109l-154 -256l154 -256h-109l-155 256zM409 511h109l-154 -256l154 -256h-109l-156 256z" />
    <glyph glyph-name="logicalnot" unicode="&#xac;" horiz-adv-x="520" 
d="M51 261v92h379v-255h-96v163h-283z" />
    <glyph glyph-name="uni00AD" unicode="&#xad;" horiz-adv-x="434" 
d="M387 240h-340v89h340v-89z" />
    <glyph glyph-name="registered" unicode="&#xae;" horiz-adv-x="515" 
d="M43 495q0 90 62 151t152 61q91 0 153.5 -61t62.5 -150t-62.5 -149t-153.5 -60q-90 0 -152 60t-62 148zM422 496q0 71 -47 118.5t-118 47.5t-117.5 -47.5t-46.5 -119.5q0 -71 46.5 -117.5t117.5 -46.5t118 47t47 118zM176 382v228h90q41 0 65 -20t24 -54q0 -48 -48 -66
l50 -88h-55l-44 78h-32v-78h-50zM263 569h-37v-68h37q18 0 29 9.5t11 25.5q0 33 -40 33z" />
    <glyph glyph-name="macron" unicode="&#xaf;" horiz-adv-x="400" 
d="M346 599h-291v79h291v-79z" />
    <glyph glyph-name="degree" unicode="&#xb0;" horiz-adv-x="431" 
d="M43 540q0 71 49.5 118t123.5 47t123.5 -47t49.5 -118q0 -70 -49.5 -117t-123.5 -47t-123.5 47t-49.5 117zM307 540q0 40 -26 65.5t-65 25.5t-65 -25.5t-26 -65.5q0 -39 26 -64.5t65 -25.5t65 25.5t26 64.5z" />
    <glyph glyph-name="plusminus" unicode="&#xb1;" horiz-adv-x="520" 
d="M210 364v169h99v-169h160v-91h-160v-169h-99v169h-159v91h159zM469 0h-418v91h418v-91z" />
    <glyph glyph-name="uni00B2" unicode="&#xb2;" horiz-adv-x="320" 
d="M94 668h-73v7q0 59 39 95t97 36q63 0 101 -32.5t38 -85.5q0 -36 -18 -61.5t-52 -51.5l-91 -70h164v-69h-276v65l147 109q49 38 49 76q0 24 -17 38.5t-44 14.5q-29 0 -46.5 -17.5t-17.5 -49.5v-4z" />
    <glyph glyph-name="uni00B3" unicode="&#xb3;" horiz-adv-x="330" 
d="M102 690h-74q1 55 38 86.5t99 31.5t98.5 -28t36.5 -74q0 -30 -17.5 -49.5t-43.5 -26.5q32 -6 50.5 -28t18.5 -55q0 -53 -39 -84t-107 -31q-69 0 -106 32.5t-38 92.5h74q1 -28 19.5 -44t50.5 -16q30 0 49 14t19 38q0 50 -69 50h-24v49h22q29 0 47 13t18 35q0 21 -16 34
t-43 13q-28 0 -45 -14.5t-18 -38.5z" />
    <glyph glyph-name="acute" unicode="&#xb4;" horiz-adv-x="400" 
d="M243 562h-82l80 138h125z" />
    <glyph glyph-name="uni00B5" unicode="&#xb5;" horiz-adv-x="584" 
d="M553 94h21v-94h-60q-89 0 -97 74q-45 -80 -150 -80q-34 0 -64 12.5t-41 29.5v-236h-109v712h108v-269q0 -155 121 -155q59 0 94.5 46t35.5 126v252h108l-1 -383q0 -20 7.5 -27.5t26.5 -7.5z" />
    <glyph glyph-name="paragraph" unicode="&#xb6;" horiz-adv-x="705" 
d="M470 0h-103v227h-89q-115 0 -184.5 65t-69.5 171t69.5 171.5t183.5 65.5h193v-700zM538 0v700h103v-700h-103z" />
    <glyph glyph-name="periodcentered" unicode="&#xb7;" horiz-adv-x="224" 
d="M43 285q0 30 19.5 49t49.5 19t50 -19t20 -49t-20 -49t-50 -19t-49.5 19t-19.5 49z" />
    <glyph glyph-name="cedilla" unicode="&#xb8;" horiz-adv-x="400" 
d="M149 -87l27 111h62l-16 -61h9q41 0 66.5 -19.5t25.5 -55.5q0 -40 -27 -64t-72 -24h-103v58h85q35 0 35 29q0 26 -35 26h-57z" />
    <glyph glyph-name="uni00B9" unicode="&#xb9;" horiz-adv-x="213" 
d="M92 762v39h71v-364h-73v232q-6 -8 -19 -8h-64v69h62q10 0 16.5 9.5t6.5 22.5z" />
    <glyph glyph-name="ordmasculine" unicode="&#xba;" horiz-adv-x="422" 
d="M373 543q0 -73 -44.5 -118t-118.5 -45q-73 0 -117 44.5t-44 118.5t44 118.5t117 44.5q74 0 118.5 -45t44.5 -118zM129 543q0 -44 22 -71t59 -27t60 27t23 71t-23 71t-60 27t-59 -27t-22 -71zM48 241v68h326v-68h-326z" />
    <glyph glyph-name="guillemotright" unicode="&#xbb;" horiz-adv-x="546" 
d="M409 256l-153 256h109l155 -256l-155 -256h-109zM182 255l-154 256h109l156 -256l-156 -256h-109z" />
    <glyph glyph-name="onequarter" unicode="&#xbc;" horiz-adv-x="719" 
d="M92 662v39h71v-364h-73v232q-6 -8 -19 -8h-64v69h62q10 0 16.5 9.5t6.5 22.5zM130 0h-87l444 700h86zM392 151l160 213h92v-214h56v-65h-56v-85h-73v85h-179v66zM571 150v142l-107 -142h107z" />
    <glyph glyph-name="onehalf" unicode="&#xbd;" horiz-adv-x="724" 
d="M92 662v39h71v-364h-73v232q-6 -8 -19 -8h-64v69h62q10 0 16.5 9.5t6.5 22.5zM130 0h-87l444 700h86zM497 232h-73v7q0 59 39 95t97 36q63 0 101 -32.5t38 -85.5q0 -36 -18 -61.5t-52 -51.5l-91 -70h164v-69h-276v65l147 109q49 38 49 76q0 24 -17 38.5t-44 14.5
q-29 0 -46.5 -17.5t-17.5 -49.5v-4z" />
    <glyph glyph-name="threequarters" unicode="&#xbe;" horiz-adv-x="836" 
d="M102 590h-74q1 55 38 86.5t99 31.5t98.5 -28t36.5 -74q0 -30 -17.5 -49.5t-43.5 -26.5q32 -6 50.5 -28t18.5 -55q0 -53 -39 -84t-107 -31q-69 0 -106 32.5t-38 92.5h74q1 -28 19.5 -44t50.5 -16q30 0 49 14t19 38q0 50 -69 50h-24v49h22q29 0 47 13t18 35q0 21 -16 34
t-43 13q-28 0 -45 -14.5t-18 -38.5zM247 0h-87l444 700h86zM509 151l160 213h92v-214h56v-65h-56v-85h-73v85h-179v66zM688 150v142l-107 -142h107z" />
    <glyph glyph-name="questiondown" unicode="&#xbf;" horiz-adv-x="519" 
d="M337 639q0 -30 -19.5 -48.5t-49.5 -18.5t-49 18.5t-19 48.5t19 48.5t49 18.5t49.5 -18.5t19.5 -48.5zM383 229h111q0 -101 -64 -168t-173 -67q-102 0 -163.5 51t-61.5 131q0 63 26.5 101t74.5 72q47 32 67 55.5t20 57.5v20h102v-32q0 -38 -16 -67.5t-35 -45.5t-56 -40
q-71 -47 -71 -110q0 -43 31 -70t81 -27q58 0 92.5 38.5t34.5 100.5z" />
    <glyph glyph-name="Agrave" unicode="&#xc0;" horiz-adv-x="676" 
d="M295 757l-119 139h125l77 -139h-83zM127 0h-119l262 700h137l261 -700h-123l-66 173h-287zM335 576l-111 -305h223z" />
    <glyph glyph-name="Aacute" unicode="&#xc1;" horiz-adv-x="676" 
d="M382 758h-82l80 138h125zM127 0h-119l262 700h137l261 -700h-123l-66 173h-287zM335 576l-111 -305h223z" />
    <glyph glyph-name="Acircumflex" unicode="&#xc2;" horiz-adv-x="676" 
d="M414 757l-75 72l-76 -72h-101l127 139h100l127 -139h-102zM127 0h-119l262 700h137l261 -700h-123l-66 173h-287zM335 576l-111 -305h223z" />
    <glyph glyph-name="Atilde" unicode="&#xc3;" horiz-adv-x="676" 
d="M290 822q-16 0 -24.5 -12.5t-8.5 -31.5h-69v16q0 42 26 71t66 29q35 0 64 -23.5t44 -23.5q16 0 24.5 13t8.5 32h68v-16q0 -43 -25.5 -72t-65.5 -29q-35 0 -64 23.5t-44 23.5zM127 0h-119l262 700h137l261 -700h-123l-66 173h-287zM335 576l-111 -305h223z" />
    <glyph glyph-name="Adieresis" unicode="&#xc4;" horiz-adv-x="676" 
d="M180 833q0 26 18 43.5t44 17.5q28 0 45.5 -17.5t17.5 -43.5t-17.5 -43.5t-45.5 -17.5q-26 0 -44 17.5t-18 43.5zM373 833q0 26 18.5 43.5t44.5 17.5q27 0 44.5 -17.5t17.5 -43.5t-17.5 -43.5t-44.5 -17.5q-26 0 -44.5 17.5t-18.5 43.5zM127 0h-119l262 700h137l261 -700
h-123l-66 173h-287zM335 576l-111 -305h223z" />
    <glyph glyph-name="Aring" unicode="&#xc5;" horiz-adv-x="676" 
d="M413 684l255 -684h-123l-66 173h-287l-65 -173h-119l256 683q-49 36 -49 94q0 48 35.5 81.5t87.5 33.5q51 0 86.5 -33.5t35.5 -81.5q0 -57 -47 -93zM338 838q-26 0 -43.5 -17.5t-17.5 -43.5q0 -27 17.5 -45t43.5 -18t43.5 18t17.5 45q0 26 -17.5 43.5t-43.5 17.5z
M335 576l-111 -305h223z" />
    <glyph glyph-name="AE" unicode="&#xc6;" horiz-adv-x="975" 
d="M591 305v-203h354v-102h-469v164h-257l-102 -164h-119l418 700h516v-102h-341v-194h281v-99h-281zM476 604l-205 -344h205v344z" />
    <glyph glyph-name="Ccedilla" unicode="&#xc7;" horiz-adv-x="703" 
d="M367 95q72 0 120.5 38t65.5 105h119q-16 -104 -90 -169.5t-185 -73.5l-8 -32h9q41 0 66.5 -19.5t25.5 -55.5q0 -40 -27 -64t-72 -24h-103v58h85q35 0 35 29q0 26 -35 26h-57l20 82q-138 10 -218.5 106t-80.5 249q0 161 92 258.5t246 97.5q120 0 200.5 -66.5t97.5 -177.5
h-119q-17 67 -65.5 105t-118.5 38q-99 0 -157 -70.5t-58 -184.5t57 -184.5t155 -70.5z" />
    <glyph glyph-name="Egrave" unicode="&#xc8;" horiz-adv-x="563" 
d="M254 757l-119 139h125l77 -139h-83zM64 0v700h457v-102h-342v-194h282v-99h-282v-203h354v-102h-469z" />
    <glyph glyph-name="Eacute" unicode="&#xc9;" horiz-adv-x="563" 
d="M341 758h-82l80 138h125zM64 0v700h457v-102h-342v-194h282v-99h-282v-203h354v-102h-469z" />
    <glyph glyph-name="Ecircumflex" unicode="&#xca;" horiz-adv-x="563" 
d="M373 757l-75 72l-76 -72h-101l127 139h100l127 -139h-102zM64 0v700h457v-102h-342v-194h282v-99h-282v-203h354v-102h-469z" />
    <glyph glyph-name="Edieresis" unicode="&#xcb;" horiz-adv-x="563" 
d="M139 833q0 26 18 43.5t44 17.5q28 0 45.5 -17.5t17.5 -43.5t-17.5 -43.5t-45.5 -17.5q-26 0 -44 17.5t-18 43.5zM332 833q0 26 18.5 43.5t44.5 17.5q27 0 44.5 -17.5t17.5 -43.5t-17.5 -43.5t-44.5 -17.5q-26 0 -44.5 17.5t-18.5 43.5zM64 0v700h457v-102h-342v-194h282
v-99h-282v-203h354v-102h-469z" />
    <glyph glyph-name="Igrave" unicode="&#xcc;" horiz-adv-x="243" 
d="M77 757l-119 139h125l77 -139h-83zM64 0v700h115v-700h-115z" />
    <glyph glyph-name="Iacute" unicode="&#xcd;" horiz-adv-x="243" 
d="M164 758h-82l80 138h125zM64 0v700h115v-700h-115z" />
    <glyph glyph-name="Icircumflex" unicode="&#xce;" horiz-adv-x="243" 
d="M196 757l-75 72l-76 -72h-101l127 139h100l127 -139h-102zM64 0v700h115v-700h-115z" />
    <glyph glyph-name="Idieresis" unicode="&#xcf;" horiz-adv-x="243" 
d="M-38 833q0 26 18 43.5t44 17.5q28 0 45.5 -17.5t17.5 -43.5t-17.5 -43.5t-45.5 -17.5q-26 0 -44 17.5t-18 43.5zM155 833q0 26 18.5 43.5t44.5 17.5q27 0 44.5 -17.5t17.5 -43.5t-17.5 -43.5t-44.5 -17.5q-26 0 -44.5 17.5t-18.5 43.5zM64 0v700h115v-700h-115z" />
    <glyph glyph-name="Eth" unicode="&#xd0;" horiz-adv-x="721" 
d="M89 700h238q163 0 260 -96t97 -253t-97 -254t-260 -97h-238v312h-83v87h83v301zM204 100h123q114 0 176.5 68t62.5 183q0 114 -62.5 181.5t-176.5 67.5h-123v-201h129v-87h-129v-212z" />
    <glyph glyph-name="Ntilde" unicode="&#xd1;" horiz-adv-x="687" 
d="M287 822q-16 0 -24.5 -12.5t-8.5 -31.5h-69v16q0 42 26 71t66 29q35 0 64 -23.5t44 -23.5q16 0 24.5 13t8.5 32h68v-16q0 -43 -25.5 -72t-65.5 -29q-35 0 -64 23.5t-44 23.5zM177 0h-113v700h105l341 -496v496h113v-700h-105l-341 496v-496z" />
    <glyph glyph-name="Ograve" unicode="&#xd2;" horiz-adv-x="754" 
d="M333 757l-119 139h125l77 -139h-83zM717 350q0 -155 -95 -255.5t-245 -100.5t-245 100.5t-95 255.5t95 255.5t245 100.5t245 -100.5t95 -255.5zM155 350q0 -112 61.5 -183.5t160.5 -71.5t160.5 71.5t61.5 183.5t-61.5 183.5t-160.5 71.5t-160.5 -71.5t-61.5 -183.5z" />
    <glyph glyph-name="Oacute" unicode="&#xd3;" horiz-adv-x="754" 
d="M420 758h-82l80 138h125zM717 350q0 -155 -95 -255.5t-245 -100.5t-245 100.5t-95 255.5t95 255.5t245 100.5t245 -100.5t95 -255.5zM155 350q0 -112 61.5 -183.5t160.5 -71.5t160.5 71.5t61.5 183.5t-61.5 183.5t-160.5 71.5t-160.5 -71.5t-61.5 -183.5z" />
    <glyph glyph-name="Ocircumflex" unicode="&#xd4;" horiz-adv-x="754" 
d="M452 757l-75 72l-76 -72h-101l127 139h100l127 -139h-102zM717 350q0 -155 -95 -255.5t-245 -100.5t-245 100.5t-95 255.5t95 255.5t245 100.5t245 -100.5t95 -255.5zM155 350q0 -112 61.5 -183.5t160.5 -71.5t160.5 71.5t61.5 183.5t-61.5 183.5t-160.5 71.5
t-160.5 -71.5t-61.5 -183.5z" />
    <glyph glyph-name="Otilde" unicode="&#xd5;" horiz-adv-x="754" 
d="M328 822q-16 0 -24.5 -12.5t-8.5 -31.5h-69v16q0 42 26 71t66 29q35 0 64 -23.5t44 -23.5q16 0 24.5 13t8.5 32h68v-16q0 -43 -25.5 -72t-65.5 -29q-35 0 -64 23.5t-44 23.5zM717 350q0 -155 -95 -255.5t-245 -100.5t-245 100.5t-95 255.5t95 255.5t245 100.5t245 -100.5
t95 -255.5zM155 350q0 -112 61.5 -183.5t160.5 -71.5t160.5 71.5t61.5 183.5t-61.5 183.5t-160.5 71.5t-160.5 -71.5t-61.5 -183.5z" />
    <glyph glyph-name="Odieresis" unicode="&#xd6;" horiz-adv-x="754" 
d="M218 833q0 26 18 43.5t44 17.5q28 0 45.5 -17.5t17.5 -43.5t-17.5 -43.5t-45.5 -17.5q-26 0 -44 17.5t-18 43.5zM411 833q0 26 18.5 43.5t44.5 17.5q27 0 44.5 -17.5t17.5 -43.5t-17.5 -43.5t-44.5 -17.5q-26 0 -44.5 17.5t-18.5 43.5zM717 350q0 -155 -95 -255.5
t-245 -100.5t-245 100.5t-95 255.5t95 255.5t245 100.5t245 -100.5t95 -255.5zM155 350q0 -112 61.5 -183.5t160.5 -71.5t160.5 71.5t61.5 183.5t-61.5 183.5t-160.5 71.5t-160.5 -71.5t-61.5 -183.5z" />
    <glyph glyph-name="multiply" unicode="&#xd7;" horiz-adv-x="520" 
d="M52 422l68 69l143 -142l139 140l64 -64l-139 -140l142 -142l-70 -69l-142 142l-139 -140l-64 65l140 139z" />
    <glyph glyph-name="Oslash" unicode="&#xd8;" horiz-adv-x="754" 
d="M658 706l59 -59l-70 -74q70 -95 70 -223q0 -155 -95 -255.5t-245 -100.5q-123 0 -212 72l-68 -72l-60 59l70 74q-70 95 -70 223q0 155 95 255.5t245 100.5q123 0 212 -72zM155 350q0 -80 31 -140l330 347q-56 48 -139 48q-99 0 -160.5 -71.5t-61.5 -183.5zM599 350
q0 80 -31 140l-329 -347q56 -48 138 -48q99 0 160.5 71.5t61.5 183.5z" />
    <glyph glyph-name="Ugrave" unicode="&#xd9;" horiz-adv-x="672" 
d="M292 757l-119 139h125l77 -139h-83zM60 300v400h115v-406q0 -198 160 -198q162 0 162 198v406h115v-400q0 -150 -70.5 -228t-206.5 -78q-135 0 -205 78t-70 228z" />
    <glyph glyph-name="Uacute" unicode="&#xda;" horiz-adv-x="672" 
d="M379 758h-82l80 138h125zM60 300v400h115v-406q0 -198 160 -198q162 0 162 198v406h115v-400q0 -150 -70.5 -228t-206.5 -78q-135 0 -205 78t-70 228z" />
    <glyph glyph-name="Ucircumflex" unicode="&#xdb;" horiz-adv-x="672" 
d="M411 757l-75 72l-76 -72h-101l127 139h100l127 -139h-102zM60 300v400h115v-406q0 -198 160 -198q162 0 162 198v406h115v-400q0 -150 -70.5 -228t-206.5 -78q-135 0 -205 78t-70 228z" />
    <glyph glyph-name="Udieresis" unicode="&#xdc;" horiz-adv-x="672" 
d="M177 833q0 26 18 43.5t44 17.5q28 0 45.5 -17.5t17.5 -43.5t-17.5 -43.5t-45.5 -17.5q-26 0 -44 17.5t-18 43.5zM370 833q0 26 18.5 43.5t44.5 17.5q27 0 44.5 -17.5t17.5 -43.5t-17.5 -43.5t-44.5 -17.5q-26 0 -44.5 17.5t-18.5 43.5zM60 300v400h115v-406
q0 -198 160 -198q162 0 162 198v406h115v-400q0 -150 -70.5 -228t-206.5 -78q-135 0 -205 78t-70 228z" />
    <glyph glyph-name="Yacute" unicode="&#xdd;" horiz-adv-x="647" 
d="M368 758h-82l80 138h125zM266 259l-261 441h135l184 -320l189 320h129l-261 -441v-259h-115v259z" />
    <glyph glyph-name="Thorn" unicode="&#xde;" horiz-adv-x="607" 
d="M64 0v700h115v-115h147q121 0 188.5 -59t67.5 -165t-69 -164.5t-188 -58.5h-146v-138h-115zM324 485h-145v-246h144q68 0 105.5 31.5t37.5 90.5q0 61 -37.5 92.5t-104.5 31.5z" />
    <glyph glyph-name="germandbls" unicode="&#xdf;" horiz-adv-x="604" 
d="M352 -6q-54 0 -107 17v87q43 -16 95 -16q56 0 91.5 31t35.5 83q0 58 -45 88.5t-120 30.5q-8 0 -30 -2v86q72 1 108 32.5t36 80.5q0 47 -32 75t-86 28q-57 0 -91 -35t-34 -94v-486h-109v479q0 110 66 168.5t168 58.5t165 -50t63 -132q-1 -56 -31 -96.5t-77 -56.5
q159 -31 159 -177q0 -92 -63.5 -146t-161.5 -54z" />
    <glyph glyph-name="agrave" unicode="&#xe0;" horiz-adv-x="549" 
d="M236 708l77 -139h-83l-119 139h125zM521 94h22v-94h-57q-94 0 -94 82q-58 -88 -169 -88q-86 0 -138 40t-52 110q0 79 56 121.5t163 42.5h129v31q0 43 -29.5 67.5t-82.5 24.5q-47 0 -78 -20.5t-37 -54.5h-106q8 75 68.5 118.5t157.5 43.5q103 0 158.5 -48t55.5 -138v-205
q0 -19 8 -26t25 -7zM381 210v18h-134q-104 0 -104 -77q0 -33 25.5 -53t69.5 -20q67 0 104.5 36t38.5 96z" />
    <glyph glyph-name="aacute" unicode="&#xe1;" horiz-adv-x="549" 
d="M315 708h125l-123 -138h-82zM521 94h22v-94h-57q-94 0 -94 82q-58 -88 -169 -88q-86 0 -138 40t-52 110q0 79 56 121.5t163 42.5h129v31q0 43 -29.5 67.5t-82.5 24.5q-47 0 -78 -20.5t-37 -54.5h-106q8 75 68.5 118.5t157.5 43.5q103 0 158.5 -48t55.5 -138v-205
q0 -19 8 -26t25 -7zM381 210v18h-134q-104 0 -104 -77q0 -33 25.5 -53t69.5 -20q67 0 104.5 36t38.5 96z" />
    <glyph glyph-name="acircumflex" unicode="&#xe2;" horiz-adv-x="549" 
d="M349 569l-75 72l-76 -72h-101l127 139h100l127 -139h-102zM521 94h22v-94h-57q-94 0 -94 82q-58 -88 -169 -88q-86 0 -138 40t-52 110q0 79 56 121.5t163 42.5h129v31q0 43 -29.5 67.5t-82.5 24.5q-47 0 -78 -20.5t-37 -54.5h-106q8 75 68.5 118.5t157.5 43.5
q103 0 158.5 -48t55.5 -138v-205q0 -19 8 -26t25 -7zM381 210v18h-134q-104 0 -104 -77q0 -33 25.5 -53t69.5 -20q67 0 104.5 36t38.5 96z" />
    <glyph glyph-name="atilde" unicode="&#xe3;" horiz-adv-x="549" 
d="M225 634q-16 0 -24.5 -12.5t-8.5 -31.5h-69v16q0 42 26 71t66 29q35 0 64 -23.5t44 -23.5q16 0 24.5 13t8.5 32h68v-16q0 -43 -25.5 -72t-65.5 -29q-35 0 -64 23.5t-44 23.5zM521 94h22v-94h-57q-94 0 -94 82q-58 -88 -169 -88q-86 0 -138 40t-52 110q0 79 56 121.5
t163 42.5h129v31q0 43 -29.5 67.5t-82.5 24.5q-47 0 -78 -20.5t-37 -54.5h-106q8 75 68.5 118.5t157.5 43.5q103 0 158.5 -48t55.5 -138v-205q0 -19 8 -26t25 -7zM381 210v18h-134q-104 0 -104 -77q0 -33 25.5 -53t69.5 -20q67 0 104.5 36t38.5 96z" />
    <glyph glyph-name="adieresis" unicode="&#xe4;" horiz-adv-x="549" 
d="M177 584q-26 0 -44 17.5t-18 43.5t18 43.5t44 17.5q28 0 45.5 -17.5t17.5 -43.5t-17.5 -43.5t-45.5 -17.5zM371 584q-26 0 -44.5 17.5t-18.5 43.5t18.5 43.5t44.5 17.5q27 0 44.5 -17.5t17.5 -43.5t-17.5 -43.5t-44.5 -17.5zM521 94h22v-94h-57q-94 0 -94 82
q-58 -88 -169 -88q-86 0 -138 40t-52 110q0 79 56 121.5t163 42.5h129v31q0 43 -29.5 67.5t-82.5 24.5q-47 0 -78 -20.5t-37 -54.5h-106q8 75 68.5 118.5t157.5 43.5q103 0 158.5 -48t55.5 -138v-205q0 -19 8 -26t25 -7zM381 210v18h-134q-104 0 -104 -77q0 -33 25.5 -53
t69.5 -20q67 0 104.5 36t38.5 96z" />
    <glyph glyph-name="aring" unicode="&#xe5;" horiz-adv-x="549" 
d="M274 555q-51 0 -86.5 34t-35.5 83q0 47 35.5 81t86.5 34t86.5 -34t35.5 -81q0 -49 -35.5 -83t-86.5 -34zM274 733q-26 0 -43.5 -17.5t-17.5 -43.5q0 -27 17.5 -45t43.5 -18t43.5 18t17.5 45q0 26 -17.5 43.5t-43.5 17.5zM521 94h22v-94h-57q-94 0 -94 82
q-58 -88 -169 -88q-86 0 -138 40t-52 110q0 79 56 121.5t163 42.5h129v31q0 43 -29.5 67.5t-82.5 24.5q-47 0 -78 -20.5t-37 -54.5h-106q8 75 68.5 118.5t157.5 43.5q103 0 158.5 -48t55.5 -138v-205q0 -19 8 -26t25 -7zM381 210v18h-134q-104 0 -104 -77q0 -33 25.5 -53
t69.5 -20q67 0 104.5 36t38.5 96z" />
    <glyph glyph-name="ae" unicode="&#xe6;" horiz-adv-x="906" 
d="M869 233h-385v-6q2 -64 41 -104.5t101 -40.5q50 0 84.5 23.5t45.5 66.5h108q-14 -78 -76.5 -128t-155.5 -50q-138 0 -201 104q-67 -104 -202 -104q-87 0 -141.5 40t-54.5 110q0 78 56 119.5t163 41.5h129v34q0 43 -30 67.5t-83 24.5q-47 0 -77.5 -20.5t-36.5 -54.5h-106
q8 75 68.5 118.5t157.5 43.5q127 0 176 -80q64 80 177 80q110 0 176.5 -66t68.5 -178q0 -20 -3 -41zM623 431q-52 0 -90.5 -32.5t-44.5 -86.5h272q-6 56 -42.5 87.5t-94.5 31.5zM381 207v19h-131q-107 0 -107 -75q0 -33 25.5 -53t69.5 -20q66 0 104.5 35.5t38.5 93.5z" />
    <glyph glyph-name="ccedilla" unicode="&#xe7;" horiz-adv-x="556" 
d="M289 86q49 0 81 26t42 71h114q-14 -81 -68.5 -130.5t-139.5 -57.5l-8 -32h9q41 0 66.5 -19.5t25.5 -55.5q0 -40 -27 -64t-72 -24h-103v58h85q35 0 35 29q0 26 -35 26h-57l20 82q-103 10 -163 79.5t-60 180.5q0 119 70.5 191t186.5 72q97 0 158 -50t77 -139h-113
q-11 46 -43 71.5t-81 25.5q-65 0 -104.5 -47.5t-39.5 -123.5q0 -75 39.5 -122t104.5 -47z" />
    <glyph glyph-name="egrave" unicode="&#xe8;" horiz-adv-x="570" 
d="M240 569l-119 139h125l77 -139h-83zM296 -6q-120 0 -191 71.5t-71 189.5t69.5 190.5t182.5 72.5q111 0 179.5 -66t70.5 -178q0 -20 -3 -41h-386v-7q2 -66 41 -105t102 -39q50 0 84 23.5t45 66.5h108q-14 -78 -76 -128t-155 -50zM151 312h273q-7 56 -43.5 87.5t-93.5 31.5
q-53 0 -91.5 -32.5t-44.5 -86.5z" />
    <glyph glyph-name="eacute" unicode="&#xe9;" horiz-adv-x="570" 
d="M327 570h-82l80 138h125zM296 -6q-120 0 -191 71.5t-71 189.5t69.5 190.5t182.5 72.5q111 0 179.5 -66t70.5 -178q0 -20 -3 -41h-386v-7q2 -66 41 -105t102 -39q50 0 84 23.5t45 66.5h108q-14 -78 -76 -128t-155 -50zM151 312h273q-7 56 -43.5 87.5t-93.5 31.5
q-53 0 -91.5 -32.5t-44.5 -86.5z" />
    <glyph glyph-name="ecircumflex" unicode="&#xea;" horiz-adv-x="570" 
d="M359 569l-75 72l-76 -72h-101l127 139h100l127 -139h-102zM296 -6q-120 0 -191 71.5t-71 189.5t69.5 190.5t182.5 72.5q111 0 179.5 -66t70.5 -178q0 -20 -3 -41h-386v-7q2 -66 41 -105t102 -39q50 0 84 23.5t45 66.5h108q-14 -78 -76 -128t-155 -50zM151 312h273
q-7 56 -43.5 87.5t-93.5 31.5q-53 0 -91.5 -32.5t-44.5 -86.5z" />
    <glyph glyph-name="edieresis" unicode="&#xeb;" horiz-adv-x="570" 
d="M125 645q0 26 18 43.5t44 17.5q28 0 45.5 -17.5t17.5 -43.5t-17.5 -43.5t-45.5 -17.5q-26 0 -44 17.5t-18 43.5zM318 645q0 26 18.5 43.5t44.5 17.5q27 0 44.5 -17.5t17.5 -43.5t-17.5 -43.5t-44.5 -17.5q-26 0 -44.5 17.5t-18.5 43.5zM296 -6q-120 0 -191 71.5
t-71 189.5t69.5 190.5t182.5 72.5q111 0 179.5 -66t70.5 -178q0 -20 -3 -41h-386v-7q2 -66 41 -105t102 -39q50 0 84 23.5t45 66.5h108q-14 -78 -76 -128t-155 -50zM151 312h273q-7 56 -43.5 87.5t-93.5 31.5q-53 0 -91.5 -32.5t-44.5 -86.5z" />
    <glyph glyph-name="igrave" unicode="&#xec;" horiz-adv-x="214" 
d="M64 569l-119 139h125l77 -139h-83zM53 0v512h108v-512h-108z" />
    <glyph glyph-name="iacute" unicode="&#xed;" horiz-adv-x="214" 
d="M151 570h-82l80 138h125zM53 0v512h108v-512h-108z" />
    <glyph glyph-name="icircumflex" unicode="&#xee;" horiz-adv-x="214" 
d="M183 569l-75 72l-76 -72h-101l127 139h100l127 -139h-102zM53 0v512h108v-512h-108z" />
    <glyph glyph-name="idieresis" unicode="&#xef;" horiz-adv-x="214" 
d="M-51 645q0 26 18 43.5t44 17.5q28 0 45.5 -17.5t17.5 -43.5t-17.5 -43.5t-45.5 -17.5q-26 0 -44 17.5t-18 43.5zM142 645q0 26 18.5 43.5t44.5 17.5q27 0 44.5 -17.5t17.5 -43.5t-17.5 -43.5t-44.5 -17.5q-26 0 -44.5 17.5t-18.5 43.5zM53 0v512h108v-512h-108z" />
    <glyph glyph-name="eth" unicode="&#xf0;" horiz-adv-x="597" 
d="M479 647l-87 -52q161 -137 161 -327q0 -120 -68 -197t-194 -77q-116 0 -186.5 66t-70.5 169q0 106 69.5 167.5t166.5 61.5q90 0 156 -58q-32 78 -115 145l-117 -70l-38 64l88 53q-37 24 -99 54l61 60q64 -26 122 -63l114 69zM291 84q68 0 109.5 42.5t41.5 110.5
q0 64 -43 102.5t-108 38.5t-105.5 -42.5t-40.5 -106.5q0 -65 40.5 -105t105.5 -40z" />
    <glyph glyph-name="ntilde" unicode="&#xf1;" horiz-adv-x="574" 
d="M260 634q-16 0 -24.5 -12.5t-8.5 -31.5h-69v16q0 42 26 71t66 29q35 0 64 -23.5t44 -23.5q16 0 24.5 13t8.5 32h68v-16q0 -43 -25.5 -72t-65.5 -29q-35 0 -64 23.5t-44 23.5zM323 518q92 0 149 -56t57 -177v-285h-109v276q0 149 -122 149q-64 0 -100.5 -44.5
t-36.5 -122.5v-258h-108v512h94l12 -67q58 73 164 73z" />
    <glyph glyph-name="ograve" unicode="&#xf2;" horiz-adv-x="590" 
d="M251 569l-119 139h125l77 -139h-83zM295 -6q-117 0 -189 72t-72 190q0 117 72 189.5t189 72.5t189 -72.5t72 -189.5q0 -118 -72 -190t-189 -72zM295 86q68 0 109.5 47.5t41.5 122.5t-41.5 122.5t-109.5 47.5t-109 -47.5t-41 -122.5t41 -122.5t109 -47.5z" />
    <glyph glyph-name="oacute" unicode="&#xf3;" horiz-adv-x="590" 
d="M338 570h-82l80 138h125zM295 -6q-117 0 -189 72t-72 190q0 117 72 189.5t189 72.5t189 -72.5t72 -189.5q0 -118 -72 -190t-189 -72zM295 86q68 0 109.5 47.5t41.5 122.5t-41.5 122.5t-109.5 47.5t-109 -47.5t-41 -122.5t41 -122.5t109 -47.5z" />
    <glyph glyph-name="ocircumflex" unicode="&#xf4;" horiz-adv-x="590" 
d="M370 569l-75 72l-76 -72h-101l127 139h100l127 -139h-102zM295 -6q-117 0 -189 72t-72 190q0 117 72 189.5t189 72.5t189 -72.5t72 -189.5q0 -118 -72 -190t-189 -72zM295 86q68 0 109.5 47.5t41.5 122.5t-41.5 122.5t-109.5 47.5t-109 -47.5t-41 -122.5t41 -122.5
t109 -47.5z" />
    <glyph glyph-name="otilde" unicode="&#xf5;" horiz-adv-x="590" 
d="M246 634q-16 0 -24.5 -12.5t-8.5 -31.5h-69v16q0 42 26 71t66 29q35 0 64 -23.5t44 -23.5q16 0 24.5 13t8.5 32h68v-16q0 -43 -25.5 -72t-65.5 -29q-35 0 -64 23.5t-44 23.5zM295 -6q-117 0 -189 72t-72 190q0 117 72 189.5t189 72.5t189 -72.5t72 -189.5
q0 -118 -72 -190t-189 -72zM295 86q68 0 109.5 47.5t41.5 122.5t-41.5 122.5t-109.5 47.5t-109 -47.5t-41 -122.5t41 -122.5t109 -47.5z" />
    <glyph glyph-name="odieresis" unicode="&#xf6;" horiz-adv-x="590" 
d="M136 645q0 26 18 43.5t44 17.5q28 0 45.5 -17.5t17.5 -43.5t-17.5 -43.5t-45.5 -17.5q-26 0 -44 17.5t-18 43.5zM329 645q0 26 18.5 43.5t44.5 17.5q27 0 44.5 -17.5t17.5 -43.5t-17.5 -43.5t-44.5 -17.5q-26 0 -44.5 17.5t-18.5 43.5zM295 -6q-117 0 -189 72t-72 190
q0 117 72 189.5t189 72.5t189 -72.5t72 -189.5q0 -118 -72 -190t-189 -72zM295 86q68 0 109.5 47.5t41.5 122.5t-41.5 122.5t-109.5 47.5t-109 -47.5t-41 -122.5t41 -122.5t109 -47.5z" />
    <glyph glyph-name="divide" unicode="&#xf7;" horiz-adv-x="520" 
d="M193 471q0 29 19 47.5t48 18.5t48 -18.5t19 -47.5t-19 -47.5t-48 -18.5t-48 18.5t-19 47.5zM469 240h-418v91h418v-91zM193 100q0 29 19 47.5t48 18.5t48 -18.5t19 -47.5t-19 -47.5t-48 -18.5t-48 18.5t-19 47.5z" />
    <glyph glyph-name="oslash" unicode="&#xf8;" horiz-adv-x="590" 
d="M555 466l-48 -48q49 -66 49 -162q0 -118 -72 -190t-190 -72q-92 0 -159 48l-47 -48l-53 52l48 48q-49 68 -49 162q-1 117 71.5 189.5t188.5 72.5q94 0 161 -48l47 48zM142 256q0 -47 16 -85l227 229q-37 28 -91 28q-68 0 -110 -48t-42 -124zM294 84q69 0 111.5 48
t42.5 124q0 46 -17 85l-227 -229q37 -28 90 -28z" />
    <glyph glyph-name="ugrave" unicode="&#xf9;" horiz-adv-x="565" 
d="M241 708l77 -139h-83l-119 139h125zM404 256v256h108v-512h-95l-12 65q-58 -71 -158 -71q-90 0 -146 55t-56 178v285h108v-273q0 -151 119 -151q62 0 97 44.5t35 123.5z" />
    <glyph glyph-name="uacute" unicode="&#xfa;" horiz-adv-x="565" 
d="M320 708h125l-123 -138h-82zM404 256v256h108v-512h-95l-12 65q-58 -71 -158 -71q-90 0 -146 55t-56 178v285h108v-273q0 -151 119 -151q62 0 97 44.5t35 123.5z" />
    <glyph glyph-name="ucircumflex" unicode="&#xfb;" horiz-adv-x="565" 
d="M354 569l-75 72l-76 -72h-101l127 139h100l127 -139h-102zM404 256v256h108v-512h-95l-12 65q-58 -71 -158 -71q-90 0 -146 55t-56 178v285h108v-273q0 -151 119 -151q62 0 97 44.5t35 123.5z" />
    <glyph glyph-name="udieresis" unicode="&#xfc;" horiz-adv-x="565" 
d="M182 584q-26 0 -44 17.5t-18 43.5t18 43.5t44 17.5q28 0 45.5 -17.5t17.5 -43.5t-17.5 -43.5t-45.5 -17.5zM376 584q-26 0 -44.5 17.5t-18.5 43.5t18.5 43.5t44.5 17.5q27 0 44.5 -17.5t17.5 -43.5t-17.5 -43.5t-44.5 -17.5zM404 256v256h108v-512h-95l-12 65
q-58 -71 -158 -71q-90 0 -146 55t-56 178v285h108v-273q0 -151 119 -151q62 0 97 44.5t35 123.5z" />
    <glyph glyph-name="yacute" unicode="&#xfd;" horiz-adv-x="516" 
d="M300 570h-82l80 138h125zM201 -3l-199 515h115l143 -389l139 389h115l-232 -592q-26 -68 -51 -94t-78 -26h-116v95h76q31 0 43.5 10t24.5 42z" />
    <glyph glyph-name="thorn" unicode="&#xfe;" horiz-adv-x="603" 
d="M53 -200v900h106v-266q60 84 168 84q107 0 174.5 -70.5t67.5 -191.5q0 -117 -68 -189.5t-174 -72.5q-112 0 -166 79v-273h-108zM459 256q0 76 -41.5 123t-108.5 47t-108 -46.5t-41 -121.5q0 -77 41 -125t108 -48t108.5 48t41.5 123z" />
    <glyph glyph-name="ydieresis" unicode="&#xff;" horiz-adv-x="516" 
d="M98 645q0 26 18 43.5t44 17.5q28 0 45.5 -17.5t17.5 -43.5t-17.5 -43.5t-45.5 -17.5q-26 0 -44 17.5t-18 43.5zM291 645q0 26 18.5 43.5t44.5 17.5q27 0 44.5 -17.5t17.5 -43.5t-17.5 -43.5t-44.5 -17.5q-26 0 -44.5 17.5t-18.5 43.5zM201 -3l-199 515h115l143 -389
l139 389h115l-232 -592q-26 -68 -51 -94t-78 -26h-116v95h76q31 0 43.5 10t24.5 42z" />
    <glyph glyph-name="Amacron" unicode="&#x100;" horiz-adv-x="676" 
d="M485 795h-291v79h291v-79zM127 0h-119l262 700h137l261 -700h-123l-66 173h-287zM335 576l-111 -305h223z" />
    <glyph glyph-name="amacron" unicode="&#x101;" horiz-adv-x="549" 
d="M129 686h291v-79h-291v79zM521 94h22v-94h-57q-94 0 -94 82q-58 -88 -169 -88q-86 0 -138 40t-52 110q0 79 56 121.5t163 42.5h129v31q0 43 -29.5 67.5t-82.5 24.5q-47 0 -78 -20.5t-37 -54.5h-106q8 75 68.5 118.5t157.5 43.5q103 0 158.5 -48t55.5 -138v-205
q0 -19 8 -26t25 -7zM381 210v18h-134q-104 0 -104 -77q0 -33 25.5 -53t69.5 -20q67 0 104.5 36t38.5 96z" />
    <glyph glyph-name="Abreve" unicode="&#x102;" horiz-adv-x="676" 
d="M193 896h81q0 -29 18 -47.5t46 -18.5q29 0 47.5 18.5t18.5 47.5h81q-2 -64 -43 -102.5t-105 -38.5t-103 38t-41 103zM127 0h-119l262 700h137l261 -700h-123l-66 173h-287zM335 576l-111 -305h223z" />
    <glyph glyph-name="abreve" unicode="&#x103;" horiz-adv-x="549" 
d="M272 567q-64 0 -103 38t-41 103h81q0 -29 18 -47.5t46 -18.5q29 0 47.5 18.5t18.5 47.5h81q-2 -64 -43 -102.5t-105 -38.5zM521 94h22v-94h-57q-94 0 -94 82q-58 -88 -169 -88q-86 0 -138 40t-52 110q0 79 56 121.5t163 42.5h129v31q0 43 -29.5 67.5t-82.5 24.5
q-47 0 -78 -20.5t-37 -54.5h-106q8 75 68.5 118.5t157.5 43.5q103 0 158.5 -48t55.5 -138v-205q0 -19 8 -26t25 -7zM381 210v18h-134q-104 0 -104 -77q0 -33 25.5 -53t69.5 -20q67 0 104.5 36t38.5 96z" />
    <glyph glyph-name="Aogonek" unicode="&#x104;" horiz-adv-x="676" 
d="M608 -125h64v-75h-83q-48 0 -78.5 24.5t-30.5 65.5q0 58 68 110h-3l-66 173h-287l-65 -173h-119l262 700h137l261 -700q-100 -50 -100 -93q0 -32 40 -32zM335 576l-111 -305h223z" />
    <glyph glyph-name="aogonek" unicode="&#x105;" horiz-adv-x="549" 
d="M483 -125h64v-75h-83q-48 0 -78.5 24.5t-30.5 65.5q0 60 79 119q-42 17 -42 73q-58 -88 -169 -88q-86 0 -138 40t-52 110q0 79 56 121.5t163 42.5h129v31q0 43 -29.5 67.5t-82.5 24.5q-47 0 -78 -20.5t-37 -54.5h-106q8 75 68.5 118.5t157.5 43.5q103 0 158.5 -48
t55.5 -138v-205q0 -19 8 -26t25 -7h22v-94q-100 -50 -100 -93q0 -32 40 -32zM381 210v18h-134q-104 0 -104 -77q0 -33 25.5 -53t69.5 -20q67 0 104.5 36t38.5 96z" />
    <glyph glyph-name="Cacute" unicode="&#x106;" horiz-adv-x="703" 
d="M411 758h-82l80 138h125zM368 -6q-152 0 -241.5 97t-89.5 259q0 161 92 258.5t246 97.5q120 0 200.5 -66.5t97.5 -177.5h-119q-17 67 -65.5 105t-118.5 38q-99 0 -157 -70.5t-58 -184.5t57 -184.5t155 -70.5q72 0 120.5 38t65.5 105h119q-17 -111 -99.5 -177.5
t-204.5 -66.5z" />
    <glyph glyph-name="cacute" unicode="&#x107;" horiz-adv-x="556" 
d="M336 570h-82l80 138h125zM288 -6q-116 0 -185 70.5t-69 190.5q0 119 70.5 191t186.5 72q97 0 158 -50t77 -139h-113q-11 46 -43 71.5t-81 25.5q-65 0 -104.5 -47.5t-39.5 -123.5q0 -75 39.5 -122t104.5 -47q49 0 81 26t42 71h114q-15 -88 -78 -138.5t-160 -50.5z" />
    <glyph glyph-name="Ccircumflex" unicode="&#x108;" horiz-adv-x="703" 
d="M443 757l-75 72l-76 -72h-101l127 139h100l127 -139h-102zM368 -6q-152 0 -241.5 97t-89.5 259q0 161 92 258.5t246 97.5q120 0 200.5 -66.5t97.5 -177.5h-119q-17 67 -65.5 105t-118.5 38q-99 0 -157 -70.5t-58 -184.5t57 -184.5t155 -70.5q72 0 120.5 38t65.5 105h119
q-17 -111 -99.5 -177.5t-204.5 -66.5z" />
    <glyph glyph-name="ccircumflex" unicode="&#x109;" horiz-adv-x="556" 
d="M368 569l-75 72l-76 -72h-101l127 139h100l127 -139h-102zM288 -6q-116 0 -185 70.5t-69 190.5q0 119 70.5 191t186.5 72q97 0 158 -50t77 -139h-113q-11 46 -43 71.5t-81 25.5q-65 0 -104.5 -47.5t-39.5 -123.5q0 -75 39.5 -122t104.5 -47q49 0 81 26t42 71h114
q-15 -88 -78 -138.5t-160 -50.5z" />
    <glyph glyph-name="Cdotaccent" unicode="&#x10a;" horiz-adv-x="703" 
d="M368 772q-28 0 -47 18.5t-19 46.5t19 46.5t47 18.5t47 -18.5t19 -46.5t-19 -46.5t-47 -18.5zM368 -6q-152 0 -241.5 97t-89.5 259q0 161 92 258.5t246 97.5q120 0 200.5 -66.5t97.5 -177.5h-119q-17 67 -65.5 105t-118.5 38q-99 0 -157 -70.5t-58 -184.5t57 -184.5
t155 -70.5q72 0 120.5 38t65.5 105h119q-17 -111 -99.5 -177.5t-204.5 -66.5z" />
    <glyph glyph-name="cdotaccent" unicode="&#x10b;" horiz-adv-x="556" 
d="M293 584q-28 0 -47 18.5t-19 46.5t19 46.5t47 18.5t47 -18.5t19 -46.5t-19 -46.5t-47 -18.5zM288 -6q-116 0 -185 70.5t-69 190.5q0 119 70.5 191t186.5 72q97 0 158 -50t77 -139h-113q-11 46 -43 71.5t-81 25.5q-65 0 -104.5 -47.5t-39.5 -123.5q0 -75 39.5 -122
t104.5 -47q49 0 81 26t42 71h114q-15 -88 -78 -138.5t-160 -50.5z" />
    <glyph glyph-name="Ccaron" unicode="&#x10c;" horiz-adv-x="703" 
d="M293 896l75 -72l76 72h101l-127 -139h-100l-127 139h102zM368 -6q-152 0 -241.5 97t-89.5 259q0 161 92 258.5t246 97.5q120 0 200.5 -66.5t97.5 -177.5h-119q-17 67 -65.5 105t-118.5 38q-99 0 -157 -70.5t-58 -184.5t57 -184.5t155 -70.5q72 0 120.5 38t65.5 105h119
q-17 -111 -99.5 -177.5t-204.5 -66.5z" />
    <glyph glyph-name="ccaron" unicode="&#x10d;" horiz-adv-x="556" 
d="M218 708l75 -72l76 72h101l-127 -139h-100l-127 139h102zM288 -6q-116 0 -185 70.5t-69 190.5q0 119 70.5 191t186.5 72q97 0 158 -50t77 -139h-113q-11 46 -43 71.5t-81 25.5q-65 0 -104.5 -47.5t-39.5 -123.5q0 -75 39.5 -122t104.5 -47q49 0 81 26t42 71h114
q-15 -88 -78 -138.5t-160 -50.5z" />
    <glyph glyph-name="Dcaron" unicode="&#x10e;" horiz-adv-x="696" 
d="M242 896l75 -72l76 72h101l-127 -139h-100l-127 139h102zM302 0h-238v700h238q163 0 260 -96t97 -253t-97 -254t-260 -97zM179 600v-500h123q114 0 176.5 68t62.5 183q0 114 -62.5 181.5t-176.5 67.5h-123z" />
    <glyph glyph-name="dcaron" unicode="&#x10f;" horiz-adv-x="666" 
d="M442 441v259h108v-700h-94l-13 77q-61 -83 -167 -83q-107 0 -174.5 70.5t-67.5 191.5q0 117 68.5 189.5t173.5 72.5q110 0 166 -77zM589 553l38 147h101l-62 -147h-77zM294 85q67 0 108 47t41 122q0 77 -41 124.5t-108 47.5t-108 -47.5t-41 -122.5q0 -76 41 -123.5
t108 -47.5z" />
    <glyph glyph-name="Dcroat" unicode="&#x110;" horiz-adv-x="721" 
d="M89 700h238q163 0 260 -96t97 -253t-97 -254t-260 -97h-238v312h-83v87h83v301zM204 100h123q114 0 176.5 68t62.5 183q0 114 -62.5 181.5t-176.5 67.5h-123v-201h129v-87h-129v-212z" />
    <glyph glyph-name="dcroat" unicode="&#x111;" horiz-adv-x="610" 
d="M550 643h81v-85h-81v-558h-94l-13 77q-61 -83 -167 -83q-107 0 -174.5 70.5t-67.5 191.5q0 117 68.5 189.5t173.5 72.5q110 0 166 -77v117h-142v85h142v57h108v-57zM294 85q67 0 108 47t41 122q0 77 -41 124.5t-108 47.5t-108 -47.5t-41 -122.5q0 -76 41 -123.5
t108 -47.5z" />
    <glyph glyph-name="Emacron" unicode="&#x112;" horiz-adv-x="563" 
d="M444 795h-291v79h291v-79zM64 0v700h457v-102h-342v-194h282v-99h-282v-203h354v-102h-469z" />
    <glyph glyph-name="emacron" unicode="&#x113;" horiz-adv-x="570" 
d="M430 607h-291v79h291v-79zM296 -6q-120 0 -191 71.5t-71 189.5t69.5 190.5t182.5 72.5q111 0 179.5 -66t70.5 -178q0 -20 -3 -41h-386v-7q2 -66 41 -105t102 -39q50 0 84 23.5t45 66.5h108q-14 -78 -76 -128t-155 -50zM151 312h273q-7 56 -43.5 87.5t-93.5 31.5
q-53 0 -91.5 -32.5t-44.5 -86.5z" />
    <glyph glyph-name="Ebreve" unicode="&#x114;" horiz-adv-x="563" 
d="M152 896h81q0 -29 18 -47.5t46 -18.5q29 0 47.5 18.5t18.5 47.5h81q-2 -64 -43 -102.5t-105 -38.5t-103 38t-41 103zM64 0v700h457v-102h-342v-194h282v-99h-282v-203h354v-102h-469z" />
    <glyph glyph-name="ebreve" unicode="&#x115;" horiz-adv-x="570" 
d="M138 708h81q0 -29 18 -47.5t46 -18.5q29 0 47.5 18.5t18.5 47.5h81q-2 -64 -43 -102.5t-105 -38.5t-103 38t-41 103zM296 -6q-120 0 -191 71.5t-71 189.5t69.5 190.5t182.5 72.5q111 0 179.5 -66t70.5 -178q0 -20 -3 -41h-386v-7q2 -66 41 -105t102 -39q50 0 84 23.5
t45 66.5h108q-14 -78 -76 -128t-155 -50zM151 312h273q-7 56 -43.5 87.5t-93.5 31.5q-53 0 -91.5 -32.5t-44.5 -86.5z" />
    <glyph glyph-name="Edotaccent" unicode="&#x116;" horiz-adv-x="563" 
d="M298 772q-28 0 -47 18.5t-19 46.5t19 46.5t47 18.5t47 -18.5t19 -46.5t-19 -46.5t-47 -18.5zM64 0v700h457v-102h-342v-194h282v-99h-282v-203h354v-102h-469z" />
    <glyph glyph-name="edotaccent" unicode="&#x117;" horiz-adv-x="570" 
d="M284 584q-28 0 -47 18.5t-19 46.5t19 46.5t47 18.5t47 -18.5t19 -46.5t-19 -46.5t-47 -18.5zM296 -6q-120 0 -191 71.5t-71 189.5t69.5 190.5t182.5 72.5q111 0 179.5 -66t70.5 -178q0 -20 -3 -41h-386v-7q2 -66 41 -105t102 -39q50 0 84 23.5t45 66.5h108
q-14 -78 -76 -128t-155 -50zM151 312h273q-7 56 -43.5 87.5t-93.5 31.5q-53 0 -91.5 -32.5t-44.5 -86.5z" />
    <glyph glyph-name="Eogonek" unicode="&#x118;" horiz-adv-x="563" 
d="M473 -125h64v-75h-83q-48 0 -78.5 24.5t-30.5 65.5q0 58 68 110h-349v700h457v-102h-342v-194h282v-99h-282v-203h354v-102q-100 -50 -100 -93q0 -32 40 -32z" />
    <glyph glyph-name="eogonek" unicode="&#x119;" horiz-adv-x="570" 
d="M428 -200h-84q-48 0 -78.5 24.5t-30.5 65.5q0 53 51 104q-5 0 -14.5 0.5t-14.5 1.5q-103 12 -163 81.5t-60 177.5q0 118 69.5 190.5t182.5 72.5q111 0 179.5 -66t70.5 -178q0 -20 -3 -41h-386v-7q2 -64 40.5 -104t102.5 -40q50 0 84 23.5t45 66.5h108q-14 -81 -86 -135
q-29 -21 -44.5 -32t-35.5 -29t-29 -34.5t-9 -32.5q0 -34 43 -34h62v-75zM151 312h273q-7 56 -43.5 87.5t-93.5 31.5q-53 0 -91.5 -32.5t-44.5 -86.5z" />
    <glyph glyph-name="Ecaron" unicode="&#x11a;" horiz-adv-x="563" 
d="M223 896l75 -72l76 72h101l-127 -139h-100l-127 139h102zM64 0v700h457v-102h-342v-194h282v-99h-282v-203h354v-102h-469z" />
    <glyph glyph-name="ecaron" unicode="&#x11b;" horiz-adv-x="570" 
d="M209 708l75 -72l76 72h101l-127 -139h-100l-127 139h102zM296 -6q-120 0 -191 71.5t-71 189.5t69.5 190.5t182.5 72.5q111 0 179.5 -66t70.5 -178q0 -20 -3 -41h-386v-7q2 -66 41 -105t102 -39q50 0 84 23.5t45 66.5h108q-14 -78 -76 -128t-155 -50zM151 312h273
q-7 56 -43.5 87.5t-93.5 31.5q-53 0 -91.5 -32.5t-44.5 -86.5z" />
    <glyph glyph-name="Gcircumflex" unicode="&#x11c;" horiz-adv-x="748" 
d="M452 757l-75 72l-76 -72h-101l127 139h100l127 -139h-102zM368 -6q-147 0 -239 98.5t-92 257.5q0 161 92.5 258.5t247.5 97.5q121 0 203 -66.5t98 -177.5h-119q-16 67 -64.5 105t-120.5 38q-99 0 -159 -71t-60 -184q0 -114 59.5 -184.5t158.5 -70.5q84 0 140.5 46
t60.5 128v17h-194v97h304v-383h-89l-10 94q-29 -42 -84.5 -71t-132.5 -29z" />
    <glyph glyph-name="gcircumflex" unicode="&#x11d;" horiz-adv-x="603" 
d="M367 569l-75 72l-76 -72h-101l127 139h100l127 -139h-102zM444 432l12 80h94v-491q0 -108 -64 -167.5t-198 -59.5q-104 0 -169 46.5t-72 131.5h110q10 -43 46 -66.5t93 -23.5q147 0 147 143v57q-56 -84 -167 -84q-107 0 -174.5 70t-67.5 190q0 116 68 188t174 72
q112 0 168 -86zM294 89q67 0 108 46.5t41 120.5q0 76 -41 123.5t-108 47.5t-108 -47t-41 -122t41 -122t108 -47z" />
    <glyph glyph-name="Gbreve" unicode="&#x11e;" horiz-adv-x="748" 
d="M231 896h81q0 -29 18 -47.5t46 -18.5q29 0 47.5 18.5t18.5 47.5h81q-2 -64 -43 -102.5t-105 -38.5t-103 38t-41 103zM368 -6q-147 0 -239 98.5t-92 257.5q0 161 92.5 258.5t247.5 97.5q121 0 203 -66.5t98 -177.5h-119q-16 67 -64.5 105t-120.5 38q-99 0 -159 -71
t-60 -184q0 -114 59.5 -184.5t158.5 -70.5q84 0 140.5 46t60.5 128v17h-194v97h304v-383h-89l-10 94q-29 -42 -84.5 -71t-132.5 -29z" />
    <glyph glyph-name="gbreve" unicode="&#x11f;" horiz-adv-x="603" 
d="M290 567q-64 0 -103 38t-41 103h81q0 -29 18 -47.5t46 -18.5q29 0 47.5 18.5t18.5 47.5h81q-2 -64 -43 -102.5t-105 -38.5zM444 432l12 80h94v-491q0 -108 -64 -167.5t-198 -59.5q-104 0 -169 46.5t-72 131.5h110q10 -43 46 -66.5t93 -23.5q147 0 147 143v57
q-56 -84 -167 -84q-107 0 -174.5 70t-67.5 190q0 116 68 188t174 72q112 0 168 -86zM294 89q67 0 108 46.5t41 120.5q0 76 -41 123.5t-108 47.5t-108 -47t-41 -122t41 -122t108 -47z" />
    <glyph glyph-name="Gdotaccent" unicode="&#x120;" horiz-adv-x="748" 
d="M377 772q-28 0 -47 18.5t-19 46.5t19 46.5t47 18.5t47 -18.5t19 -46.5t-19 -46.5t-47 -18.5zM368 -6q-147 0 -239 98.5t-92 257.5q0 161 92.5 258.5t247.5 97.5q121 0 203 -66.5t98 -177.5h-119q-16 67 -64.5 105t-120.5 38q-99 0 -159 -71t-60 -184q0 -114 59.5 -184.5
t158.5 -70.5q84 0 140.5 46t60.5 128v17h-194v97h304v-383h-89l-10 94q-29 -42 -84.5 -71t-132.5 -29z" />
    <glyph glyph-name="gdotaccent" unicode="&#x121;" horiz-adv-x="603" 
d="M292 584q-28 0 -47 18.5t-19 46.5t19 46.5t47 18.5t47 -18.5t19 -46.5t-19 -46.5t-47 -18.5zM444 432l12 80h94v-491q0 -108 -64 -167.5t-198 -59.5q-104 0 -169 46.5t-72 131.5h110q10 -43 46 -66.5t93 -23.5q147 0 147 143v57q-56 -84 -167 -84q-107 0 -174.5 70
t-67.5 190q0 116 68 188t174 72q112 0 168 -86zM294 89q67 0 108 46.5t41 120.5q0 76 -41 123.5t-108 47.5t-108 -47t-41 -122t41 -122t108 -47z" />
    <glyph glyph-name="uni0122" unicode="&#x122;" horiz-adv-x="748" 
d="M368 -6q-147 0 -239 98.5t-92 257.5q0 161 92.5 258.5t247.5 97.5q121 0 203 -66.5t98 -177.5h-119q-16 67 -64.5 105t-120.5 38q-99 0 -159 -71t-60 -184q0 -114 59.5 -184.5t158.5 -70.5q84 0 140.5 46t60.5 128v17h-194v97h304v-383h-89l-10 94q-29 -42 -84.5 -71
t-132.5 -29zM269 -194l49 144h107l-77 -144h-79z" />
    <glyph glyph-name="uni0123" unicode="&#x123;" horiz-adv-x="603" 
d="M305 708h83l-51 -144h-105zM444 432l12 80h94v-491q0 -108 -64 -167.5t-198 -59.5q-104 0 -169 46.5t-72 131.5h110q10 -43 46 -66.5t93 -23.5q147 0 147 143v57q-56 -84 -167 -84q-107 0 -174.5 70t-67.5 190q0 116 68 188t174 72q112 0 168 -86zM294 89q67 0 108 46.5
t41 120.5q0 76 -41 123.5t-108 47.5t-108 -47t-41 -122t41 -122t108 -47z" />
    <glyph glyph-name="Hcircumflex" unicode="&#x124;" horiz-adv-x="683" 
d="M417 757l-75 72l-76 -72h-101l127 139h100l127 -139h-102zM64 0v700h115v-294h325v294h115v-700h-115v304h-325v-304h-115z" />
    <glyph glyph-name="hcircumflex" unicode="&#x125;" horiz-adv-x="574" 
d="M284 748h-102l-75 72l-76 -72h-101l127 139h100zM322 518q93 0 150 -56t57 -177v-285h-108v276q0 73 -31.5 111t-91.5 38q-64 0 -100.5 -44.5t-36.5 -121.5v-259h-108v700h108v-262q58 80 161 80z" />
    <glyph glyph-name="Hbar" unicode="&#x126;" horiz-adv-x="706" 
d="M630 587h75v-88h-75v-499h-115v288h-324v-288h-115v499h-75v88h75v113h115v-113h324v113h115v-113zM191 390h324v109h-324v-109z" />
    <glyph glyph-name="hbar" unicode="&#x127;" horiz-adv-x="581" 
d="M329 518q92 0 149.5 -56t57.5 -177v-285h-108v276q0 73 -32 111t-92 38q-64 0 -100 -44.5t-36 -121.5v-259h-109v558h-80v85h80v57h109v-57h141v-85h-141v-119q57 79 161 79z" />
    <glyph glyph-name="Itilde" unicode="&#x128;" horiz-adv-x="243" 
d="M72 822q-16 0 -24.5 -12.5t-8.5 -31.5h-69v16q0 42 26 71t66 29q35 0 64 -23.5t44 -23.5q16 0 24.5 13t8.5 32h68v-16q0 -43 -25.5 -72t-65.5 -29q-35 0 -64 23.5t-44 23.5zM64 0v700h115v-700h-115z" />
    <glyph glyph-name="itilde" unicode="&#x129;" horiz-adv-x="214" 
d="M59 634q-16 0 -24.5 -12.5t-8.5 -31.5h-69v16q0 42 26 71t66 29q35 0 64 -23.5t44 -23.5q16 0 24.5 13t8.5 32h68v-16q0 -43 -25.5 -72t-65.5 -29q-35 0 -64 23.5t-44 23.5zM53 0v512h108v-512h-108z" />
    <glyph glyph-name="Imacron" unicode="&#x12a;" horiz-adv-x="243" 
d="M267 795h-291v79h291v-79zM64 0v700h115v-700h-115z" />
    <glyph glyph-name="imacron" unicode="&#x12b;" horiz-adv-x="214" 
d="M254 607h-291v79h291v-79zM53 0v512h108v-512h-108z" />
    <glyph glyph-name="Ibreve" unicode="&#x12c;" horiz-adv-x="243" 
d="M-25 896h81q0 -29 18 -47.5t46 -18.5q29 0 47.5 18.5t18.5 47.5h81q-2 -64 -43 -102.5t-105 -38.5t-103 38t-41 103zM64 0v700h115v-700h-115z" />
    <glyph glyph-name="ibreve" unicode="&#x12d;" horiz-adv-x="214" 
d="M-38 708h81q0 -29 18 -47.5t46 -18.5q29 0 47.5 18.5t18.5 47.5h81q-2 -64 -43 -102.5t-105 -38.5t-103 38t-41 103zM53 0v512h108v-512h-108z" />
    <glyph glyph-name="Iogonek" unicode="&#x12e;" horiz-adv-x="243" 
d="M119 -125h64v-75h-83q-48 0 -78.5 24.5t-30.5 65.5q0 59 73 114v696h115v-700q-100 -50 -100 -93q0 -32 40 -32z" />
    <glyph glyph-name="iogonek" unicode="&#x12f;" horiz-adv-x="214" 
d="M108 584q-28 0 -47 18.5t-19 46.5t19 46.5t47 18.5t47 -18.5t19 -46.5t-19 -46.5t-47 -18.5zM61 -93q0 -32 40 -32h64v-75h-83q-48 0 -78.5 24.5t-30.5 65.5q0 61 80 119v503h108v-512q-100 -50 -100 -93z" />
    <glyph glyph-name="Idotaccent" unicode="&#x130;" horiz-adv-x="243" 
d="M121 772q-28 0 -47 18.5t-19 46.5t19 46.5t47 18.5t47 -18.5t19 -46.5t-19 -46.5t-47 -18.5zM64 0v700h115v-700h-115z" />
    <glyph glyph-name="dotlessi" unicode="&#x131;" horiz-adv-x="214" 
d="M53 0v512h108v-512h-108z" />
    <glyph glyph-name="IJ" unicode="&#x132;" horiz-adv-x="633" 
d="M60 265h115q0 -80 36 -125t105 -45q141 0 141 171v434h116v-432q0 -137 -66 -205.5t-191 -68.5q-124 0 -190.5 69t-65.5 202zM61 379v321h115v-321h-115z" />
    <glyph glyph-name="ij" unicode="&#x133;" horiz-adv-x="434" 
d="M108 584q-28 0 -47 18.5t-19 46.5t19 46.5t47 18.5t47 -18.5t19 -46.5t-19 -46.5t-47 -18.5zM327 584q-28 0 -47 18.5t-19 46.5t19 46.5t47 18.5t47 -18.5t19 -46.5t-19 -46.5t-47 -18.5zM53 0v512h108v-512h-108zM161 -200v95h58q28 0 41 13.5t13 42.5v561h108v-569
q0 -143 -140 -143h-80z" />
    <glyph glyph-name="Jcircumflex" unicode="&#x134;" horiz-adv-x="371" 
d="M324 757l-75 72l-76 -72h-101l127 139h100l127 -139h-102zM192 191v509h115v-526q0 -84 -45.5 -129t-129.5 -45h-108v102h82q45 0 65.5 21.5t20.5 67.5z" />
    <glyph glyph-name="jcircumflex" unicode="&#x135;" horiz-adv-x="220" 
d="M188 569l-75 72l-76 -72h-101l127 139h100l127 -139h-102zM-53 -200v95h58q28 0 41 13.5t13 42.5v561h108v-569q0 -143 -140 -143h-80z" />
    <glyph glyph-name="uni0136" unicode="&#x136;" horiz-adv-x="658" 
d="M64 0v700h115v-361l321 361h140l-257 -294l276 -406h-139l-220 321l-121 -136v-185h-115zM225 -194l49 144h107l-77 -144h-79z" />
    <glyph glyph-name="uni0137" unicode="&#x137;" horiz-adv-x="531" 
d="M53 0v700h108v-436l232 248h127l-193 -207l205 -305h-128l-151 226l-92 -96v-130h-108zM178 -194l49 144h107l-77 -144h-79z" />
    <glyph glyph-name="Lacute" unicode="&#x139;" horiz-adv-x="500" 
d="M164 758h-82l80 138h125zM480 0h-416v700h115v-598h301v-102z" />
    <glyph glyph-name="lacute" unicode="&#x13a;" horiz-adv-x="214" 
d="M150 749h-82l80 138h125zM53 0v700h108v-700h-108z" />
    <glyph glyph-name="uni013B" unicode="&#x13b;" horiz-adv-x="500" 
d="M480 0h-416v700h115v-598h301v-102zM171 -194l49 144h107l-77 -144h-79z" />
    <glyph glyph-name="uni013C" unicode="&#x13c;" horiz-adv-x="214" 
d="M53 0v700h108v-700h-108zM1 -194l49 144h107l-77 -144h-79z" />
    <glyph glyph-name="Lcaron" unicode="&#x13d;" horiz-adv-x="500" 
d="M480 0h-416v700h115v-598h301v-102zM231 553l38 147h102l-63 -147h-77z" />
    <glyph glyph-name="lcaron" unicode="&#x13e;" horiz-adv-x="277" 
d="M53 0v700h108v-700h-108zM199 553l38 147h102l-63 -147h-77z" />
    <glyph glyph-name="Ldot" unicode="&#x13f;" horiz-adv-x="504" 
d="M480 0h-416v700h115v-598h301v-102zM373 310q-28 0 -46.5 18.5t-18.5 46.5t18.5 46.5t46.5 18.5q29 0 47.5 -18.5t18.5 -46.5t-19 -46.5t-47 -18.5z" />
    <glyph glyph-name="ldot" unicode="&#x140;" horiz-adv-x="331" 
d="M53 0v700h108v-700h-108zM273 279q-28 0 -46.5 18.5t-18.5 46.5t18.5 46.5t46.5 18.5q29 0 47.5 -18.5t18.5 -46.5t-19 -46.5t-47 -18.5z" />
    <glyph glyph-name="Lslash" unicode="&#x141;" horiz-adv-x="519" 
d="M195 340v-238h301v-102h-416v277l-74 -40v95l74 40v328h115v-266l149 81v-94z" />
    <glyph glyph-name="lslash" unicode="&#x142;" horiz-adv-x="274" 
d="M191 453l75 39v-97l-75 -39v-356h-108v300l-75 -39v97l75 39v303h108v-247z" />
    <glyph glyph-name="Nacute" unicode="&#x143;" horiz-adv-x="687" 
d="M379 758h-82l80 138h125zM177 0h-113v700h105l341 -496v496h113v-700h-105l-341 496v-496z" />
    <glyph glyph-name="nacute" unicode="&#x144;" horiz-adv-x="574" 
d="M350 708h125l-123 -138h-82zM323 518q92 0 149 -56t57 -177v-285h-109v276q0 149 -122 149q-64 0 -100.5 -44.5t-36.5 -122.5v-258h-108v512h94l12 -67q58 73 164 73z" />
    <glyph glyph-name="uni0145" unicode="&#x145;" horiz-adv-x="687" 
d="M177 0h-113v700h105l341 -496v496h113v-700h-105l-341 496v-496zM235 -194l49 144h107l-77 -144h-79z" />
    <glyph glyph-name="uni0146" unicode="&#x146;" horiz-adv-x="574" 
d="M323 518q92 0 149 -56t57 -177v-285h-109v276q0 149 -122 149q-64 0 -100.5 -44.5t-36.5 -122.5v-258h-108v512h94l12 -67q58 73 164 73zM265 -194h-79l49 144h107z" />
    <glyph glyph-name="Ncaron" unicode="&#x147;" horiz-adv-x="687" 
d="M261 896l75 -72l76 72h101l-127 -139h-100l-127 139h102zM177 0h-113v700h105l341 -496v496h113v-700h-105l-341 496v-496z" />
    <glyph glyph-name="ncaron" unicode="&#x148;" horiz-adv-x="574" 
d="M486 708l-127 -139h-100l-127 139h102l75 -72l76 72h101zM323 518q92 0 149 -56t57 -177v-285h-109v276q0 149 -122 149q-64 0 -100.5 -44.5t-36.5 -122.5v-258h-108v512h94l12 -67q58 73 164 73z" />
    <glyph glyph-name="napostrophe" unicode="&#x149;" horiz-adv-x="768" 
d="M103 706q41 0 65.5 -32.5t24.5 -82.5q0 -72 -43 -112t-118 -41v59q44 0 66 22t22 52q0 9 -1 14q-14 -11 -33 -11q-26 0 -42.5 17t-16.5 47q0 29 21 48.5t55 19.5zM517 518q92 0 149 -56t57 -177v-285h-109v276q0 149 -122 149q-64 0 -100.5 -44.5t-36.5 -122.5v-258h-108
v512h94l12 -67q58 73 164 73z" />
    <glyph glyph-name="Eng" unicode="&#x14a;" horiz-adv-x="687" 
d="M510 204v496h113v-751q0 -149 -145 -149h-78v98h58q28 0 41 13.5t13 42.5v55l-335 487v-496h-113v700h105z" />
    <glyph glyph-name="eng" unicode="&#x14b;" horiz-adv-x="574" 
d="M323 518q92 0 149 -56t57 -177v-339q0 -146 -143 -146h-80v95h60q29 0 41.5 13.5t12.5 43.5v324q0 149 -122 149q-64 0 -100.5 -44.5t-36.5 -122.5v-258h-108v512h94l12 -67q58 73 164 73z" />
    <glyph glyph-name="Omacron" unicode="&#x14c;" horiz-adv-x="754" 
d="M523 795h-291v79h291v-79zM717 350q0 -155 -95 -255.5t-245 -100.5t-245 100.5t-95 255.5t95 255.5t245 100.5t245 -100.5t95 -255.5zM155 350q0 -112 61.5 -183.5t160.5 -71.5t160.5 71.5t61.5 183.5t-61.5 183.5t-160.5 71.5t-160.5 -71.5t-61.5 -183.5z" />
    <glyph glyph-name="omacron" unicode="&#x14d;" horiz-adv-x="590" 
d="M441 607h-291v79h291v-79zM295 -6q-117 0 -189 72t-72 190q0 117 72 189.5t189 72.5t189 -72.5t72 -189.5q0 -118 -72 -190t-189 -72zM295 86q68 0 109.5 47.5t41.5 122.5t-41.5 122.5t-109.5 47.5t-109 -47.5t-41 -122.5t41 -122.5t109 -47.5z" />
    <glyph glyph-name="Obreve" unicode="&#x14e;" horiz-adv-x="754" 
d="M231 896h81q0 -29 18 -47.5t46 -18.5q29 0 47.5 18.5t18.5 47.5h81q-2 -64 -43 -102.5t-105 -38.5t-103 38t-41 103zM717 350q0 -155 -95 -255.5t-245 -100.5t-245 100.5t-95 255.5t95 255.5t245 100.5t245 -100.5t95 -255.5zM155 350q0 -112 61.5 -183.5t160.5 -71.5
t160.5 71.5t61.5 183.5t-61.5 183.5t-160.5 71.5t-160.5 -71.5t-61.5 -183.5z" />
    <glyph glyph-name="obreve" unicode="&#x14f;" horiz-adv-x="590" 
d="M149 708h81q0 -29 18 -47.5t46 -18.5q29 0 47.5 18.5t18.5 47.5h81q-2 -64 -43 -102.5t-105 -38.5t-103 38t-41 103zM295 -6q-117 0 -189 72t-72 190q0 117 72 189.5t189 72.5t189 -72.5t72 -189.5q0 -118 -72 -190t-189 -72zM295 86q68 0 109.5 47.5t41.5 122.5
t-41.5 122.5t-109.5 47.5t-109 -47.5t-41 -122.5t41 -122.5t109 -47.5z" />
    <glyph glyph-name="Ohungarumlaut" unicode="&#x150;" horiz-adv-x="754" 
d="M313 756h-78l80 140h120zM499 756h-78l80 140h120zM717 350q0 -155 -95 -255.5t-245 -100.5t-245 100.5t-95 255.5t95 255.5t245 100.5t245 -100.5t95 -255.5zM155 350q0 -112 61.5 -183.5t160.5 -71.5t160.5 71.5t61.5 183.5t-61.5 183.5t-160.5 71.5t-160.5 -71.5
t-61.5 -183.5z" />
    <glyph glyph-name="ohungarumlaut" unicode="&#x151;" horiz-adv-x="590" 
d="M231 568h-78l80 140h120zM417 568h-78l80 140h120zM295 -6q-117 0 -189 72t-72 190q0 117 72 189.5t189 72.5t189 -72.5t72 -189.5q0 -118 -72 -190t-189 -72zM295 86q68 0 109.5 47.5t41.5 122.5t-41.5 122.5t-109.5 47.5t-109 -47.5t-41 -122.5t41 -122.5t109 -47.5z
" />
    <glyph glyph-name="OE" unicode="&#x152;" horiz-adv-x="1121" 
d="M737 305v-203h354v-102h-469v102q-79 -108 -234 -108t-253 100.5t-98 255.5t98 255.5t253 100.5t234 -108v102h457v-102h-342v-194h282v-99h-282zM389 95q105 0 169 71.5t64 183.5t-64 183.5t-169 71.5t-169.5 -71.5t-64.5 -183.5t64.5 -183.5t169.5 -71.5z" />
    <glyph glyph-name="oe" unicode="&#x153;" horiz-adv-x="970" 
d="M933 233h-386v-6q4 -67 42 -106t102 -39q49 0 83.5 24t45.5 66h108q-15 -78 -76.5 -128t-152.5 -50q-139 0 -207 96q-68 -96 -198 -96q-116 0 -188 72.5t-72 190.5q0 117 72 189t188 72q134 0 202 -96q66 96 188 96q112 0 181 -66t71 -178q0 -20 -3 -41zM687 431
q-53 0 -91 -32.5t-44 -86.5h272q-7 57 -43.5 88t-93.5 31zM294 86q68 0 109.5 47t41.5 121q0 76 -41.5 124t-109.5 48q-67 0 -108 -47.5t-41 -121.5q0 -76 40.5 -123.5t108.5 -47.5z" />
    <glyph glyph-name="Racute" unicode="&#x154;" horiz-adv-x="623" 
d="M334 758h-82l80 138h125zM64 0v700h276q110 0 177 -60.5t67 -162.5q0 -70 -37 -123t-99 -75l148 -279h-128l-135 254h-154v-254h-115zM331 600h-152v-246h152q62 0 98.5 33.5t36.5 89.5t-36.5 89.5t-98.5 33.5z" />
    <glyph glyph-name="racute" unicode="&#x155;" horiz-adv-x="350" 
d="M236 708h125l-123 -138h-82zM149 512l12 -77q47 77 151 77h24v-101h-48q-67 0 -97 -43.5t-30 -110.5v-257h-108v512h96z" />
    <glyph glyph-name="uni0156" unicode="&#x156;" horiz-adv-x="623" 
d="M64 0v700h276q110 0 177 -60.5t67 -162.5q0 -70 -37 -123t-99 -75l148 -279h-128l-135 254h-154v-254h-115zM331 600h-152v-246h152q62 0 98.5 33.5t36.5 89.5t-36.5 89.5t-98.5 33.5zM205 -194l49 144h107l-77 -144h-79z" />
    <glyph glyph-name="uni0157" unicode="&#x157;" horiz-adv-x="350" 
d="M312 512h24v-101h-48q-67 0 -97 -43.5t-30 -110.5v-257h-108v512h96l12 -77q47 77 151 77zM80 -194h-79l49 144h107z" />
    <glyph glyph-name="Rcaron" unicode="&#x158;" horiz-adv-x="623" 
d="M216 896l75 -72l76 72h101l-127 -139h-100l-127 139h102zM64 0v700h276q110 0 177 -60.5t67 -162.5q0 -70 -37 -123t-99 -75l148 -279h-128l-135 254h-154v-254h-115zM331 600h-152v-246h152q62 0 98.5 33.5t36.5 89.5t-36.5 89.5t-98.5 33.5z" />
    <glyph glyph-name="rcaron" unicode="&#x159;" horiz-adv-x="350" 
d="M372 708l-127 -139h-100l-127 139h102l75 -72l76 72h101zM149 512l12 -77q47 77 151 77h24v-101h-48q-67 0 -97 -43.5t-30 -110.5v-257h-108v512h96z" />
    <glyph glyph-name="Sacute" unicode="&#x15a;" horiz-adv-x="615" 
d="M351 758h-82l80 138h125zM36 230l116 -2q5 -62 50 -99.5t118 -37.5q64 0 103.5 27.5t39.5 76.5q0 22 -9.5 38t-22.5 26.5t-40 19.5t-49.5 14t-62.5 12q-50 9 -85.5 20.5t-70 32.5t-52.5 57t-18 86q0 92 68.5 148.5t180.5 56.5q119 0 190 -59t75 -157h-115q-7 54 -47 86.5
t-103 32.5q-61 0 -97.5 -26t-36.5 -74q0 -49 42 -69t140 -37q50 -9 85.5 -20.5t71 -33t53.5 -57.5t18 -85q0 -95 -72 -154t-187 -59q-129 0 -204.5 64.5t-78.5 171.5z" />
    <glyph glyph-name="sacute" unicode="&#x15b;" horiz-adv-x="513" 
d="M294 570h-82l80 138h125zM31 169h106q3 -41 37 -66t91 -25q50 0 80.5 18t30.5 49q0 19 -7 31.5t-25.5 19.5t-34.5 10t-51 7q-5 1 -8 1q-50 6 -83 14t-64 23.5t-46.5 42.5t-15.5 65q0 72 58.5 116t151.5 43q96 0 156.5 -43t65.5 -120h-106q-5 36 -36 58t-78 22
q-48 0 -77 -18t-29 -49q0 -12 3.5 -20.5t12.5 -15t17.5 -10.5t25.5 -7t29 -4.5t35 -4.5q40 -5 67.5 -10.5t57 -16.5t47 -26.5t29 -40.5t11.5 -58q0 -72 -61 -116t-156 -44q-104 0 -168 46.5t-66 128.5z" />
    <glyph glyph-name="Scircumflex" unicode="&#x15c;" horiz-adv-x="615" 
d="M383 757l-75 72l-76 -72h-101l127 139h100l127 -139h-102zM36 230l116 -2q5 -62 50 -99.5t118 -37.5q64 0 103.5 27.5t39.5 76.5q0 22 -9.5 38t-22.5 26.5t-40 19.5t-49.5 14t-62.5 12q-50 9 -85.5 20.5t-70 32.5t-52.5 57t-18 86q0 92 68.5 148.5t180.5 56.5
q119 0 190 -59t75 -157h-115q-7 54 -47 86.5t-103 32.5q-61 0 -97.5 -26t-36.5 -74q0 -49 42 -69t140 -37q50 -9 85.5 -20.5t71 -33t53.5 -57.5t18 -85q0 -95 -72 -154t-187 -59q-129 0 -204.5 64.5t-78.5 171.5z" />
    <glyph glyph-name="scircumflex" unicode="&#x15d;" horiz-adv-x="513" 
d="M326 569l-75 72l-76 -72h-101l127 139h100l127 -139h-102zM31 169h106q3 -41 37 -66t91 -25q50 0 80.5 18t30.5 49q0 19 -7 31.5t-25.5 19.5t-34.5 10t-51 7q-5 1 -8 1q-50 6 -83 14t-64 23.5t-46.5 42.5t-15.5 65q0 72 58.5 116t151.5 43q96 0 156.5 -43t65.5 -120h-106
q-5 36 -36 58t-78 22q-48 0 -77 -18t-29 -49q0 -12 3.5 -20.5t12.5 -15t17.5 -10.5t25.5 -7t29 -4.5t35 -4.5q40 -5 67.5 -10.5t57 -16.5t47 -26.5t29 -40.5t11.5 -58q0 -72 -61 -116t-156 -44q-104 0 -168 46.5t-66 128.5z" />
    <glyph glyph-name="Scedilla" unicode="&#x15e;" horiz-adv-x="615" 
d="M350 403q50 -9 85.5 -20.5t71 -33t53.5 -57.5t18 -85q0 -90 -65 -148t-172 -64l-8 -32h9q41 0 66.5 -19.5t25.5 -55.5q0 -40 -27 -64t-72 -24h-103v58h85q35 0 35 29q0 26 -35 26h-57l20 83q-112 10 -176.5 73t-67.5 161l116 -2q5 -62 50 -99.5t118 -37.5
q64 0 103.5 27.5t39.5 76.5q0 22 -9.5 38t-22.5 26.5t-40 19.5t-49.5 14t-62.5 12q-50 9 -85.5 20.5t-70 32.5t-52.5 57t-18 86q0 92 68.5 148.5t180.5 56.5q119 0 190 -59t75 -157h-115q-7 54 -47 86.5t-103 32.5q-61 0 -97.5 -26t-36.5 -74q0 -49 42 -69t140 -37z" />
    <glyph glyph-name="scedilla" unicode="&#x15f;" horiz-adv-x="513" 
d="M482 154q0 -67 -53.5 -110t-138.5 -49l-8 -32h9q41 0 66.5 -19.5t25.5 -55.5q0 -40 -27 -64t-72 -24h-103v58h85q35 0 35 29q0 26 -35 26h-57l20 83q-89 8 -142.5 53t-55.5 120h106q3 -41 37 -66t91 -25q50 0 80.5 18t30.5 49q0 19 -7 31.5t-25.5 19.5t-34.5 10t-51 7
q-5 1 -8 1q-50 6 -83 14t-64 23.5t-46.5 42.5t-15.5 65q0 72 58.5 116t151.5 43q96 0 156.5 -43t65.5 -120h-106q-5 36 -36 58t-78 22q-48 0 -77 -18t-29 -49q0 -12 3.5 -20.5t12.5 -15t17.5 -10.5t25.5 -7t29 -4.5t35 -4.5q40 -5 67.5 -10.5t57 -16.5t47 -26.5t29 -40.5
t11.5 -58z" />
    <glyph glyph-name="Scaron" unicode="&#x160;" horiz-adv-x="615" 
d="M233 896l75 -72l76 72h101l-127 -139h-100l-127 139h102zM36 230l116 -2q5 -62 50 -99.5t118 -37.5q64 0 103.5 27.5t39.5 76.5q0 22 -9.5 38t-22.5 26.5t-40 19.5t-49.5 14t-62.5 12q-50 9 -85.5 20.5t-70 32.5t-52.5 57t-18 86q0 92 68.5 148.5t180.5 56.5
q119 0 190 -59t75 -157h-115q-7 54 -47 86.5t-103 32.5q-61 0 -97.5 -26t-36.5 -74q0 -49 42 -69t140 -37q50 -9 85.5 -20.5t71 -33t53.5 -57.5t18 -85q0 -95 -72 -154t-187 -59q-129 0 -204.5 64.5t-78.5 171.5z" />
    <glyph glyph-name="scaron" unicode="&#x161;" horiz-adv-x="513" 
d="M176 708l75 -72l76 72h101l-127 -139h-100l-127 139h102zM31 169h106q3 -41 37 -66t91 -25q50 0 80.5 18t30.5 49q0 19 -7 31.5t-25.5 19.5t-34.5 10t-51 7q-5 1 -8 1q-50 6 -83 14t-64 23.5t-46.5 42.5t-15.5 65q0 72 58.5 116t151.5 43q96 0 156.5 -43t65.5 -120h-106
q-5 36 -36 58t-78 22q-48 0 -77 -18t-29 -49q0 -12 3.5 -20.5t12.5 -15t17.5 -10.5t25.5 -7t29 -4.5t35 -4.5q40 -5 67.5 -10.5t57 -16.5t47 -26.5t29 -40.5t11.5 -58q0 -72 -61 -116t-156 -44q-104 0 -168 46.5t-66 128.5z" />
    <glyph glyph-name="uni0162" unicode="&#x162;" horiz-adv-x="587" 
d="M351 598v-598h-27l-10 -37h9q41 0 66.5 -19.5t25.5 -55.5q0 -40 -27 -64t-72 -24h-103v58h85q35 0 35 29q0 26 -35 26h-57l21 87h-26v598h-216v102h547v-102h-216z" />
    <glyph glyph-name="uni0163" unicode="&#x163;" horiz-adv-x="346" 
d="M233 -37h9q41 0 66.5 -19.5t25.5 -55.5q0 -40 -27 -64t-72 -24h-103v58h85q35 0 35 29q0 26 -35 26h-57l22 92q-92 19 -92 134v278h-89v95h89v143h109v-143h125v-95h-125v-267q0 -30 12 -42.5t43 -12.5h76v-95h-87z" />
    <glyph glyph-name="Tcaron" unicode="&#x164;" horiz-adv-x="587" 
d="M222 896l75 -72l76 72h101l-127 -139h-100l-127 139h102zM20 598v102h547v-102h-216v-598h-115v598h-216z" />
    <glyph glyph-name="tcaron" unicode="&#x165;" horiz-adv-x="346" 
d="M241 562l38 147h102l-63 -147h-77zM90 139v278h-89v95h89v143h109v-143h125v-95h-125v-267q0 -30 12 -42.5t43 -12.5h76v-95h-100q-73 0 -106.5 34t-33.5 105z" />
    <glyph glyph-name="Tbar" unicode="&#x166;" horiz-adv-x="594" 
d="M567 700v-102h-216v-216h118v-87h-118v-295h-115v295h-111v87h111v216h-216v102h547z" />
    <glyph glyph-name="tbar" unicode="&#x167;" horiz-adv-x="357" 
d="M255 95h77v-95h-101q-73 0 -106 34t-33 105v95h-89v84h89v99h-89v95h89v143h108v-143h124v-95h-124v-99h124v-84h-124v-84q0 -30 12.5 -42.5t42.5 -12.5z" />
    <glyph glyph-name="Utilde" unicode="&#x168;" horiz-adv-x="672" 
d="M287 822q-16 0 -24.5 -12.5t-8.5 -31.5h-69v16q0 42 26 71t66 29q35 0 64 -23.5t44 -23.5q16 0 24.5 13t8.5 32h68v-16q0 -43 -25.5 -72t-65.5 -29q-35 0 -64 23.5t-44 23.5zM60 300v400h115v-406q0 -198 160 -198q162 0 162 198v406h115v-400q0 -150 -70.5 -228
t-206.5 -78q-135 0 -205 78t-70 228z" />
    <glyph glyph-name="utilde" unicode="&#x169;" horiz-adv-x="565" 
d="M230 634q-16 0 -24.5 -12.5t-8.5 -31.5h-69v16q0 42 26 71t66 29q35 0 64 -23.5t44 -23.5q16 0 24.5 13t8.5 32h68v-16q0 -43 -25.5 -72t-65.5 -29q-35 0 -64 23.5t-44 23.5zM404 256v256h108v-512h-95l-12 65q-58 -71 -158 -71q-90 0 -146 55t-56 178v285h108v-273
q0 -151 119 -151q62 0 97 44.5t35 123.5z" />
    <glyph glyph-name="Umacron" unicode="&#x16a;" horiz-adv-x="672" 
d="M482 795h-291v79h291v-79zM60 300v400h115v-406q0 -198 160 -198q162 0 162 198v406h115v-400q0 -150 -70.5 -228t-206.5 -78q-135 0 -205 78t-70 228z" />
    <glyph glyph-name="umacron" unicode="&#x16b;" horiz-adv-x="565" 
d="M134 686h291v-79h-291v79zM404 256v256h108v-512h-95l-12 65q-58 -71 -158 -71q-90 0 -146 55t-56 178v285h108v-273q0 -151 119 -151q62 0 97 44.5t35 123.5z" />
    <glyph glyph-name="Ubreve" unicode="&#x16c;" horiz-adv-x="672" 
d="M190 896h81q0 -29 18 -47.5t46 -18.5q29 0 47.5 18.5t18.5 47.5h81q-2 -64 -43 -102.5t-105 -38.5t-103 38t-41 103zM60 300v400h115v-406q0 -198 160 -198q162 0 162 198v406h115v-400q0 -150 -70.5 -228t-206.5 -78q-135 0 -205 78t-70 228z" />
    <glyph glyph-name="ubreve" unicode="&#x16d;" horiz-adv-x="565" 
d="M277 567q-64 0 -103 38t-41 103h81q0 -29 18 -47.5t46 -18.5q29 0 47.5 18.5t18.5 47.5h81q-2 -64 -43 -102.5t-105 -38.5zM404 256v256h108v-512h-95l-12 65q-58 -71 -158 -71q-90 0 -146 55t-56 178v285h108v-273q0 -151 119 -151q62 0 97 44.5t35 123.5z" />
    <glyph glyph-name="Uring" unicode="&#x16e;" horiz-adv-x="672" 
d="M214 785q0 48 35.5 82t86.5 34q52 0 87.5 -34t35.5 -82t-36 -82t-87 -34t-86.5 34t-35.5 82zM397 785q0 27 -17.5 44.5t-43.5 17.5t-43.5 -17.5t-17.5 -44.5t17.5 -44.5t43.5 -17.5t43.5 17.5t17.5 44.5zM60 300v400h115v-406q0 -198 160 -198q162 0 162 198v406h115
v-400q0 -150 -70.5 -228t-206.5 -78q-135 0 -205 78t-70 228z" />
    <glyph glyph-name="uring" unicode="&#x16f;" horiz-adv-x="565" 
d="M279 555q-51 0 -86.5 34t-35.5 83q0 47 35.5 81t86.5 34t86.5 -34t35.5 -81q0 -49 -35.5 -83t-86.5 -34zM279 733q-26 0 -43.5 -17.5t-17.5 -43.5q0 -27 17.5 -45t43.5 -18t43.5 18t17.5 45q0 26 -17.5 43.5t-43.5 17.5zM404 256v256h108v-512h-95l-12 65
q-58 -71 -158 -71q-90 0 -146 55t-56 178v285h108v-273q0 -151 119 -151q62 0 97 44.5t35 123.5z" />
    <glyph glyph-name="Uhungarumlaut" unicode="&#x170;" horiz-adv-x="672" 
d="M272 756h-78l80 140h120zM458 756h-78l80 140h120zM60 300v400h115v-406q0 -198 160 -198q162 0 162 198v406h115v-400q0 -150 -70.5 -228t-206.5 -78q-135 0 -205 78t-70 228z" />
    <glyph glyph-name="uhungarumlaut" unicode="&#x171;" horiz-adv-x="565" 
d="M217 708h120l-122 -140h-78zM523 708l-122 -140h-78l80 140h120zM404 256v256h108v-512h-95l-12 65q-58 -71 -158 -71q-90 0 -146 55t-56 178v285h108v-273q0 -151 119 -151q62 0 97 44.5t35 123.5z" />
    <glyph glyph-name="Uogonek" unicode="&#x172;" horiz-adv-x="672" 
d="M485 -200h-83q-49 0 -79.5 24.5t-30.5 65.5q0 56 50 104q-5 0 -13 0.5t-11 0.5q-127 5 -192.5 82.5t-65.5 222.5v400h115v-406q0 -198 160 -198q162 0 162 198v406h115v-400q0 -181 -122 -269q-31 -22 -45.5 -33.5t-32.5 -28t-25 -31.5t-7 -31q0 -32 41 -32h64v-75z" />
    <glyph glyph-name="uogonek" unicode="&#x173;" horiz-adv-x="565" 
d="M452 -125h64v-75h-83q-48 0 -78.5 24.5t-30.5 65.5q0 63 90 127l-9 48q-58 -71 -158 -71q-90 0 -146 55t-56 178v285h108v-273q0 -151 119 -151q62 0 97 44.5t35 123.5v256h108v-512q-100 -50 -100 -93q0 -32 40 -32z" />
    <glyph glyph-name="Wcircumflex" unicode="&#x174;" horiz-adv-x="974" 
d="M562 757l-75 72l-76 -72h-101l127 139h100l127 -139h-102zM210 0l-199 700l119 1l149 -555l156 554h109l152 -554l150 554h118l-201 -700h-134l-143 515l-141 -515h-135z" />
    <glyph glyph-name="wcircumflex" unicode="&#x175;" horiz-adv-x="798" 
d="M476 569l-75 72l-76 -72h-101l127 139h100l127 -139h-102zM171 0l-167 512h114l117 -392l117 392h99l112 -392l121 392h110l-170 -512h-116l-108 348l-112 -348h-117z" />
    <glyph glyph-name="Ycircumflex" unicode="&#x176;" horiz-adv-x="647" 
d="M400 757l-75 72l-76 -72h-101l127 139h100l127 -139h-102zM266 259l-261 441h135l184 -320l189 320h129l-261 -441v-259h-115v259z" />
    <glyph glyph-name="ycircumflex" unicode="&#x177;" horiz-adv-x="516" 
d="M332 569l-75 72l-76 -72h-101l127 139h100l127 -139h-102zM201 -3l-199 515h115l143 -389l139 389h115l-232 -592q-26 -68 -51 -94t-78 -26h-116v95h76q31 0 43.5 10t24.5 42z" />
    <glyph glyph-name="Ydieresis" unicode="&#x178;" horiz-adv-x="647" 
d="M166 833q0 26 18 43.5t44 17.5q28 0 45.5 -17.5t17.5 -43.5t-17.5 -43.5t-45.5 -17.5q-26 0 -44 17.5t-18 43.5zM359 833q0 26 18.5 43.5t44.5 17.5q27 0 44.5 -17.5t17.5 -43.5t-17.5 -43.5t-44.5 -17.5q-26 0 -44.5 17.5t-18.5 43.5zM266 259l-261 441h135l184 -320
l189 320h129l-261 -441v-259h-115v259z" />
    <glyph glyph-name="Zacute" unicode="&#x179;" horiz-adv-x="610" 
d="M349 758h-82l80 138h125zM36 599v101h538v-79l-392 -520h403v-101h-560v79l392 520h-381z" />
    <glyph glyph-name="zacute" unicode="&#x17a;" horiz-adv-x="488" 
d="M288 570h-82l80 138h125zM34 417v95h419v-77l-286 -340h299v-95h-444v77l286 340h-274z" />
    <glyph glyph-name="Zdotaccent" unicode="&#x17b;" horiz-adv-x="610" 
d="M306 772q-28 0 -47 18.5t-19 46.5t19 46.5t47 18.5t47 -18.5t19 -46.5t-19 -46.5t-47 -18.5zM36 599v101h538v-79l-392 -520h403v-101h-560v79l392 520h-381z" />
    <glyph glyph-name="zdotaccent" unicode="&#x17c;" horiz-adv-x="488" 
d="M245 584q-28 0 -47 18.5t-19 46.5t19 46.5t47 18.5t47 -18.5t19 -46.5t-19 -46.5t-47 -18.5zM34 417v95h419v-77l-286 -340h299v-95h-444v77l286 340h-274z" />
    <glyph glyph-name="Zcaron" unicode="&#x17d;" horiz-adv-x="610" 
d="M231 896l75 -72l76 72h101l-127 -139h-100l-127 139h102zM36 599v101h538v-79l-392 -520h403v-101h-560v79l392 520h-381z" />
    <glyph glyph-name="zcaron" unicode="&#x17e;" horiz-adv-x="488" 
d="M170 708l75 -72l76 72h101l-127 -139h-100l-127 139h102zM34 417v95h419v-77l-286 -340h299v-95h-444v77l286 340h-274z" />
    <glyph glyph-name="florin" unicode="&#x192;" horiz-adv-x="482" 
d="M464 605h-87q-56 0 -60 -56l-15 -172h116v-88h-124l-23 -268q-11 -127 -147 -127h-106v95h87q56 0 60 56l21 244h-110v88h118l17 196q11 127 146 127h107v-95z" />
    <glyph glyph-name="AEacute" unicode="&#x1fc;" horiz-adv-x="975" 
d="M591 896h125l-123 -138h-82zM591 305v-203h354v-102h-469v164h-257l-102 -164h-119l418 700h516v-102h-341v-194h281v-99h-281zM476 604l-205 -344h205v344z" />
    <glyph glyph-name="aeacute" unicode="&#x1fd;" horiz-adv-x="906" 
d="M493 700h125l-123 -138h-82zM869 233h-385v-6q3 -66 41.5 -105.5t101.5 -39.5q49 0 83.5 24t45.5 66h108q-14 -78 -76 -128t-153 -50q-138 0 -204 104q-68 -104 -202 -104q-87 0 -141.5 40t-54.5 110q0 78 56 119.5t163 41.5h129v34q0 43 -30 67.5t-83 24.5
q-47 0 -77.5 -20.5t-36.5 -54.5h-106q8 77 68 119.5t157 42.5q128 0 177 -80q64 80 172 80q110 0 179 -66t71 -178q0 -20 -3 -41zM623 431q-52 0 -90.5 -32.5t-44.5 -86.5h274q-6 56 -43.5 87.5t-95.5 31.5zM381 207v19h-131q-107 0 -107 -75q0 -33 25.5 -53t69.5 -20
q66 0 104.5 35.5t38.5 93.5z" />
    <glyph glyph-name="uni0218" unicode="&#x218;" horiz-adv-x="615" 
d="M36 230l116 -2q5 -62 50 -99.5t118 -37.5q64 0 103.5 27.5t39.5 76.5q0 22 -9.5 38t-22.5 26.5t-40 19.5t-49.5 14t-62.5 12q-50 9 -85.5 20.5t-70 32.5t-52.5 57t-18 86q0 92 68.5 148.5t180.5 56.5q119 0 190 -59t75 -157h-115q-7 54 -47 86.5t-103 32.5
q-61 0 -97.5 -26t-36.5 -74q0 -49 42 -69t140 -37q50 -9 85.5 -20.5t71 -33t53.5 -57.5t18 -85q0 -95 -72 -154t-187 -59q-129 0 -204.5 64.5t-78.5 171.5zM207 -194l49 144h107l-77 -144h-79z" />
    <glyph glyph-name="uni0219" unicode="&#x219;" horiz-adv-x="513" 
d="M31 169h106q3 -41 37 -66t91 -25q50 0 80.5 18t30.5 49q0 19 -7 31.5t-25.5 19.5t-34.5 10t-51 7q-5 1 -8 1q-50 6 -83 14t-64 23.5t-46.5 42.5t-15.5 65q0 72 58.5 116t151.5 43q96 0 156.5 -43t65.5 -120h-106q-5 36 -36 58t-78 22q-48 0 -77 -18t-29 -49
q0 -12 3.5 -20.5t12.5 -15t17.5 -10.5t25.5 -7t29 -4.5t35 -4.5q40 -5 67.5 -10.5t57 -16.5t47 -26.5t29 -40.5t11.5 -58q0 -72 -61 -116t-156 -44q-104 0 -168 46.5t-66 128.5zM156 -194l49 144h107l-77 -144h-79z" />
    <glyph glyph-name="uni021A" unicode="&#x21a;" horiz-adv-x="587" 
d="M20 598v102h547v-102h-216v-598h-115v598h-216zM188 -194l49 144h107l-77 -144h-79z" />
    <glyph glyph-name="uni021B" unicode="&#x21b;" horiz-adv-x="346" 
d="M90 139v278h-89v95h89v143h109v-143h125v-95h-125v-267q0 -30 12 -42.5t43 -12.5h76v-95h-100q-73 0 -106.5 34t-33.5 105zM107 -194l49 144h107l-77 -144h-79z" />
    <glyph glyph-name="uni0237" unicode="&#x237;" horiz-adv-x="220" 
d="M-53 -200v95h58q28 0 41 13.5t13 42.5v561h108v-569q0 -143 -140 -143h-80z" />
    <glyph glyph-name="uni02BC" unicode="&#x2bc;" horiz-adv-x="356" 
d="M110 553l38 147h102l-63 -147h-77z" />
    <glyph glyph-name="circumflex" unicode="&#x2c6;" horiz-adv-x="400" 
d="M275 561l-75 72l-76 -72h-101l127 139h100l127 -139h-102z" />
    <glyph glyph-name="caron" unicode="&#x2c7;" horiz-adv-x="400" 
d="M125 700l75 -72l76 72h101l-127 -139h-100l-127 139h102z" />
    <glyph glyph-name="breve" unicode="&#x2d8;" horiz-adv-x="400" 
d="M54 700h81q0 -29 18 -47.5t46 -18.5q29 0 47.5 18.5t18.5 47.5h81q-2 -64 -43 -102.5t-105 -38.5t-103 38t-41 103z" />
    <glyph glyph-name="dotaccent" unicode="&#x2d9;" horiz-adv-x="400" 
d="M200 579q-28 0 -47 18.5t-19 46.5t19 46.5t47 18.5t47 -18.5t19 -46.5t-19 -46.5t-47 -18.5z" />
    <glyph glyph-name="ring" unicode="&#x2da;" horiz-adv-x="400" 
d="M78 664q0 47 35.5 81t86.5 34t86.5 -34t35.5 -81q0 -49 -35.5 -83t-86.5 -34t-86.5 34t-35.5 83zM261 664q0 26 -17.5 43.5t-43.5 17.5t-43.5 -17.5t-17.5 -43.5q0 -27 17.5 -45t43.5 -18t43.5 18t17.5 45z" />
    <glyph glyph-name="ogonek" unicode="&#x2db;" horiz-adv-x="400" 
d="M12 -110q0 65 95 130l93 -20q-100 -50 -100 -93q0 -32 40 -32h64v-75h-83q-48 0 -78.5 24.5t-30.5 65.5z" />
    <glyph glyph-name="tilde" unicode="&#x2dc;" horiz-adv-x="400" 
d="M151 626q-16 0 -24.5 -12.5t-8.5 -31.5h-69v16q0 42 26 71t66 29q35 0 64 -23.5t44 -23.5q16 0 24.5 13t8.5 32h68v-16q0 -43 -25.5 -72t-65.5 -29q-35 0 -64 23.5t-44 23.5z" />
    <glyph glyph-name="hungarumlaut" unicode="&#x2dd;" horiz-adv-x="403" 
d="M136 560h-78l80 140h120zM322 560h-78l80 140h120z" />
    <glyph glyph-name="gravecomb" unicode="&#x300;" horiz-adv-x="0" 
d="M-244 561l-119 139h125l77 -139h-83z" />
    <glyph glyph-name="acutecomb" unicode="&#x301;" horiz-adv-x="0" 
d="M-157 562h-82l80 138h125z" />
    <glyph glyph-name="uni0302" unicode="&#x302;" horiz-adv-x="0" 
d="M-125 561l-75 72l-76 -72h-101l127 139h100l127 -139h-102z" />
    <glyph glyph-name="tildecomb" unicode="&#x303;" horiz-adv-x="0" 
d="M-249 626q-16 0 -24.5 -12.5t-8.5 -31.5h-69v16q0 42 26 71t66 29q35 0 64 -23.5t44 -23.5q16 0 24.5 13t8.5 32h68v-16q0 -43 -25.5 -72t-65.5 -29q-35 0 -64 23.5t-44 23.5z" />
    <glyph glyph-name="uni0304" unicode="&#x304;" horiz-adv-x="0" 
d="M-54 599h-291v79h291v-79z" />
    <glyph glyph-name="uni0306" unicode="&#x306;" horiz-adv-x="0" 
d="M-346 700h81q0 -29 18 -47.5t46 -18.5q29 0 47.5 18.5t18.5 47.5h81q-2 -64 -43 -102.5t-105 -38.5t-103 38t-41 103z" />
    <glyph glyph-name="uni0307" unicode="&#x307;" horiz-adv-x="0" 
d="M-200 576q-28 0 -47 18.5t-19 46.5t19 46.5t47 18.5t47 -18.5t19 -46.5t-19 -46.5t-47 -18.5z" />
    <glyph glyph-name="uni0308" unicode="&#x308;" horiz-adv-x="0" 
d="M-359 637q0 26 18 43.5t44 17.5q28 0 45.5 -17.5t17.5 -43.5t-17.5 -43.5t-45.5 -17.5q-26 0 -44 17.5t-18 43.5zM-166 637q0 26 18.5 43.5t44.5 17.5q27 0 44.5 -17.5t17.5 -43.5t-17.5 -43.5t-44.5 -17.5q-26 0 -44.5 17.5t-18.5 43.5z" />
    <glyph glyph-name="uni030A" unicode="&#x30a;" horiz-adv-x="0" 
d="M-322 664q0 47 35.5 81t86.5 34t86.5 -34t35.5 -81q0 -49 -35.5 -83t-86.5 -34t-86.5 34t-35.5 83zM-139 664q0 26 -17.5 43.5t-43.5 17.5t-43.5 -17.5t-17.5 -43.5q0 -27 17.5 -45t43.5 -18t43.5 18t17.5 45z" />
    <glyph glyph-name="uni030B" unicode="&#x30b;" horiz-adv-x="0" 
d="M-264 560h-78l80 140h120zM-78 560h-78l80 140h120z" />
    <glyph glyph-name="uni030C" unicode="&#x30c;" horiz-adv-x="0" 
d="M-275 700l75 -72l76 72h101l-127 -139h-100l-127 139h102z" />
    <glyph glyph-name="uni0312" unicode="&#x312;" horiz-adv-x="0" 
d="M-104 700l-51 -144h-105l73 144h83z" />
    <glyph glyph-name="uni0326" unicode="&#x326;" horiz-adv-x="0" 
d="M-306 -194l49 144h107l-77 -144h-79z" />
    <glyph glyph-name="uni0327" unicode="&#x327;" horiz-adv-x="0" 
d="M-251 -87l27 111h62l-16 -61h9q41 0 66.5 -19.5t25.5 -55.5q0 -40 -27 -64t-72 -24h-103v58h85q35 0 35 29q0 26 -35 26h-57z" />
    <glyph glyph-name="uni0328" unicode="&#x328;" horiz-adv-x="0" 
d="M-388 -110q0 65 95 130l93 -20q-100 -50 -100 -93q0 -32 40 -32h64v-75h-83q-48 0 -78.5 24.5t-30.5 65.5z" />
    <glyph glyph-name="uni0394" unicode="&#x394;" horiz-adv-x="693" 
d="M668 0h-643v79l254 621h135l254 -621v-79zM342 587l-190 -485h384z" />
    <glyph glyph-name="uni03A9" unicode="&#x3a9;" horiz-adv-x="743" 
d="M304 0h-260v102h175v16q-174 69 -174 276q0 139 91.5 225.5t235.5 86.5q143 0 234.5 -86t91.5 -225q0 -210 -174 -277v-16h174v-102h-261v161q79 36 111 89.5t32 137.5q0 96 -59 156.5t-150 60.5t-150 -60.5t-59 -156.5q0 -84 31.5 -138t110.5 -90v-160z" />
    <glyph glyph-name="uni03BC" unicode="&#x3bc;" horiz-adv-x="584" 
d="M553 94h21v-94h-60q-89 0 -97 74q-45 -80 -150 -80q-34 0 -64 12.5t-41 29.5v-236h-109v712h108v-269q0 -155 121 -155q59 0 94.5 46t35.5 126v252h108l-1 -383q0 -20 7.5 -27.5t26.5 -7.5z" />
    <glyph glyph-name="pi" unicode="&#x3c0;" horiz-adv-x="622" 
d="M604 512v-95h-86v-289q0 -20 7.5 -27t25.5 -7h24v-94h-70q-96 0 -96 99v318h-205v-417h-108v417h-82v95h590z" />
    <glyph glyph-name="uni0E3F" unicode="&#xe3f;" horiz-adv-x="640" 
d="M604 195q0 -90 -67 -142t-190 -53v-98h-80v98h-203v700h203v103h80v-103q111 -3 170.5 -50.5t59.5 -131.5q0 -63 -34 -103.5t-97 -54.5q158 -27 158 -165zM267 604h-88v-201h88v201zM463 504q0 45 -30 72t-86 28v-201q56 1 86 28t30 73zM179 308v-211h88v211h-88z
M347 308v-211q67 1 103 28.5t36 75.5q0 51 -36.5 78.5t-102.5 28.5z" />
    <glyph glyph-name="Wgrave" unicode="&#x1e80;" horiz-adv-x="974" 
d="M443 757l-119 139h125l77 -139h-83zM210 0l-199 700l119 1l149 -555l156 554h109l152 -554l150 554h118l-201 -700h-134l-143 515l-141 -515h-135z" />
    <glyph glyph-name="wgrave" unicode="&#x1e81;" horiz-adv-x="798" 
d="M357 569l-119 139h125l77 -139h-83zM171 0l-167 512h114l117 -392l117 392h99l112 -392l121 392h110l-170 -512h-116l-108 348l-112 -348h-117z" />
    <glyph glyph-name="Wacute" unicode="&#x1e82;" horiz-adv-x="974" 
d="M530 758h-82l80 138h125zM210 0l-199 700l119 1l149 -555l156 554h109l152 -554l150 554h118l-201 -700h-134l-143 515l-141 -515h-135z" />
    <glyph glyph-name="wacute" unicode="&#x1e83;" horiz-adv-x="798" 
d="M444 570h-82l80 138h125zM171 0l-167 512h114l117 -392l117 392h99l112 -392l121 392h110l-170 -512h-116l-108 348l-112 -348h-117z" />
    <glyph glyph-name="Wdieresis" unicode="&#x1e84;" horiz-adv-x="974" 
d="M328 833q0 26 18 43.5t44 17.5q28 0 45.5 -17.5t17.5 -43.5t-17.5 -43.5t-45.5 -17.5q-26 0 -44 17.5t-18 43.5zM521 833q0 26 18.5 43.5t44.5 17.5q27 0 44.5 -17.5t17.5 -43.5t-17.5 -43.5t-44.5 -17.5q-26 0 -44.5 17.5t-18.5 43.5zM210 0l-199 700l119 1l149 -555
l156 554h109l152 -554l150 554h118l-201 -700h-134l-143 515l-141 -515h-135z" />
    <glyph glyph-name="wdieresis" unicode="&#x1e85;" horiz-adv-x="798" 
d="M242 645q0 26 18 43.5t44 17.5q28 0 45.5 -17.5t17.5 -43.5t-17.5 -43.5t-45.5 -17.5q-26 0 -44 17.5t-18 43.5zM435 645q0 26 18.5 43.5t44.5 17.5q27 0 44.5 -17.5t17.5 -43.5t-17.5 -43.5t-44.5 -17.5q-26 0 -44.5 17.5t-18.5 43.5zM171 0l-167 512h114l117 -392
l117 392h99l112 -392l121 392h110l-170 -512h-116l-108 348l-112 -348h-117z" />
    <glyph glyph-name="Ygrave" unicode="&#x1ef2;" horiz-adv-x="647" 
d="M281 757l-119 139h125l77 -139h-83zM266 259l-261 441h135l184 -320l189 320h129l-261 -441v-259h-115v259z" />
    <glyph glyph-name="ygrave" unicode="&#x1ef3;" horiz-adv-x="516" 
d="M213 569l-119 139h125l77 -139h-83zM201 -3l-199 515h115l143 -389l139 389h115l-232 -592q-26 -68 -51 -94t-78 -26h-116v95h76q31 0 43.5 10t24.5 42z" />
    <glyph glyph-name="endash" unicode="&#x2013;" horiz-adv-x="609" 
d="M555 240h-501v89h501v-89z" />
    <glyph glyph-name="emdash" unicode="&#x2014;" horiz-adv-x="923" 
d="M47 240v89h829v-89h-829z" />
    <glyph glyph-name="quoteleft" unicode="&#x2018;" horiz-adv-x="224" 
d="M122 438q-41 0 -65.5 32.5t-24.5 82.5q0 72 43 112t118 41v-59q-44 0 -66.5 -22t-22.5 -52q0 -9 1 -14q14 11 33 11q26 0 43 -17t17 -47q0 -29 -21.5 -48.5t-54.5 -19.5z" />
    <glyph glyph-name="quoteright" unicode="&#x2019;" horiz-adv-x="224" 
d="M103 706q41 0 65.5 -32.5t24.5 -82.5q0 -72 -43 -112t-118 -41v59q44 0 66 22t22 52q0 9 -1 14q-14 -11 -33 -11q-26 0 -42.5 17t-16.5 47q0 29 21 48.5t55 19.5z" />
    <glyph glyph-name="quotesinglbase" unicode="&#x201a;" horiz-adv-x="224" 
d="M103 129q40 0 65 -33t25 -82q0 -72 -43 -112t-118 -41v58q44 1 66 23t22 52q0 9 -1 13q-13 -10 -33 -10q-26 0 -42.5 16.5t-16.5 47.5q0 29 21 48.5t55 19.5z" />
    <glyph glyph-name="quotedblleft" unicode="&#x201c;" horiz-adv-x="417" 
d="M122 438q-41 0 -65.5 32.5t-24.5 82.5q0 72 43 112t118 41v-59q-44 0 -66.5 -22t-22.5 -52q0 -9 1 -14q14 11 33 11q26 0 43 -17t17 -47q0 -29 -21.5 -48.5t-54.5 -19.5zM314 438q-41 0 -65.5 32.5t-24.5 82.5q0 72 43 112t118 41v-59q-44 0 -66 -22t-22 -52q0 -9 1 -14
q13 11 33 11q26 0 42.5 -17t16.5 -47q0 -29 -21 -48.5t-55 -19.5z" />
    <glyph glyph-name="quotedblright" unicode="&#x201d;" horiz-adv-x="417" 
d="M103 706q41 0 65.5 -32.5t24.5 -82.5q0 -72 -43 -112t-118 -41v59q44 0 66 22t22 52q0 9 -1 14q-14 -11 -33 -11q-26 0 -42.5 17t-16.5 47q0 29 21 48.5t55 19.5zM295 706q41 0 65.5 -32.5t24.5 -82.5q0 -72 -43 -112t-118 -41v59q44 0 66.5 22t22.5 52q0 9 -1 14
q-14 -11 -34 -11q-25 0 -42 17t-17 47q0 29 21 48.5t55 19.5z" />
    <glyph glyph-name="quotedblbase" unicode="&#x201e;" horiz-adv-x="417" 
d="M103 129q40 0 65 -33t25 -82q0 -72 -43 -112t-118 -41v58q44 1 66 23t22 52q0 9 -1 13q-13 -10 -33 -10q-26 0 -42.5 16.5t-16.5 47.5q0 29 21 48.5t55 19.5zM295 129q40 0 65 -33t25 -82q0 -72 -43 -112t-118 -41v58q44 1 66.5 23t22.5 52q0 9 -1 13q-13 -10 -34 -10
q-25 0 -42 16.5t-17 47.5q0 29 21 48.5t55 19.5z" />
    <glyph glyph-name="dagger" unicode="&#x2020;" horiz-adv-x="518" 
d="M307 497h181v-90h-181v-407h-96v407h-181v90h181v203h96v-203z" />
    <glyph glyph-name="daggerdbl" unicode="&#x2021;" horiz-adv-x="554" 
d="M512 534v-90h-186v-188h186v-90h-186v-166h-97v166h-187v90h187v188h-187v90h187v166h97v-166h186z" />
    <glyph glyph-name="bullet" unicode="&#x2022;" horiz-adv-x="429" 
d="M63 340q0 65 42.5 105.5t108.5 40.5q67 0 110 -40.5t43 -105.5t-43 -106t-110 -41q-66 0 -108.5 41t-42.5 106z" />
    <glyph glyph-name="ellipsis" unicode="&#x2026;" horiz-adv-x="648" 
d="M43 62q0 30 19.5 49t49.5 19t50 -19t20 -49t-20 -49t-50 -19t-49.5 19t-19.5 49zM254 62q0 30 20 49t50 19t49.5 -19t19.5 -49t-19.5 -49t-49.5 -19t-50 19t-20 49zM466 62q0 30 19.5 49t49.5 19t50 -19t20 -49t-20 -49t-50 -19t-49.5 19t-19.5 49z" />
    <glyph glyph-name="perthousand" unicode="&#x2030;" horiz-adv-x="1313" 
d="M47 535q0 74 51 122.5t128 48.5t128 -48.5t51 -122.5t-51 -122t-128 -48t-128 48t-51 122zM269 0h-106l478 700h107zM314 535q0 38 -25 63.5t-63 25.5q-37 0 -62 -25.5t-25 -63.5t25 -63.5t62 -25.5q38 0 63 25.5t25 63.5zM504 164q0 75 50.5 123t128.5 48t128.5 -48
t50.5 -123q0 -73 -51 -121.5t-128 -48.5t-128 48.5t-51 121.5zM904 164q0 75 51 123t129 48t128.5 -48t50.5 -123q0 -73 -51 -121.5t-128 -48.5t-128.5 48.5t-51.5 121.5zM771 164q0 38 -25.5 64t-62.5 26t-62.5 -26t-25.5 -64t25 -63t63 -25t63 25t25 63zM1171 164
q0 38 -25 64t-62 26q-38 0 -63 -26t-25 -64t25 -63t63 -25t62.5 25t24.5 63z" />
    <glyph glyph-name="guilsinglleft" unicode="&#x2039;" horiz-adv-x="319" 
d="M181 512h109l-154 -256l154 -256h-109l-155 256z" />
    <glyph glyph-name="guilsinglright" unicode="&#x203a;" horiz-adv-x="319" 
d="M182 256l-154 256h109l156 -256l-156 -256h-109z" />
    <glyph glyph-name="uni2042" unicode="&#x2042;" horiz-adv-x="969" 
d="M624 671l31 -71l-119 -44l81 -93l-57 -50l-80 105l-79 -104l-57 50l82 93l-119 44l30 70l110 -52l-3 122h74l-4 -123zM381 210l31 -71l-119 -43l81 -93l-57 -50l-80 105l-79 -105l-57 50l82 94l-119 43l30 71l110 -53l-3 122h74l-4 -123zM874 210l31 -71l-119 -43l81 -93
l-57 -50l-80 105l-79 -105l-57 50l82 94l-119 43l30 71l110 -53l-3 122h74l-4 -123z" />
    <glyph glyph-name="fraction" unicode="&#x2044;" horiz-adv-x="190" 
d="M-83 0h-87l444 700h86z" />
    <glyph glyph-name="uni2051" unicode="&#x2051;" horiz-adv-x="476" 
d="M381 671l31 -71l-119 -44l81 -93l-57 -50l-80 105l-79 -104l-57 50l82 93l-119 44l30 70l110 -52l-3 122h74l-4 -123zM381 208l31 -71l-119 -43l81 -93l-57 -50l-80 105l-79 -105l-57 51l82 93l-119 44l30 70l110 -53l-3 122h74l-4 -123z" />
    <glyph glyph-name="uni2070" unicode="&#x2070;" horiz-adv-x="342" 
d="M20 619q0 86 41 137t110 51t110 -51t41 -137t-41 -137t-110 -51t-110 51t-41 137zM246 619q0 55 -20 88t-55 33t-55 -33t-20 -88t20 -87.5t55 -32.5t55 32.5t20 87.5z" />
    <glyph glyph-name="uni2074" unicode="&#x2074;" horiz-adv-x="346" 
d="M19 587l160 213h92v-214h56v-65h-56v-85h-73v85h-179v66zM198 586v142l-107 -142h107z" />
    <glyph glyph-name="uni2075" unicode="&#x2075;" horiz-adv-x="316" 
d="M39 800h235v-65h-177l-6 -87q31 34 82 34q54 0 87.5 -34.5t33.5 -89.5q0 -58 -37.5 -93t-97.5 -35q-56 0 -93.5 31t-41.5 82h73q4 -21 21 -33.5t42 -12.5q26 0 42.5 17t16.5 44q0 28 -16.5 44.5t-43.5 16.5q-41 1 -60 -34h-70z" />
    <glyph glyph-name="uni2076" unicode="&#x2076;" horiz-adv-x="326" 
d="M19 613q0 88 42.5 141t112.5 53q50 0 86.5 -29t43.5 -80h-71q-4 23 -21.5 37t-41.5 14q-36 0 -58.5 -32t-22.5 -81v-24q8 26 31 43.5t61 17.5q57 0 91.5 -33t34.5 -87q0 -55 -37.5 -88.5t-99.5 -33.5q-73 0 -112 49.5t-39 132.5zM234 553q0 28 -18 45.5t-46 17.5
q-29 0 -47 -17t-18 -45t18 -45.5t47 -17.5t46.5 17t17.5 45z" />
    <glyph glyph-name="uni2077" unicode="&#x2077;" horiz-adv-x="286" 
d="M6 733v66h266v-61l-152 -303h-81l152 299z" />
    <glyph glyph-name="uni2078" unicode="&#x2078;" horiz-adv-x="332" 
d="M20 536q0 33 19 57t53 34q-60 22 -60 82q0 43 37 70.5t98 27.5q60 0 97.5 -27.5t37.5 -70.5q0 -58 -59 -82q69 -20 69 -91q0 -46 -39 -75.5t-106 -29.5q-66 0 -106.5 29.5t-40.5 75.5zM229 700q0 22 -17.5 36t-44.5 14t-44.5 -14t-17.5 -36t17.5 -35.5t44.5 -13.5
t44.5 13.5t17.5 35.5zM237 543q0 23 -20 38.5t-50 15.5t-50.5 -15.5t-20.5 -38.5t20 -38t51 -15q30 0 50 15t20 38z" />
    <glyph glyph-name="uni2079" unicode="&#x2079;" horiz-adv-x="326" 
d="M307 625q0 -88 -42 -141t-112 -53q-51 0 -87 29t-44 80h71q12 -51 63 -51q37 0 59.5 31t22.5 82v24q-20 -61 -92 -61q-58 0 -92.5 33t-34.5 87q0 56 37.5 89t100.5 33q72 0 111 -49.5t39 -132.5zM93 685q0 -28 17.5 -45.5t46.5 -17.5t46.5 17t17.5 45t-17.5 45.5
t-46.5 17.5t-46.5 -17t-17.5 -45z" />
    <glyph glyph-name="uni2080" unicode="&#x2080;" horiz-adv-x="342" 
d="M20 82q0 86 41 137t110 51t110 -51t41 -137t-41 -137t-110 -51t-110 51t-41 137zM246 82q0 55 -20 88t-55 33t-55 -33t-20 -88t20 -87.5t55 -32.5t55 32.5t20 87.5z" />
    <glyph glyph-name="uni2081" unicode="&#x2081;" horiz-adv-x="213" 
d="M92 225v39h71v-364h-73v232q-6 -8 -19 -8h-64v69h62q10 0 16.5 9.5t6.5 22.5z" />
    <glyph glyph-name="uni2082" unicode="&#x2082;" horiz-adv-x="320" 
d="M94 132h-73v7q0 59 39 95t97 36q63 0 101 -32.5t38 -85.5q0 -36 -18 -61.5t-52 -51.5l-91 -70h164v-69h-276v65l147 109q49 38 49 76q0 24 -17 38.5t-44 14.5q-29 0 -46.5 -17.5t-17.5 -49.5v-4z" />
    <glyph glyph-name="uni2083" unicode="&#x2083;" horiz-adv-x="330" 
d="M102 152h-74q1 55 38 86.5t99 31.5t98.5 -28t36.5 -74q0 -30 -17.5 -49.5t-43.5 -26.5q32 -6 50.5 -28t18.5 -55q0 -53 -39 -84t-107 -31q-69 0 -106 32.5t-38 92.5h74q1 -28 19.5 -44t50.5 -16q30 0 49 14t19 38q0 50 -69 50h-24v49h22q29 0 47 13t18 35q0 21 -16 34
t-43 13q-28 0 -45 -14.5t-18 -38.5z" />
    <glyph glyph-name="uni2084" unicode="&#x2084;" horiz-adv-x="346" 
d="M19 51l160 213h92v-214h56v-65h-56v-85h-73v85h-179v66zM198 50v142l-107 -142h107z" />
    <glyph glyph-name="uni2085" unicode="&#x2085;" horiz-adv-x="316" 
d="M39 264h235v-65h-177l-6 -87q31 34 82 34q54 0 87.5 -34.5t33.5 -89.5q0 -58 -37.5 -93t-97.5 -35q-56 0 -93.5 31t-41.5 82h73q4 -21 21 -33.5t42 -12.5q26 0 42.5 17t16.5 44q0 28 -16.5 44.5t-43.5 16.5q-41 1 -60 -34h-70z" />
    <glyph glyph-name="uni2086" unicode="&#x2086;" horiz-adv-x="326" 
d="M19 76q0 88 42.5 141t112.5 53q50 0 86.5 -29t43.5 -80h-71q-4 23 -21.5 37t-41.5 14q-36 0 -58.5 -32t-22.5 -81v-24q8 26 31 43.5t61 17.5q57 0 91.5 -33t34.5 -87q0 -55 -37.5 -88.5t-99.5 -33.5q-73 0 -112 49.5t-39 132.5zM234 16q0 28 -18 45.5t-46 17.5
q-29 0 -47 -17t-18 -45t18 -45.5t47 -17.5t46.5 17t17.5 45z" />
    <glyph glyph-name="uni2087" unicode="&#x2087;" horiz-adv-x="286" 
d="M6 198v66h266v-61l-152 -303h-81l152 299z" />
    <glyph glyph-name="uni2088" unicode="&#x2088;" horiz-adv-x="332" 
d="M20 -1q0 33 19 57t53 34q-60 22 -60 82q0 43 37 70.5t98 27.5q60 0 97.5 -27.5t37.5 -70.5q0 -58 -59 -82q69 -20 69 -91q0 -46 -39 -75.5t-106 -29.5q-66 0 -106.5 29.5t-40.5 75.5zM229 163q0 22 -17.5 36t-44.5 14t-44.5 -14t-17.5 -36t17.5 -35.5t44.5 -13.5
t44.5 13.5t17.5 35.5zM237 6q0 23 -20 38.5t-50 15.5t-50.5 -15.5t-20.5 -38.5t20 -38t51 -15q30 0 50 15t20 38z" />
    <glyph glyph-name="uni2089" unicode="&#x2089;" horiz-adv-x="326" 
d="M307 88q0 -88 -42 -141t-112 -53q-51 0 -87 29t-44 80h71q12 -51 63 -51q37 0 59.5 31t22.5 82v24q-20 -61 -92 -61q-58 0 -92.5 33t-34.5 87q0 56 37.5 89t100.5 33q72 0 111 -49.5t39 -132.5zM93 148q0 -28 17.5 -45.5t46.5 -17.5t46.5 17t17.5 45t-17.5 45.5
t-46.5 17.5t-46.5 -17t-17.5 -45z" />
    <glyph glyph-name="franc" unicode="&#x20a3;" horiz-adv-x="556" 
d="M532 700v-102h-332v-203h274v-99h-274v-100h143v-89h-143v-107h-115v107h-86v89h86v504h447z" />
    <glyph glyph-name="uni20A8" unicode="&#x20a8;" horiz-adv-x="640" 
d="M64 601v99h549l-13 -77h-154q42 -43 52 -108h103l-13 -77h-91q-9 -57 -44 -98.5t-89 -60.5l149 -279h-128l-133 254h-188v99h183q50 0 84.5 23t45.5 62h-313v77h313q-11 40 -45 63t-84 23h-184z" />
    <glyph glyph-name="Euro" unicode="&#x20ac;" horiz-adv-x="664" 
d="M91 240h-69v77h64q-1 8 -1 33q0 16 1 27h-64v77h69q16 118 89.5 185t184.5 67q117 0 188 -66t81 -178h-117q-9 68 -47 107t-101 39q-65 0 -108 -40.5t-54 -113.5h178l-13 -77h-172q-1 -9 -1 -26q0 -6 0.5 -18t0.5 -16h158l-13 -77h-138q14 -71 56.5 -109.5t106.5 -38.5
q61 0 98.5 38.5t48.5 107.5h116q-11 -113 -81.5 -178.5t-186.5 -65.5q-110 0 -182.5 65t-91.5 181z" />
    <glyph glyph-name="uni20BF" unicode="&#x20bf;" horiz-adv-x="630" 
d="M64 0v700h111v105h80v-105h67v105h80v-111q78 -14 121 -59.5t43 -116.5q0 -63 -34 -103.5t-97 -54.5q158 -27 158 -165q0 -78 -50 -127.5t-141 -61.5v-102h-80v96h-67v-96h-80v96h-111zM329 604h-150v-201h150q58 0 90 26.5t32 74.5q0 47 -31.5 73.5t-90.5 26.5zM333 308
h-154v-211h154q68 0 105 27.5t37 76.5q0 51 -37.5 79t-104.5 28z" />
    <glyph glyph-name="uni2116" unicode="&#x2116;" horiz-adv-x="1171" 
d="M879 233q-107 0 -171.5 65t-64.5 172t64.5 171.5t171.5 64.5q106 0 170.5 -65t64.5 -171q0 -107 -64.5 -172t-170.5 -65zM177 0h-113v700h100l300 -478v478h113v-700h-99l-301 478v-478zM879 323q58 0 92 40t34 107q0 66 -34 106t-92 40t-92.5 -40t-34.5 -106
q0 -67 34.5 -107t92.5 -40z" />
    <glyph glyph-name="trademark" unicode="&#x2122;" horiz-adv-x="696" 
d="M27 640v60h239v-60h-87v-209h-65v209h-87zM296 431v269h91l82 -187l79 187h90v-269h-62v190l-84 -190h-51l-82 190v-190h-63z" />
    <glyph glyph-name="uni2126" unicode="&#x2126;" horiz-adv-x="737" 
d="M685 0h-257v161q78 46 113 102.5t35 132.5q0 92 -59 151.5t-150 59.5q-90 0 -148 -59t-58 -152q0 -76 34.5 -132.5t112.5 -102.5v-161h-255v102h167v27q-176 72 -176 273q0 139 90 221.5t233 82.5q145 0 235.5 -82.5t90.5 -220.5q0 -206 -177 -274v-27h169v-102z" />
    <glyph glyph-name="uni2153" unicode="&#x2153;" horiz-adv-x="733" 
d="M92 662v39h71v-364h-73v232q-6 -8 -19 -8h-64v69h62q10 0 16.5 9.5t6.5 22.5zM130 0h-87l444 700h86zM505 252h-74q1 55 38 86.5t99 31.5t98.5 -28t36.5 -74q0 -30 -17.5 -49.5t-43.5 -26.5q32 -6 50.5 -28t18.5 -55q0 -53 -39 -84t-107 -31q-69 0 -106 32.5t-38 92.5h74
q1 -28 19.5 -44t50.5 -16q30 0 49 14t19 38q0 50 -69 50h-24v49h22q29 0 47 13t18 35q0 21 -16 34t-43 13q-28 0 -45 -14.5t-18 -38.5z" />
    <glyph glyph-name="uni2155" unicode="&#x2155;" horiz-adv-x="719" 
d="M92 662v39h71v-364h-73v232q-6 -8 -19 -8h-64v69h62q10 0 16.5 9.5t6.5 22.5zM130 0h-87l444 700h86zM442 364h235v-65h-177l-6 -87q31 34 82 34q54 0 87.5 -34.5t33.5 -89.5q0 -58 -37.5 -93t-97.5 -35q-56 0 -93.5 31t-41.5 82h73q4 -21 21 -33.5t42 -12.5
q26 0 42.5 17t16.5 44q0 28 -17 44.5t-43 16.5q-41 1 -60 -34h-70z" />
    <glyph glyph-name="uni2156" unicode="&#x2156;" horiz-adv-x="826" 
d="M94 568h-73v7q0 59 39 95t97 36q63 0 101 -32.5t38 -85.5q0 -36 -18 -61.5t-52 -51.5l-91 -70h164v-69h-276v65l147 109q49 38 49 76q0 24 -17 38.5t-44 14.5q-29 0 -46.5 -17.5t-17.5 -49.5v-4zM237 0h-87l444 700h86zM549 364h235v-65h-177l-6 -87q31 34 82 34
q54 0 87.5 -34.5t33.5 -89.5q0 -58 -37.5 -93t-97.5 -35q-56 0 -93.5 31t-41.5 82h73q4 -21 21 -33.5t42 -12.5q26 0 42.5 17t16.5 44q0 28 -16.5 44.5t-43.5 16.5q-41 1 -60 -34h-70z" />
    <glyph glyph-name="uni2157" unicode="&#x2157;" horiz-adv-x="836" 
d="M102 590h-74q1 55 38 86.5t99 31.5t98.5 -28t36.5 -74q0 -30 -17.5 -49.5t-43.5 -26.5q32 -6 50.5 -28t18.5 -55q0 -53 -39 -84t-107 -31q-69 0 -106 32.5t-38 92.5h74q1 -28 19.5 -44t50.5 -16q30 0 49 14t19 38q0 50 -69 50h-24v49h22q29 0 47 13t18 35q0 21 -16 34
t-43 13q-28 0 -45 -14.5t-18 -38.5zM247 0h-87l444 700h86zM559 364h235v-65h-177l-6 -87q31 34 82 34q54 0 87.5 -34.5t33.5 -89.5q0 -58 -37.5 -93t-97.5 -35q-56 0 -93.5 31t-41.5 82h73q4 -21 21 -33.5t42 -12.5q26 0 42.5 17t16.5 44q0 28 -16.5 44.5t-43.5 16.5
q-41 1 -60 -34h-70z" />
    <glyph glyph-name="uni2158" unicode="&#x2158;" horiz-adv-x="852" 
d="M19 487l160 213h92v-214h56v-65h-56v-85h-73v85h-179v66zM263 0h-87l444 700h86zM198 486v142l-107 -142h107zM575 364h235v-65h-177l-6 -87q31 34 82 34q54 0 87.5 -34.5t33.5 -89.5q0 -58 -37.5 -93t-97.5 -35q-56 0 -93.5 31t-41.5 82h73q4 -21 21 -33.5t42 -12.5
q26 0 42.5 17t16.5 44q0 28 -16.5 44.5t-43.5 16.5q-41 1 -60 -34h-70z" />
    <glyph glyph-name="uni2159" unicode="&#x2159;" horiz-adv-x="730" 
d="M92 662v39h71v-364h-73v232q-6 -8 -19 -8h-64v69h62q10 0 16.5 9.5t6.5 22.5zM130 0h-87l444 700h86zM422 176q0 88 42.5 141t112.5 53q50 0 86.5 -29t43.5 -80h-71q-4 23 -21.5 37t-41.5 14q-36 0 -58.5 -32t-22.5 -81v-24q8 26 31 43.5t61 17.5q57 0 91.5 -33t34.5 -87
q0 -55 -37.5 -88.5t-99.5 -33.5q-73 0 -112 49.5t-39 132.5zM637 116q0 28 -18 45.5t-46 17.5q-29 0 -47 -17t-18 -45t18 -45.5t47 -17.5t46.5 17t17.5 45z" />
    <glyph glyph-name="oneeighth" unicode="&#x215b;" horiz-adv-x="736" 
d="M92 662v39h71v-364h-73v232q-6 -8 -19 -8h-64v69h62q10 0 16.5 9.5t6.5 22.5zM130 0h-87l444 700h86zM423 99q0 33 19 57t53 34q-60 22 -60 82q0 43 37 70.5t98 27.5q60 0 97.5 -27.5t37.5 -70.5q0 -58 -59 -82q69 -20 69 -91q0 -46 -39 -75.5t-106 -29.5
q-66 0 -106.5 29.5t-40.5 75.5zM632 263q0 22 -17.5 36t-44.5 14t-44.5 -14t-17.5 -36t17.5 -35.5t44.5 -13.5t44.5 13.5t17.5 35.5zM640 106q0 23 -20 38.5t-50 15.5t-50.5 -15.5t-20.5 -38.5t20 -38t51 -15q30 0 50 15t20 38z" />
    <glyph glyph-name="threeeighths" unicode="&#x215c;" horiz-adv-x="853" 
d="M102 590h-74q1 55 38 86.5t99 31.5t98.5 -28t36.5 -74q0 -30 -17.5 -49.5t-43.5 -26.5q32 -6 50.5 -28t18.5 -55q0 -53 -39 -84t-107 -31q-69 0 -106 32.5t-38 92.5h74q1 -28 19.5 -44t50.5 -16q30 0 49 14t19 38q0 50 -69 50h-24v49h22q29 0 47 13t18 35q0 21 -16 34
t-43 13q-28 0 -45 -14.5t-18 -38.5zM247 0h-87l444 700h86zM540 99q0 33 19 57t53 34q-60 22 -60 82q0 43 37 70.5t98 27.5q60 0 97.5 -27.5t37.5 -70.5q0 -58 -59 -82q69 -20 69 -91q0 -46 -39 -75.5t-106 -29.5q-66 0 -106.5 29.5t-40.5 75.5zM749 263q0 22 -17.5 36
t-44.5 14t-44.5 -14t-17.5 -36t17.5 -35.5t44.5 -13.5t44.5 13.5t17.5 35.5zM757 106q0 23 -20 38.5t-50 15.5t-50.5 -15.5t-20.5 -38.5t20 -38t51 -15q30 0 50 15t20 38z" />
    <glyph glyph-name="fiveeighths" unicode="&#x215d;" horiz-adv-x="839" 
d="M39 700h235v-65h-177l-6 -87q31 34 82 34q54 0 87.5 -34.5t33.5 -89.5q0 -58 -37.5 -93t-97.5 -35q-56 0 -93.5 31t-41.5 82h73q4 -21 21 -33.5t42 -12.5q26 0 42.5 17t16.5 44q0 28 -16.5 44.5t-43.5 16.5q-41 1 -60 -34h-70zM233 0h-87l444 700h86zM526 99q0 33 19 57
t53 34q-60 22 -60 82q0 43 37 70.5t98 27.5q60 0 97.5 -27.5t37.5 -70.5q0 -58 -59 -82q69 -20 69 -91q0 -46 -39 -75.5t-106 -29.5q-66 0 -106.5 29.5t-40.5 75.5zM735 263q0 22 -17.5 36t-44.5 14t-44.5 -14t-17.5 -36t17.5 -35.5t44.5 -13.5t44.5 13.5t17.5 35.5z
M743 106q0 23 -20 38.5t-50 15.5t-50.5 -15.5t-20.5 -38.5t20 -38t51 -15q30 0 50 15t20 38z" />
    <glyph glyph-name="seveneighths" unicode="&#x215e;" horiz-adv-x="785" 
d="M179 0h-87l444 700h86zM6 633v66h266v-61l-152 -303h-81l152 299zM472 99q0 33 19 57t53 34q-60 22 -60 82q0 43 37 70.5t98 27.5q60 0 97.5 -27.5t37.5 -70.5q0 -58 -59 -82q69 -20 69 -91q0 -46 -39 -75.5t-106 -29.5q-66 0 -106.5 29.5t-40.5 75.5zM681 263
q0 22 -17.5 36t-44.5 14t-44.5 -14t-17.5 -36t17.5 -35.5t44.5 -13.5t44.5 13.5t17.5 35.5zM689 106q0 23 -20 38.5t-50 15.5t-50.5 -15.5t-20.5 -38.5t20 -38t51 -15q30 0 50 15t20 38z" />
    <glyph glyph-name="arrowleft" unicode="&#x2190;" horiz-adv-x="654" 
d="M38 288l288 287l67 -68l-172 -170h380v-98h-380l172 -171l-67 -67z" />
    <glyph glyph-name="arrowup" unicode="&#x2191;" horiz-adv-x="651" 
d="M375 33h-99v380l-170 -173l-68 67l287 287l287 -287l-67 -67l-170 173v-380z" />
    <glyph glyph-name="arrowright" unicode="&#x2192;" horiz-adv-x="654" 
d="M616 288l-288 -287l-67 67l173 170h-381v98h380l-172 171l67 68z" />
    <glyph glyph-name="arrowdown" unicode="&#x2193;" horiz-adv-x="651" 
d="M276 209v380h99v-380l170 172l67 -67l-287 -287l-287 287l68 67z" />
    <glyph glyph-name="arrowboth" unicode="&#x2194;" horiz-adv-x="884" 
d="M377 91l-71 -71l-268 268l268 267l71 -71l-150 -147h430l-150 147l71 71l268 -267l-268 -268l-71 71l150 147h-430z" />
    <glyph glyph-name="arrowupdn" unicode="&#x2195;" horiz-adv-x="594" 
d="M556 229l-259 -260l-259 260l68 67l142 -144l-1 389l-142 -144l-67 68l258 259l260 -259l-68 -68l-142 144v-389l142 144z" />
    <glyph glyph-name="uni2196" unicode="&#x2196;" horiz-adv-x="533" 
d="M216 430l279 -277l-70 -70l-277 278l1 -243h-96v406h407v-95z" />
    <glyph glyph-name="uni2197" unicode="&#x2197;" horiz-adv-x="533" 
d="M385 362l-277 -279l-70 70l278 277l-243 -1v95h406v-406h-95z" />
    <glyph glyph-name="uni2198" unicode="&#x2198;" horiz-adv-x="533" 
d="M317 178l-279 277l70 70l277 -278l-1 243h96v-406h-407v95z" />
    <glyph glyph-name="uni2199" unicode="&#x2199;" horiz-adv-x="533" 
d="M147 246l278 278l69 -69l-277 -277l243 1v-96h-407v407h96z" />
    <glyph glyph-name="partialdiff" unicode="&#x2202;" horiz-adv-x="598" 
d="M38 232q0 105 69 167t165 62q108 0 159 -55q-57 183 -317 206v94q113 -4 200.5 -42.5t139 -100.5t77.5 -137t26 -158q0 -121 -68.5 -197.5t-193.5 -76.5q-115 0 -186 67t-71 171zM295 84q68 0 109 42.5t41 111.5q0 64 -43 102.5t-107 38.5q-65 0 -106 -41t-41 -106
t41 -106.5t106 -41.5z" />
    <glyph glyph-name="emptyset" unicode="&#x2205;" horiz-adv-x="619" 
d="M570 569l-46 -46q58 -71 58 -167q0 -114 -77 -188t-195 -74q-92 0 -164 48l-44 -44l-57 54l44 44q-52 69 -52 160q0 113 77.5 187.5t195.5 74.5q87 0 155 -43l49 49zM147 356q0 -44 19 -82l227 229q-38 22 -83 22q-70 0 -116.5 -48.5t-46.5 -120.5zM310 187
q70 0 116 48.5t46 120.5q0 49 -24 91l-230 -232q40 -28 92 -28z" />
    <glyph glyph-name="uni2206" unicode="&#x2206;" horiz-adv-x="693" 
d="M668 0h-643v79l254 621h135l254 -621v-79zM342 587l-190 -485h384z" />
    <glyph glyph-name="product" unicode="&#x220f;" horiz-adv-x="739" 
d="M29 700h682v-102h-84v-704h-115v704h-284v-704h-115v704h-84v102z" />
    <glyph glyph-name="summation" unicode="&#x2211;" horiz-adv-x="622" 
d="M36 -106v93l279 322l-259 298v93h518v-99h-368l219 -254v-73l-245 -281h402v-99h-546z" />
    <glyph glyph-name="minus" unicode="&#x2212;" horiz-adv-x="520" 
d="M469 240h-418v91h418v-91z" />
    <glyph glyph-name="radical" unicode="&#x221a;" horiz-adv-x="601" 
d="M252 0l-152 349l-51 -26l-37 82l145 69l143 -341l175 567h107l-219 -700h-111z" />
    <glyph glyph-name="infinity" unicode="&#x221e;" horiz-adv-x="821" 
d="M598 88q-54 0 -96.5 26.5t-92.5 97.5q-50 -71 -92.5 -97.5t-96.5 -26.5q-88 0 -138.5 59.5t-50.5 144.5t50.5 144t138.5 59q54 0 97 -26.5t93 -96.5q50 70 92 96.5t96 26.5q88 0 138.5 -59t50.5 -144t-50.5 -144.5t-138.5 -59.5zM225 185q34 0 61.5 22.5t67.5 83.5
q-40 61 -67.5 84t-61.5 23q-44 0 -69.5 -29.5t-25.5 -76.5q0 -50 25 -78.5t70 -28.5zM464 292q39 -61 67 -84t62 -23q45 0 70 28.5t25 78.5q0 47 -25.5 76.5t-69.5 29.5q-34 0 -62 -23t-67 -83z" />
    <glyph glyph-name="integral" unicode="&#x222b;" horiz-adv-x="398" 
d="M27 -106v95h64q28 0 41 13.5t13 42.5v509q0 146 143 146h83v-95h-64q-28 0 -41 -13.5t-13 -42.5v-509q0 -146 -143 -146h-83z" />
    <glyph glyph-name="approxequal" unicode="&#x2248;" horiz-adv-x="520" 
d="M139 307h-88q0 77 32 117.5t90 40.5q38 0 67.5 -15.5t51 -31t39.5 -15.5q50 0 50 63h88q0 -77 -32 -117.5t-90 -40.5q-30 0 -55.5 9.5t-39.5 21t-31 21t-32 9.5q-50 0 -50 -62zM139 83h-88q0 77 32 117.5t90 40.5q38 0 67.5 -15.5t51 -31t39.5 -15.5q50 0 50 62h88
q0 -77 -32 -117t-90 -40q-30 0 -55.5 9.5t-39.5 21t-31 21t-32 9.5q-50 0 -50 -62z" />
    <glyph glyph-name="notequal" unicode="&#x2260;" horiz-adv-x="520" 
d="M459 429v-92h-130l-40 -120h170v-91h-201l-31 -94h-102l31 94h-95v91h126l40 120h-166v92h196l30 89h102l-30 -89h100z" />
    <glyph glyph-name="lessequal" unicode="&#x2264;" horiz-adv-x="520" 
d="M453 140l-386 168v101l386 168v-105l-266 -113l266 -114v-105zM453 0h-386v92h386v-92z" />
    <glyph glyph-name="greaterequal" unicode="&#x2265;" horiz-adv-x="520" 
d="M67 577l386 -168v-101l-386 -168v105l266 114l-266 113v105zM453 0h-386v92h386v-92z" />
    <glyph glyph-name="dotmath" unicode="&#x22c5;" horiz-adv-x="224" 
d="M43 285q0 30 19.5 49t49.5 19t50 -19t20 -49t-20 -49t-50 -19t-49.5 19t-19.5 49z" />
    <glyph glyph-name="filledbox" unicode="&#x25a0;" horiz-adv-x="832" 
d="M64 0v700h704v-700h-704z" />
    <glyph glyph-name="uni25A1" unicode="&#x25a1;" horiz-adv-x="830" 
d="M64 0v700h702v-700h-702zM656 600h-482v-500h482v500z" />
    <glyph glyph-name="uni25AF" unicode="&#x25af;" horiz-adv-x="612" 
d="M64 0v700h484v-700h-484zM438 600h-264v-500h264v500z" />
    <glyph glyph-name="triagup" unicode="&#x25b2;" horiz-adv-x="845" 
d="M13 0l411 712l409 -712h-820z" />
    <glyph glyph-name="uni25B3" unicode="&#x25b3;" horiz-adv-x="845" 
d="M13 0l411 712l409 -712h-820zM660 99l-237 411l-238 -411h475z" />
    <glyph glyph-name="uni25B6" unicode="&#x25b6;" horiz-adv-x="507" 
d="M53 -6v512l446 -256z" />
    <glyph glyph-name="uni25B7" unicode="&#x25b7;" horiz-adv-x="516" 
d="M53 -5v523l455 -262zM135 382v-250l219 124z" />
    <glyph glyph-name="uni25C0" unicode="&#x25c0;" horiz-adv-x="507" 
d="M8 250l446 256v-512z" />
    <glyph glyph-name="uni25C1" unicode="&#x25c1;" horiz-adv-x="516" 
d="M8 256l455 262v-523zM162 256l219 -124v250z" />
    <glyph glyph-name="lozenge" unicode="&#x25ca;" horiz-adv-x="621" 
d="M243 700h135l200 -350l-200 -350h-135l-200 350zM168 350l143 -261l142 261l-142 262z" />
    <glyph glyph-name="circle" unicode="&#x25cb;" horiz-adv-x="797" 
d="M398 706q156 0 258.5 -101t102.5 -255t-102.5 -255t-258.5 -101t-258.5 101t-102.5 255t102.5 255t258.5 101zM398 638q-122 0 -202 -81.5t-80 -206.5t80 -206.5t202 -81.5q123 0 203 81.5t80 206.5t-80 206.5t-203 81.5z" />
    <glyph glyph-name="uni25CF" unicode="&#x25cf;" horiz-adv-x="793" 
d="M396 706q-155 0 -257 -101t-102 -255t102 -255t257 -101t257 101t102 255t-102 255t-257 101z" />
    <glyph glyph-name="uni25FD" unicode="&#x25fd;" horiz-adv-x="618" 
d="M53 0v512h512v-512h-512zM478 431h-340v-349h340v349z" />
    <glyph glyph-name="uni25FE" unicode="&#x25fe;" horiz-adv-x="618" 
d="M53 0v512h512v-512h-512z" />
    <glyph glyph-name="uni262E" unicode="&#x262e;" horiz-adv-x="791" 
d="M37 350q0 155 101.5 255.5t256.5 100.5q156 0 257 -100.5t101 -255.5t-101 -255.5t-257 -100.5q-155 0 -256.5 100.5t-101.5 255.5zM171 227l182 186v196q-98 -12 -160 -83.5t-62 -175.5q0 -70 40 -123zM437 609v-197l181 -185q42 52 42 123q0 104 -62.5 175.5
t-160.5 83.5zM583 157l-146 150v-216q88 11 146 66zM353 91v215l-145 -149q58 -55 145 -66z" />
    <glyph glyph-name="uni26AA" unicode="&#x26aa;" horiz-adv-x="584" 
d="M292 508q109 0 183.5 -74t74.5 -183t-74 -182.5t-184 -73.5t-184 73.5t-74 182.5t74.5 183t183.5 74zM292 427q-73 0 -123.5 -51t-50.5 -125q0 -73 50.5 -124t123.5 -51t123.5 51t50.5 124q0 74 -50.5 125t-123.5 51z" />
    <glyph glyph-name="uni26AB" unicode="&#x26ab;" horiz-adv-x="584" 
d="M292 508q109 0 183.5 -74t74.5 -183t-74 -182.5t-184 -73.5t-184 73.5t-74 182.5t74.5 183t183.5 74z" />
    <glyph glyph-name="uni2713" unicode="&#x2713;" horiz-adv-x="998" 
d="M362 0l-349 349l76 77l273 -272l545 546l78 -77z" />
    <glyph glyph-name="uni2715" unicode="&#x2715;" horiz-adv-x="775" 
d="M38 623l77 77l272 -272l273 272l77 -77l-273 -272l273 -275l-77 -76l-273 273l-272 -273l-77 76l273 275z" />
    <glyph glyph-name="uni2780" unicode="&#x2780;" horiz-adv-x="797" 
d="M398 706q156 0 258.5 -101t102.5 -255t-102.5 -255t-258.5 -101t-258.5 101t-102.5 255t102.5 255t258.5 101zM398 638q-122 0 -202 -81.5t-80 -206.5t80 -206.5t202 -81.5q123 0 203 81.5t80 206.5t-80 206.5t-203 81.5zM370 493v39h71v-364h-73v232q-6 -8 -19 -8h-64
v69h62q10 0 16.5 9.5t6.5 22.5z" />
    <glyph glyph-name="uni2781" unicode="&#x2781;" horiz-adv-x="797" 
d="M398 706q156 0 258.5 -101t102.5 -255t-102.5 -255t-258.5 -101t-258.5 101t-102.5 255t102.5 255t258.5 101zM398 638q-122 0 -202 -81.5t-80 -206.5t80 -206.5t202 -81.5q123 0 203 81.5t80 206.5t-80 206.5t-203 81.5zM329 400h-73v7q0 59 39 95t97 36q63 0 101 -32.5
t38 -85.5q0 -36 -18 -61.5t-52 -51.5l-91 -70h164v-69h-276v65l147 109q49 38 49 76q0 24 -17 38.5t-44 14.5q-29 0 -46.5 -17.5t-17.5 -49.5v-4z" />
    <glyph glyph-name="uni2782" unicode="&#x2782;" horiz-adv-x="797" 
d="M398 706q156 0 258.5 -101t102.5 -255t-102.5 -255t-258.5 -101t-258.5 101t-102.5 255t102.5 255t258.5 101zM398 638q-122 0 -202 -81.5t-80 -206.5t80 -206.5t202 -81.5q123 0 203 81.5t80 206.5t-80 206.5t-203 81.5zM334 420h-74q1 55 38 86.5t99 31.5t98.5 -28
t36.5 -74q0 -30 -17.5 -49.5t-43.5 -26.5q32 -6 50.5 -28t18.5 -55q0 -53 -39 -84t-107 -31q-69 0 -106 32.5t-38 92.5h74q1 -28 19.5 -44t50.5 -16q30 0 49 14t19 38q0 50 -69 50h-24v49h22q29 0 47 13t18 35q0 21 -16 34t-43 13q-28 0 -45 -14.5t-18 -38.5z" />
    <glyph glyph-name="uni2783" unicode="&#x2783;" horiz-adv-x="797" 
d="M398 706q156 0 258.5 -101t102.5 -255t-102.5 -255t-258.5 -101t-258.5 101t-102.5 255t102.5 255t258.5 101zM398 638q-122 0 -202 -81.5t-80 -206.5t80 -206.5t202 -81.5q123 0 203 81.5t80 206.5t-80 206.5t-203 81.5zM229 319l160 213h92v-214h56v-65h-56v-85h-73v85
h-179v66zM408 318v142l-107 -142h107z" />
    <glyph glyph-name="uni2784" unicode="&#x2784;" horiz-adv-x="797" 
d="M398 706q156 0 258.5 -101t102.5 -255t-102.5 -255t-258.5 -101t-258.5 101t-102.5 255t102.5 255t258.5 101zM398 638q-122 0 -202 -81.5t-80 -206.5t80 -206.5t202 -81.5q123 0 203 81.5t80 206.5t-80 206.5t-203 81.5zM280 532h235v-65h-177l-6 -87q31 34 82 34
q54 0 87.5 -34.5t33.5 -89.5q0 -58 -37.5 -93t-97.5 -35q-56 0 -93.5 31t-41.5 82h73q4 -21 21 -33.5t42 -12.5q26 0 42.5 17t16.5 44q0 28 -17 44.5t-43 16.5q-41 1 -60 -34h-70z" />
    <glyph glyph-name="uni2785" unicode="&#x2785;" horiz-adv-x="797" 
d="M398 706q156 0 258.5 -101t102.5 -255t-102.5 -255t-258.5 -101t-258.5 101t-102.5 255t102.5 255t258.5 101zM398 638q-122 0 -202 -81.5t-80 -206.5t80 -206.5t202 -81.5q123 0 203 81.5t80 206.5t-80 206.5t-203 81.5zM247 344q0 88 42.5 141t112.5 53q50 0 86.5 -29
t43.5 -80h-71q-4 23 -21.5 37t-41.5 14q-36 0 -58.5 -32t-22.5 -81v-24q8 26 31 43.5t61 17.5q57 0 91.5 -33t34.5 -87q0 -55 -37.5 -88.5t-99.5 -33.5q-73 0 -112 49.5t-39 132.5zM462 284q0 28 -18 45.5t-46 17.5q-29 0 -47 -17t-18 -45t18 -45.5t47 -17.5t46.5 17
t17.5 45z" />
    <glyph glyph-name="uni2786" unicode="&#x2786;" horiz-adv-x="797" 
d="M398 706q156 0 258.5 -101t102.5 -255t-102.5 -255t-258.5 -101t-258.5 101t-102.5 255t102.5 255t258.5 101zM398 638q-122 0 -202 -81.5t-80 -206.5t80 -206.5t202 -81.5q123 0 203 81.5t80 206.5t-80 206.5t-203 81.5zM270 466v66h266v-61l-152 -303h-81l152 299z" />
    <glyph glyph-name="uni2787" unicode="&#x2787;" horiz-adv-x="797" 
d="M398 706q156 0 258.5 -101t102.5 -255t-102.5 -255t-258.5 -101t-258.5 101t-102.5 255t102.5 255t258.5 101zM398 638q-122 0 -202 -81.5t-80 -206.5t80 -206.5t202 -81.5q123 0 203 81.5t80 206.5t-80 206.5t-203 81.5zM252 267q0 33 19 57t53 34q-60 22 -60 82
q0 43 37 70.5t98 27.5q60 0 97.5 -27.5t37.5 -70.5q0 -58 -59 -82q69 -20 69 -91q0 -46 -39 -75.5t-106 -29.5q-66 0 -106.5 29.5t-40.5 75.5zM461 431q0 22 -17.5 36t-44.5 14t-44.5 -14t-17.5 -36t17.5 -35.5t44.5 -13.5t44.5 13.5t17.5 35.5zM469 274q0 23 -20 38.5
t-50 15.5t-50.5 -15.5t-20.5 -38.5t20 -38t51 -15q30 0 50 15t20 38z" />
    <glyph glyph-name="uni2788" unicode="&#x2788;" horiz-adv-x="797" 
d="M398 706q156 0 258.5 -101t102.5 -255t-102.5 -255t-258.5 -101t-258.5 101t-102.5 255t102.5 255t258.5 101zM398 638q-122 0 -202 -81.5t-80 -206.5t80 -206.5t202 -81.5q123 0 203 81.5t80 206.5t-80 206.5t-203 81.5zM546 356q0 -88 -42 -141t-112 -53q-51 0 -87 29
t-44 80h71q12 -51 63 -51q37 0 59.5 31t22.5 82v24q-20 -61 -92 -61q-58 0 -92.5 33t-34.5 87q0 56 37.5 89t100.5 33q72 0 111 -49.5t39 -132.5zM332 416q0 -28 17.5 -45.5t46.5 -17.5t46.5 17t17.5 45t-17.5 45.5t-46.5 17.5t-46.5 -17t-17.5 -45z" />
    <glyph glyph-name="uni278A" unicode="&#x278a;" horiz-adv-x="793" 
d="M396 706q-155 0 -257 -101t-102 -255t102 -255t257 -101t257 101t102 255t-102 255t-257 101zM367 493v39h71v-364h-73v232q-6 -8 -19 -8h-64v69h62q10 0 16.5 9.5t6.5 22.5z" />
    <glyph glyph-name="uni278B" unicode="&#x278b;" horiz-adv-x="793" 
d="M396 706q-155 0 -257 -101t-102 -255t102 -255t257 -101t257 101t102 255t-102 255t-257 101zM327 400h-73v7q0 59 39 95t97 36q63 0 101 -32.5t38 -85.5q0 -36 -18 -61.5t-52 -51.5l-91 -70h164v-69h-276v65l147 109q49 38 49 76q0 24 -17 38.5t-44 14.5
q-29 0 -46.5 -17.5t-17.5 -49.5v-4z" />
    <glyph glyph-name="uni278C" unicode="&#x278c;" horiz-adv-x="793" 
d="M396 706q-155 0 -257 -101t-102 -255t102 -255t257 -101t257 101t102 255t-102 255t-257 101zM331 420h-74q1 55 38 86.5t99 31.5t98.5 -28t36.5 -74q0 -30 -17.5 -49.5t-43.5 -26.5q32 -6 50.5 -28t18.5 -55q0 -53 -39 -84t-107 -31q-69 0 -106 32.5t-38 92.5h74
q1 -28 19.5 -44t50.5 -16q30 0 49 14t19 38q0 50 -69 50h-24v49h22q29 0 47 13t18 35q0 21 -16 34t-43 13q-28 0 -45 -14.5t-18 -38.5z" />
    <glyph glyph-name="uni278D" unicode="&#x278d;" horiz-adv-x="793" 
d="M396 706q-155 0 -257 -101t-102 -255t102 -255t257 -101t257 101t102 255t-102 255t-257 101zM227 319l160 213h92v-214h56v-65h-56v-85h-73v85h-179v66zM406 318v142l-107 -142h107z" />
    <glyph glyph-name="uni278E" unicode="&#x278e;" horiz-adv-x="793" 
d="M396 706q-155 0 -257 -101t-102 -255t102 -255t257 -101t257 101t102 255t-102 255t-257 101zM278 532h235v-65h-177l-6 -87q31 34 82 34q54 0 87.5 -34.5t33.5 -89.5q0 -58 -37.5 -93t-97.5 -35q-56 0 -93.5 31t-41.5 82h73q4 -21 21 -33.5t42 -12.5q26 0 42.5 17
t16.5 44q0 28 -17 44.5t-43 16.5q-41 1 -60 -34h-70z" />
    <glyph glyph-name="uni278F" unicode="&#x278f;" horiz-adv-x="793" 
d="M396 706q-155 0 -257 -101t-102 -255t102 -255t257 -101t257 101t102 255t-102 255t-257 101zM245 344q0 88 42.5 141t112.5 53q50 0 86.5 -29t43.5 -80h-71q-4 23 -21.5 37t-41.5 14q-36 0 -58.5 -32t-22.5 -81v-24q8 26 31 43.5t61 17.5q57 0 91.5 -33t34.5 -87
q0 -55 -37.5 -88.5t-99.5 -33.5q-73 0 -112 49.5t-39 132.5zM460 284q0 28 -18 45.5t-46 17.5q-29 0 -47 -17t-18 -45t18 -45.5t47 -17.5t46.5 17t17.5 45z" />
    <glyph glyph-name="uni2790" unicode="&#x2790;" horiz-adv-x="793" 
d="M396 706q-155 0 -257 -101t-102 -255t102 -255t257 -101t257 101t102 255t-102 255t-257 101zM267 466v66h266v-61l-152 -303h-81l152 299z" />
    <glyph glyph-name="uni2791" unicode="&#x2791;" horiz-adv-x="793" 
d="M396 706q-155 0 -257 -101t-102 -255t102 -255t257 -101t257 101t102 255t-102 255t-257 101zM249 267q0 33 19 57t53 34q-60 22 -60 82q0 43 37 70.5t98 27.5q60 0 97.5 -27.5t37.5 -70.5q0 -58 -59 -82q69 -20 69 -91q0 -46 -39 -75.5t-106 -29.5q-66 0 -106.5 29.5
t-40.5 75.5zM458 431q0 22 -17.5 36t-44.5 14t-44.5 -14t-17.5 -36t17.5 -35.5t44.5 -13.5t44.5 13.5t17.5 35.5zM466 274q0 23 -20 38.5t-50 15.5t-50.5 -15.5t-20.5 -38.5t20 -38t51 -15q30 0 50 15t20 38z" />
    <glyph glyph-name="uni2792" unicode="&#x2792;" horiz-adv-x="793" 
d="M396 706q-155 0 -257 -101t-102 -255t102 -255t257 -101t257 101t102 255t-102 255t-257 101zM544 356q0 -88 -42 -141t-112 -53q-51 0 -87 29t-44 80h71q12 -51 63 -51q37 0 59.5 31t22.5 82v24q-20 -61 -92 -61q-58 0 -92.5 33t-34.5 87q0 56 37.5 89t100.5 33
q72 0 111 -49.5t39 -132.5zM330 416q0 -28 17.5 -45.5t46.5 -17.5t46.5 17t17.5 45t-17.5 45.5t-46.5 17.5t-46.5 -17t-17.5 -45z" />
    <glyph glyph-name="fl" unicode="&#xfb02;" horiz-adv-x="553" 
d="M1 417v95h89v48q0 140 143 140h103v-95h-89q-26 0 -38 -12t-12 -38v-43h139v-95h-137v-417h-109v417h-89zM392 0v700h108v-700h-108z" />
    <glyph glyph-name="u1F10B" unicode="&#x1f10b;" horiz-adv-x="797" 
d="M398 706q156 0 258.5 -101t102.5 -255t-102.5 -255t-258.5 -101t-258.5 101t-102.5 255t102.5 255t258.5 101zM398 638q-122 0 -202 -81.5t-80 -206.5t80 -206.5t202 -81.5q123 0 203 81.5t80 206.5t-80 206.5t-203 81.5zM247 350q0 86 41 137t110 51t110 -51t41 -137
t-41 -137t-110 -51t-110 51t-41 137zM473 350q0 55 -20 88t-55 33t-55 -33t-20 -88t20 -87.5t55 -32.5t55 32.5t20 87.5z" />
    <glyph glyph-name="u1F10C" unicode="&#x1f10c;" horiz-adv-x="793" 
d="M396 706q-155 0 -257 -101t-102 -255t102 -255t257 -101t257 101t102 255t-102 255t-257 101zM245 350q0 86 41 137t110 51t110 -51t41 -137t-41 -137t-110 -51t-110 51t-41 137zM471 350q0 55 -20 88t-55 33t-55 -33t-20 -88t20 -87.5t55 -32.5t55 32.5t20 87.5z" />
    <glyph glyph-name="J.ss07" horiz-adv-x="598" 
d="M26 265h115q0 -80 35.5 -125t104.5 -45q142 0 142 171v434h115v-432q0 -274 -257 -274q-124 0 -190 69.5t-65 201.5z" />
    <glyph glyph-name="Jcircumflex.ss07" horiz-adv-x="598" 
d="M557 757l-75 72l-76 -72h-101l127 139h100l127 -139h-102zM26 265h115q0 -80 35.5 -125t104.5 -45q142 0 142 171v434h115v-432q0 -274 -257 -274q-124 0 -190 69.5t-65 201.5z" />
    <glyph glyph-name="Q.ss08" horiz-adv-x="754" 
d="M717 350q0 -98 -40 -177t-112 -125l81 -126h-116l-55 85q-49 -13 -98 -13q-150 0 -245 100.5t-95 255.5t95 255.5t245 100.5t245 -100.5t95 -255.5zM377 95q21 0 40 3l-80 125h116l54 -85q92 71 92 212q0 112 -61.5 183.5t-160.5 71.5t-160.5 -71.5t-61.5 -183.5
t61.5 -183.5t160.5 -71.5z" />
    <glyph glyph-name="a.ss01" horiz-adv-x="603" 
d="M443 437l13 75h94v-512h-95l-12 78q-60 -84 -167 -84t-174.5 70.5t-67.5 191.5q0 117 68.5 189.5t173.5 72.5q110 0 167 -81zM294 85q67 0 108 47t41 122q0 76 -41 124t-108 48t-108 -47.5t-41 -122.5q0 -76 41 -123.5t108 -47.5z" />
    <glyph glyph-name="a.ss02" horiz-adv-x="533" 
d="M274 518q103 0 158.5 -48t55.5 -138v-332h-94l-9 73q-60 -79 -165 -79q-85 0 -136 40t-51 110q0 79 56.5 121.5t163.5 42.5h128v31q0 43 -29.5 67.5t-82.5 24.5q-47 0 -78 -20.5t-37 -54.5h-106q8 75 68.5 118.5t157.5 43.5zM238 78q67 0 104.5 36t38.5 96v18h-134
q-104 0 -104 -77q0 -33 25.5 -53t69.5 -20z" />
    <glyph glyph-name="aacute.ss01" horiz-adv-x="603" 
d="M336 708h125l-123 -138h-82zM443 437l13 75h94v-512h-95l-12 78q-60 -84 -167 -84t-174.5 70.5t-67.5 191.5q0 117 68.5 189.5t173.5 72.5q110 0 167 -81zM294 85q67 0 108 47t41 122q0 76 -41 124t-108 48t-108 -47.5t-41 -122.5q0 -76 41 -123.5t108 -47.5z" />
    <glyph glyph-name="aacute.ss02" horiz-adv-x="533" 
d="M315 708h125l-123 -138h-82zM274 518q103 0 158.5 -48t55.5 -138v-332h-94l-9 73q-60 -79 -165 -79q-85 0 -136 40t-51 110q0 79 56.5 121.5t163.5 42.5h128v31q0 43 -29.5 67.5t-82.5 24.5q-47 0 -78 -20.5t-37 -54.5h-106q8 75 68.5 118.5t157.5 43.5zM238 78
q67 0 104.5 36t38.5 96v18h-134q-104 0 -104 -77q0 -33 25.5 -53t69.5 -20z" />
    <glyph glyph-name="abreve.ss01" horiz-adv-x="603" 
d="M293 567q-64 0 -103 38t-41 103h81q0 -29 18 -47.5t46 -18.5q29 0 47.5 18.5t18.5 47.5h81q-2 -64 -43 -102.5t-105 -38.5zM443 437l13 75h94v-512h-95l-12 78q-60 -84 -167 -84t-174.5 70.5t-67.5 191.5q0 117 68.5 189.5t173.5 72.5q110 0 167 -81zM294 85q67 0 108 47
t41 122q0 76 -41 124t-108 48t-108 -47.5t-41 -122.5q0 -76 41 -123.5t108 -47.5z" />
    <glyph glyph-name="abreve.ss02" horiz-adv-x="533" 
d="M272 567q-64 0 -103 38t-41 103h81q0 -29 18 -47.5t46 -18.5q29 0 47.5 18.5t18.5 47.5h81q-2 -64 -43 -102.5t-105 -38.5zM274 518q103 0 158.5 -48t55.5 -138v-332h-94l-9 73q-60 -79 -165 -79q-85 0 -136 40t-51 110q0 79 56.5 121.5t163.5 42.5h128v31
q0 43 -29.5 67.5t-82.5 24.5q-47 0 -78 -20.5t-37 -54.5h-106q8 75 68.5 118.5t157.5 43.5zM238 78q67 0 104.5 36t38.5 96v18h-134q-104 0 -104 -77q0 -33 25.5 -53t69.5 -20z" />
    <glyph glyph-name="acircumflex.ss01" horiz-adv-x="603" 
d="M370 569l-75 72l-76 -72h-101l127 139h100l127 -139h-102zM443 437l13 75h94v-512h-95l-12 78q-60 -84 -167 -84t-174.5 70.5t-67.5 191.5q0 117 68.5 189.5t173.5 72.5q110 0 167 -81zM294 85q67 0 108 47t41 122q0 76 -41 124t-108 48t-108 -47.5t-41 -122.5
q0 -76 41 -123.5t108 -47.5z" />
    <glyph glyph-name="acircumflex.ss02" horiz-adv-x="533" 
d="M349 569l-75 72l-76 -72h-101l127 139h100l127 -139h-102zM274 518q103 0 158.5 -48t55.5 -138v-332h-94l-9 73q-60 -79 -165 -79q-85 0 -136 40t-51 110q0 79 56.5 121.5t163.5 42.5h128v31q0 43 -29.5 67.5t-82.5 24.5q-47 0 -78 -20.5t-37 -54.5h-106q8 75 68.5 118.5
t157.5 43.5zM238 78q67 0 104.5 36t38.5 96v18h-134q-104 0 -104 -77q0 -33 25.5 -53t69.5 -20z" />
    <glyph glyph-name="adieresis.ss01" horiz-adv-x="603" 
d="M198 584q-26 0 -44 17.5t-18 43.5t18 43.5t44 17.5q28 0 45.5 -17.5t17.5 -43.5t-17.5 -43.5t-45.5 -17.5zM392 584q-26 0 -44.5 17.5t-18.5 43.5t18.5 43.5t44.5 17.5q27 0 44.5 -17.5t17.5 -43.5t-17.5 -43.5t-44.5 -17.5zM443 437l13 75h94v-512h-95l-12 78
q-60 -84 -167 -84t-174.5 70.5t-67.5 191.5q0 117 68.5 189.5t173.5 72.5q110 0 167 -81zM294 85q67 0 108 47t41 122q0 76 -41 124t-108 48t-108 -47.5t-41 -122.5q0 -76 41 -123.5t108 -47.5z" />
    <glyph glyph-name="adieresis.ss02" horiz-adv-x="533" 
d="M177 584q-26 0 -44 17.5t-18 43.5t18 43.5t44 17.5q28 0 45.5 -17.5t17.5 -43.5t-17.5 -43.5t-45.5 -17.5zM371 584q-26 0 -44.5 17.5t-18.5 43.5t18.5 43.5t44.5 17.5q27 0 44.5 -17.5t17.5 -43.5t-17.5 -43.5t-44.5 -17.5zM274 518q103 0 158.5 -48t55.5 -138v-332h-94
l-9 73q-60 -79 -165 -79q-85 0 -136 40t-51 110q0 79 56.5 121.5t163.5 42.5h128v31q0 43 -29.5 67.5t-82.5 24.5q-47 0 -78 -20.5t-37 -54.5h-106q8 75 68.5 118.5t157.5 43.5zM238 78q67 0 104.5 36t38.5 96v18h-134q-104 0 -104 -77q0 -33 25.5 -53t69.5 -20z" />
    <glyph glyph-name="agrave.ss01" horiz-adv-x="603" 
d="M257 708l77 -139h-83l-119 139h125zM443 437l13 75h94v-512h-95l-12 78q-60 -84 -167 -84t-174.5 70.5t-67.5 191.5q0 117 68.5 189.5t173.5 72.5q110 0 167 -81zM294 85q67 0 108 47t41 122q0 76 -41 124t-108 48t-108 -47.5t-41 -122.5q0 -76 41 -123.5t108 -47.5z" />
    <glyph glyph-name="agrave.ss02" horiz-adv-x="533" 
d="M236 708l77 -139h-83l-119 139h125zM274 518q103 0 158.5 -48t55.5 -138v-332h-94l-9 73q-60 -79 -165 -79q-85 0 -136 40t-51 110q0 79 56.5 121.5t163.5 42.5h128v31q0 43 -29.5 67.5t-82.5 24.5q-47 0 -78 -20.5t-37 -54.5h-106q8 75 68.5 118.5t157.5 43.5zM238 78
q67 0 104.5 36t38.5 96v18h-134q-104 0 -104 -77q0 -33 25.5 -53t69.5 -20z" />
    <glyph glyph-name="amacron.ss01" horiz-adv-x="603" 
d="M150 686h291v-79h-291v79zM443 437l13 75h94v-512h-95l-12 78q-60 -84 -167 -84t-174.5 70.5t-67.5 191.5q0 117 68.5 189.5t173.5 72.5q110 0 167 -81zM294 85q67 0 108 47t41 122q0 76 -41 124t-108 48t-108 -47.5t-41 -122.5q0 -76 41 -123.5t108 -47.5z" />
    <glyph glyph-name="amacron.ss02" horiz-adv-x="533" 
d="M129 686h291v-79h-291v79zM274 518q103 0 158.5 -48t55.5 -138v-332h-94l-9 73q-60 -79 -165 -79q-85 0 -136 40t-51 110q0 79 56.5 121.5t163.5 42.5h128v31q0 43 -29.5 67.5t-82.5 24.5q-47 0 -78 -20.5t-37 -54.5h-106q8 75 68.5 118.5t157.5 43.5zM238 78
q67 0 104.5 36t38.5 96v18h-134q-104 0 -104 -77q0 -33 25.5 -53t69.5 -20z" />
    <glyph glyph-name="aogonek.ss01" horiz-adv-x="603" 
d="M491 -125h64v-75h-83q-48 0 -78.5 24.5t-30.5 65.5q0 64 90 126l-10 62q-60 -84 -167 -84t-174.5 70.5t-67.5 191.5q0 117 68.5 189.5t173.5 72.5q110 0 167 -81l13 75h94v-512h1q-100 -50 -100 -93q0 -32 40 -32zM294 85q67 0 108 47t41 122q0 76 -41 124t-108 48
t-108 -47.5t-41 -122.5q0 -76 41 -123.5t108 -47.5z" />
    <glyph glyph-name="aogonek.ss02" horiz-adv-x="533" 
d="M428 -125h64v-75h-83q-48 0 -78.5 24.5t-30.5 65.5q0 64 92 128l-7 55q-60 -79 -165 -79q-85 0 -136 40t-51 110q0 79 56.5 121.5t163.5 42.5h128v31q0 43 -29.5 67.5t-82.5 24.5q-47 0 -78 -20.5t-37 -54.5h-106q8 75 68.5 118.5t157.5 43.5q103 0 158.5 -48t55.5 -138
v-332q-100 -50 -100 -93q0 -32 40 -32zM238 78q67 0 104.5 36t38.5 96v18h-134q-104 0 -104 -77q0 -33 25.5 -53t69.5 -20z" />
    <glyph glyph-name="aring.ss01" horiz-adv-x="603" 
d="M295 555q-51 0 -86.5 34t-35.5 83q0 47 35.5 81t86.5 34t86.5 -34t35.5 -81q0 -49 -35.5 -83t-86.5 -34zM295 733q-26 0 -43.5 -17.5t-17.5 -43.5q0 -27 17.5 -45t43.5 -18t43.5 18t17.5 45q0 26 -17.5 43.5t-43.5 17.5zM443 437l13 75h94v-512h-95l-12 78
q-60 -84 -167 -84t-174.5 70.5t-67.5 191.5q0 117 68.5 189.5t173.5 72.5q110 0 167 -81zM294 85q67 0 108 47t41 122q0 76 -41 124t-108 48t-108 -47.5t-41 -122.5q0 -76 41 -123.5t108 -47.5z" />
    <glyph glyph-name="aring.ss02" horiz-adv-x="533" 
d="M274 555q-51 0 -86.5 34t-35.5 83q0 47 35.5 81t86.5 34t86.5 -34t35.5 -81q0 -49 -35.5 -83t-86.5 -34zM274 733q-26 0 -43.5 -17.5t-17.5 -43.5q0 -27 17.5 -45t43.5 -18t43.5 18t17.5 45q0 26 -17.5 43.5t-43.5 17.5zM274 518q103 0 158.5 -48t55.5 -138v-332h-94
l-9 73q-60 -79 -165 -79q-85 0 -136 40t-51 110q0 79 56.5 121.5t163.5 42.5h128v31q0 43 -29.5 67.5t-82.5 24.5q-47 0 -78 -20.5t-37 -54.5h-106q8 75 68.5 118.5t157.5 43.5zM238 78q67 0 104.5 36t38.5 96v18h-134q-104 0 -104 -77q0 -33 25.5 -53t69.5 -20z" />
    <glyph glyph-name="atilde.ss01" horiz-adv-x="603" 
d="M246 634q-16 0 -24.5 -12.5t-8.5 -31.5h-69v16q0 42 26 71t66 29q35 0 64 -23.5t44 -23.5q16 0 24.5 13t8.5 32h68v-16q0 -43 -25.5 -72t-65.5 -29q-35 0 -64 23.5t-44 23.5zM443 437l13 75h94v-512h-95l-12 78q-60 -84 -167 -84t-174.5 70.5t-67.5 191.5
q0 117 68.5 189.5t173.5 72.5q110 0 167 -81zM294 85q67 0 108 47t41 122q0 76 -41 124t-108 48t-108 -47.5t-41 -122.5q0 -76 41 -123.5t108 -47.5z" />
    <glyph glyph-name="atilde.ss02" horiz-adv-x="533" 
d="M225 634q-16 0 -24.5 -12.5t-8.5 -31.5h-69v16q0 42 26 71t66 29q35 0 64 -23.5t44 -23.5q16 0 24.5 13t8.5 32h68v-16q0 -43 -25.5 -72t-65.5 -29q-35 0 -64 23.5t-44 23.5zM274 518q103 0 158.5 -48t55.5 -138v-332h-94l-9 73q-60 -79 -165 -79q-85 0 -136 40t-51 110
q0 79 56.5 121.5t163.5 42.5h128v31q0 43 -29.5 67.5t-82.5 24.5q-47 0 -78 -20.5t-37 -54.5h-106q8 75 68.5 118.5t157.5 43.5zM238 78q67 0 104.5 36t38.5 96v18h-134q-104 0 -104 -77q0 -33 25.5 -53t69.5 -20z" />
    <glyph glyph-name="f.ss05" horiz-adv-x="303" 
d="M53 0v560q0 140 143 140h103v-95h-89q-27 0 -38.5 -12t-11.5 -38v-43h138v-95h-137v-417h-108z" />
    <glyph glyph-name="i.ss03" horiz-adv-x="252" 
d="M146 583q-28 0 -47 18.5t-19 46.5t19 46.5t47 18.5t47 -18.5t19 -46.5t-19 -46.5t-47 -18.5zM90 0v417h-91v95h200v-512h-109z" />
    <glyph glyph-name="dotlessi.ss03" horiz-adv-x="252" 
d="M90 0v417h-91v95h200v-512h-109z" />
    <glyph glyph-name="iacute.ss03" horiz-adv-x="252" 
d="M189 569h-82l80 138h125zM90 0v417h-91v95h200v-512h-109z" />
    <glyph glyph-name="ibreve.ss03" horiz-adv-x="252" 
d="M0 707h81q0 -29 18 -47.5t46 -18.5q29 0 47.5 18.5t18.5 47.5h81q-2 -64 -43 -102.5t-105 -38.5t-103 38t-41 103zM90 0v417h-91v95h200v-512h-109z" />
    <glyph glyph-name="icircumflex.ss03" horiz-adv-x="252" 
d="M221 568l-75 72l-76 -72h-101l127 139h100l127 -139h-102zM90 0v417h-91v95h200v-512h-109z" />
    <glyph glyph-name="idieresis.ss03" horiz-adv-x="252" 
d="M-13 644q0 26 18 43.5t44 17.5q28 0 45.5 -17.5t17.5 -43.5t-17.5 -43.5t-45.5 -17.5q-26 0 -44 17.5t-18 43.5zM180 644q0 26 18.5 43.5t44.5 17.5q27 0 44.5 -17.5t17.5 -43.5t-17.5 -43.5t-44.5 -17.5q-26 0 -44.5 17.5t-18.5 43.5zM90 0v417h-91v95h200v-512h-109z
" />
    <glyph glyph-name="i.loclTRK" horiz-adv-x="214" 
d="M108 584q-28 0 -47 18.5t-19 46.5t19 46.5t47 18.5t47 -18.5t19 -46.5t-19 -46.5t-47 -18.5zM53 0v512h108v-512h-108z" />
    <glyph glyph-name="i.loclTRK.ss03" horiz-adv-x="252" 
d="M146 583q-28 0 -47 18.5t-19 46.5t19 46.5t47 18.5t47 -18.5t19 -46.5t-19 -46.5t-47 -18.5zM90 0v417h-91v95h200v-512h-109z" />
    <glyph glyph-name="igrave.ss03" horiz-adv-x="252" 
d="M102 568l-119 139h125l77 -139h-83zM90 0v417h-91v95h200v-512h-109z" />
    <glyph glyph-name="ij.ss03" horiz-adv-x="470" 
d="M108 584q-28 0 -47 18.5t-19 46.5t19 46.5t47 18.5t47 -18.5t19 -46.5t-19 -46.5t-47 -18.5zM364 584q-28 0 -47 18.5t-19 46.5t19 46.5t47 18.5t47 -18.5t19 -46.5t-19 -46.5t-47 -18.5zM53 0v512h108v-512h-108zM274 -200h-80v95h58q30 0 43 13.5t13 42.5v466h-96v95
h205v-569q0 -143 -143 -143z" />
    <glyph glyph-name="ij.ss04" horiz-adv-x="428" 
d="M108 584q-28 0 -47 18.5t-19 46.5t19 46.5t47 18.5t47 -18.5t19 -46.5t-19 -46.5t-47 -18.5zM322 584q-28 0 -47 18.5t-19 46.5t19 46.5t47 18.5t47 -18.5t19 -46.5t-19 -46.5t-47 -18.5zM53 0v512h108v-512h-108zM267 -200v712h108v-712h-108z" />
    <glyph glyph-name="imacron.ss03" horiz-adv-x="252" 
d="M292 606h-291v79h291v-79zM90 0v417h-91v95h200v-512h-109z" />
    <glyph glyph-name="iogonek.ss03" horiz-adv-x="252" 
d="M146 583q-28 0 -47 18.5t-19 46.5t19 46.5t47 18.5t47 -18.5t19 -46.5t-19 -46.5t-47 -18.5zM99 -93q0 -32 40 -32h64v-75h-83q-48 0 -78.5 24.5t-30.5 65.5q0 62 79 119v408h-91v95h200v-512q-100 -50 -100 -93z" />
    <glyph glyph-name="itilde.ss03" horiz-adv-x="252" 
d="M97 633q-16 0 -24.5 -12.5t-8.5 -31.5h-69v16q0 42 26 71t66 29q35 0 64 -23.5t44 -23.5q16 0 24.5 13t8.5 32h68v-16q0 -43 -25.5 -72t-65.5 -29q-35 0 -64 23.5t-44 23.5zM90 0v417h-91v95h200v-512h-109z" />
    <glyph glyph-name="j.short" horiz-adv-x="220" 
d="M112 584q-28 0 -47 18.5t-19 46.5t19 46.5t47 18.5t47 -18.5t19 -46.5t-19 -46.5t-47 -18.5zM-20 -200v95h25q28 0 41 13.5t13 42.5v561h108v-569q0 -143 -140 -143h-47z" />
    <glyph glyph-name="j.ss03" horiz-adv-x="256" 
d="M150 584q-28 0 -47 18.5t-19 46.5t19 46.5t47 18.5t47 -18.5t19 -46.5t-19 -46.5t-47 -18.5zM60 -200h-81v95h59q56 0 56 56v466h-96v95h205v-569q0 -143 -143 -143z" />
    <glyph glyph-name="j.ss04" horiz-adv-x="214" 
d="M108 584q-28 0 -47 18.5t-19 46.5t19 46.5t47 18.5t47 -18.5t19 -46.5t-19 -46.5t-47 -18.5zM53 -200v712h108v-712h-108z" />
    <glyph glyph-name="uni0237.short" horiz-adv-x="220" 
d="M-20 -200v95h25q28 0 41 13.5t13 42.5v561h108v-569q0 -143 -140 -143h-47z" />
    <glyph glyph-name="uni0237.ss03" horiz-adv-x="256" 
d="M60 -200h-81v95h59q56 0 56 56v466h-96v95h205v-569q0 -143 -143 -143z" />
    <glyph glyph-name="uni0237.ss04" horiz-adv-x="214" 
d="M53 -200v712h108v-712h-108z" />
    <glyph glyph-name="jcircumflex.short" horiz-adv-x="220" 
d="M187 569l-75 72l-76 -72h-101l127 139h100l127 -139h-102zM-20 -200v95h25q28 0 41 13.5t13 42.5v561h108v-569q0 -143 -140 -143h-47z" />
    <glyph glyph-name="jcircumflex.ss03" horiz-adv-x="256" 
d="M225 569l-75 72l-76 -72h-101l127 139h100l127 -139h-102zM60 -200h-81v95h59q56 0 56 56v466h-96v95h205v-569q0 -143 -143 -143z" />
    <glyph glyph-name="jcircumflex.ss04" horiz-adv-x="214" 
d="M183 569l-75 72l-76 -72h-101l127 139h100l127 -139h-102zM53 -200v712h108v-712h-108z" />
    <glyph glyph-name="t.ss05" horiz-adv-x="304" 
d="M45 139v516h108v-143h124v-95h-124v-267q0 -30 12 -42.5t41 -12.5h82v-95h-104q-73 0 -106 34t-33 105z" />
    <glyph glyph-name="t.ss06" horiz-adv-x="329" 
d="M1 417v95h90v143h108v-143h120v-95h-120v-417h-108v417h-90z" />
    <glyph glyph-name="tbar.ss05" horiz-adv-x="304" 
d="M277 512v-95h-124v-99h124v-84h-124v-84q0 -30 12 -42.5t41 -12.5h82v-95h-104q-73 0 -106 34t-33 105v516h108v-143h124z" />
    <glyph glyph-name="tbar.ss06" horiz-adv-x="344" 
d="M323 512v-95h-120v-108h120v-84h-120v-225h-109v225h-91v84h91v108h-91v95h91v143h109v-143h120z" />
    <glyph glyph-name="tcaron.ss05" horiz-adv-x="304" 
d="M196 562l38 147h102l-63 -147h-77zM45 139v516h108v-143h124v-95h-124v-267q0 -30 12 -42.5t41 -12.5h82v-95h-104q-73 0 -106 34t-33 105z" />
    <glyph glyph-name="tcaron.ss06" horiz-adv-x="329" 
d="M244 562l38 147h102l-63 -147h-77zM1 417v95h90v143h108v-143h120v-95h-120v-417h-108v417h-90z" />
    <glyph glyph-name="uni0163.ss05" horiz-adv-x="304" 
d="M288 95v-95h-91l-10 -37h9q41 0 66.5 -19.5t25.5 -55.5q0 -40 -27 -64t-72 -24h-103v58h85q35 0 35 29q0 26 -35 26h-57l22 92q-91 18 -91 134v516h108v-143h124v-95h-124v-267q0 -30 12 -42.5t41 -12.5h82z" />
    <glyph glyph-name="uni0163.ss06" horiz-adv-x="329" 
d="M199 417v-417h-23l-10 -37h9q41 0 66.5 -19.5t25.5 -55.5q0 -40 -27 -64t-72 -24h-103v58h85q35 0 35 29q0 26 -35 26h-57l21 87h-23v417h-90v95h90v143h108v-143h120v-95h-120z" />
    <glyph glyph-name="uni021B.ss05" horiz-adv-x="304" 
d="M45 139v516h108v-143h124v-95h-124v-267q0 -30 12 -42.5t41 -12.5h82v-95h-104q-73 0 -106 34t-33 105zM61 -194l49 144h107l-77 -144h-79z" />
    <glyph glyph-name="uni021B.ss06" horiz-adv-x="329" 
d="M1 417v95h90v143h108v-143h120v-95h-120v-417h-108v417h-90zM40 -194l49 144h107l-77 -144h-79z" />
    <glyph glyph-name="y.ss01" horiz-adv-x="565" 
d="M404 258v254h108v-503q0 -98 -60 -156.5t-183 -58.5q-98 0 -157.5 44.5t-66.5 128.5h110q20 -85 123 -85q60 0 93.5 33t33.5 94v69q-57 -80 -155 -80q-91 0 -147.5 54.5t-56.5 175.5v284h109v-273q0 -147 119 -147q61 0 95.5 44t34.5 122z" />
    <glyph glyph-name="yacute.ss01" horiz-adv-x="565" 
d="M320 708h125l-123 -138h-82zM404 258v254h108v-503q0 -98 -60 -156.5t-183 -58.5q-98 0 -157.5 44.5t-66.5 128.5h110q20 -85 123 -85q60 0 93.5 33t33.5 94v69q-57 -80 -155 -80q-91 0 -147.5 54.5t-56.5 175.5v284h109v-273q0 -147 119 -147q61 0 95.5 44t34.5 122z
" />
    <glyph glyph-name="ycircumflex.ss01" horiz-adv-x="565" 
d="M354 569l-75 72l-76 -72h-101l127 139h100l127 -139h-102zM404 258v254h108v-503q0 -98 -60 -156.5t-183 -58.5q-98 0 -157.5 44.5t-66.5 128.5h110q20 -85 123 -85q60 0 93.5 33t33.5 94v69q-57 -80 -155 -80q-91 0 -147.5 54.5t-56.5 175.5v284h109v-273
q0 -147 119 -147q61 0 95.5 44t34.5 122z" />
    <glyph glyph-name="ydieresis.ss01" horiz-adv-x="565" 
d="M182 584q-26 0 -44 17.5t-18 43.5t18 43.5t44 17.5q28 0 45.5 -17.5t17.5 -43.5t-17.5 -43.5t-45.5 -17.5zM376 584q-26 0 -44.5 17.5t-18.5 43.5t18.5 43.5t44.5 17.5q27 0 44.5 -17.5t17.5 -43.5t-17.5 -43.5t-44.5 -17.5zM404 258v254h108v-503q0 -98 -60 -156.5
t-183 -58.5q-98 0 -157.5 44.5t-66.5 128.5h110q20 -85 123 -85q60 0 93.5 33t33.5 94v69q-57 -80 -155 -80q-91 0 -147.5 54.5t-56.5 175.5v284h109v-273q0 -147 119 -147q61 0 95.5 44t34.5 122z" />
    <glyph glyph-name="ygrave.ss01" horiz-adv-x="565" 
d="M241 708l77 -139h-83l-119 139h125zM404 258v254h108v-503q0 -98 -60 -156.5t-183 -58.5q-98 0 -157.5 44.5t-66.5 128.5h110q20 -85 123 -85q60 0 93.5 33t33.5 94v69q-57 -80 -155 -80q-91 0 -147.5 54.5t-56.5 175.5v284h109v-273q0 -147 119 -147q61 0 95.5 44
t34.5 122z" />
    <glyph glyph-name="d_f.dlig" horiz-adv-x="906" 
d="M442 441v259h108v-700h-94l-13 77q-61 -83 -167 -83q-107 0 -174.5 70.5t-67.5 191.5q0 117 68.5 189.5t173.5 72.5q110 0 166 -77zM902 605h-89q-27 0 -38.5 -12t-11.5 -38v-43h138v-95h-137v-417h-108v560q0 140 143 140h103v-95zM294 85q67 0 108 47t41 122
q0 77 -41 124.5t-108 47.5t-108 -47.5t-41 -122.5q0 -76 41 -123.5t108 -47.5z" />
    <glyph glyph-name="d_f_f.dlig" horiz-adv-x="1209" 
d="M442 441v259h108v-700h-94l-13 77q-61 -83 -167 -83q-107 0 -174.5 70.5t-67.5 191.5q0 117 68.5 189.5t173.5 72.5q110 0 166 -77zM656 0v560q0 140 143 140h103v-95h-89q-27 0 -38.5 -12t-11.5 -38v-43h138v-95h-137v-417h-108zM1205 605h-89q-27 0 -38.5 -12
t-11.5 -38v-43h138v-95h-137v-417h-108v560q0 140 143 140h103v-95zM294 85q67 0 108 47t41 122q0 77 -41 124.5t-108 47.5t-108 -47.5t-41 -122.5q0 -76 41 -123.5t108 -47.5z" />
    <glyph glyph-name="d_t.dlig" horiz-adv-x="907" 
d="M442 441v259h108v-700h-94l-13 77q-61 -83 -167 -83q-107 0 -174.5 70.5t-67.5 191.5q0 117 68.5 189.5t173.5 72.5q110 0 166 -77zM809 95h82v-95h-104q-73 0 -106 34t-33 105v516h108v-143h124v-95h-124v-267q0 -30 12 -42.5t41 -12.5zM294 85q67 0 108 47t41 122
q0 77 -41 124.5t-108 47.5t-108 -47.5t-41 -122.5q0 -76 41 -123.5t108 -47.5z" />
    <glyph glyph-name="f_f.dlig" horiz-adv-x="642" 
d="M1 417v95h89v48q0 140 143 140h103v-95h-89q-26 0 -38 -12t-12 -38v-43h139v-95h-137v-417h-109v417h-89zM392 0v560q0 140 143 140h103v-95h-89q-27 0 -38.5 -12t-11.5 -38v-43h138v-95h-137v-417h-108z" />
    <glyph glyph-name="f_f_t.dlig" horiz-adv-x="946" 
d="M1 417v95h89v48q0 140 143 140h103v-95h-89q-26 0 -38 -12t-12 -38v-43h139v-95h-137v-417h-109v417h-89zM392 0v560q0 140 143 140h103v-95h-89q-27 0 -38.5 -12t-11.5 -38v-43h138v-95h-137v-417h-108zM687 139v516h108v-143h124v-95h-124v-267q0 -30 12 -42.5
t41 -12.5h82v-95h-104q-73 0 -106 34t-33 105z" />
    <glyph glyph-name="f_t.dlig" horiz-adv-x="643" 
d="M1 417v95h89v48q0 140 143 140h103v-95h-89q-26 0 -38 -12t-12 -38v-43h139v-95h-137v-417h-109v417h-89zM384 139v516h108v-143h124v-95h-124v-267q0 -30 12 -42.5t41 -12.5h82v-95h-104q-73 0 -106 34t-33 105z" />
    <glyph glyph-name="k_f.dlig" horiz-adv-x="834" 
d="M53 0v700h108v-436l232 248h127l-193 -207l205 -305h-128l-151 226l-92 -96v-130h-108zM584 0v560q0 140 143 140h103v-95h-89q-27 0 -38.5 -12t-11.5 -38v-43h138v-95h-137v-417h-108z" />
    <glyph glyph-name="k_t.dlig" horiz-adv-x="827" 
d="M53 0v700h108v-436l232 248h127l-193 -207l205 -305h-128l-151 226l-92 -96v-130h-108zM568 139v516h108v-143h124v-95h-124v-267q0 -30 12 -42.5t41 -12.5h82v-95h-104q-73 0 -106 34t-33 105z" />
    <glyph glyph-name="l_f.dlig" horiz-adv-x="517" 
d="M53 0v700h108v-700h-108zM267 0v560q0 140 143 140h103v-95h-89q-27 0 -38.5 -12t-11.5 -38v-43h138v-95h-137v-417h-108z" />
    <glyph glyph-name="l_f_f.dlig" horiz-adv-x="819" 
d="M53 0v700h108v-700h-108zM267 0v560q0 140 143 140h103v-95h-89q-27 0 -38.5 -12t-11.5 -38v-43h138v-95h-137v-417h-108zM570 0v560q0 140 143 140h103v-95h-89q-27 0 -38.5 -12t-11.5 -38v-43h138v-95h-137v-417h-108z" />
    <glyph glyph-name="l_t.dlig" horiz-adv-x="518" 
d="M53 0v700h108v-700h-108zM259 139v516h108v-143h124v-95h-124v-267q0 -30 12 -42.5t41 -12.5h82v-95h-104q-73 0 -106 34t-33 105z" />
    <glyph glyph-name="l_t_t.dlig" horiz-adv-x="822" 
d="M53 0v700h108v-700h-108zM259 139v516h108v-143h124v-95h-124v-267q0 -30 12 -42.5t41 -12.5h82v-95h-104q-73 0 -106 34t-33 105zM563 139v516h108v-143h124v-95h-124v-267q0 -30 12 -42.5t41 -12.5h82v-95h-104q-73 0 -106 34t-33 105z" />
    <glyph glyph-name="r_f.dlig" horiz-adv-x="653" 
d="M649 605h-89q-27 0 -38.5 -12t-11.5 -38v-43h138v-95h-137v-417h-108v560q0 140 143 140h103v-95zM149 512l12 -77q47 77 151 77h24v-101h-48q-67 0 -97 -43.5t-30 -110.5v-257h-108v512h96z" />
    <glyph glyph-name="r_t.dlig" horiz-adv-x="654" 
d="M556 95h82v-95h-104q-73 0 -106 34t-33 105v516h108v-143h124v-95h-124v-267q0 -30 12 -42.5t41 -12.5zM149 512l12 -77q47 77 151 77h24v-101h-48q-67 0 -97 -43.5t-30 -110.5v-257h-108v512h96z" />
    <glyph glyph-name="t_t.dlig" horiz-adv-x="650" 
d="M90 139v278h-89v95h89v143h109v-143h125v-95h-125v-267q0 -30 12 -42.5t43 -12.5h76v-95h-100q-73 0 -106.5 34t-33.5 105zM391 139v516h108v-143h124v-95h-124v-267q0 -30 12 -42.5t41 -12.5h82v-95h-104q-73 0 -106 34t-33 105z" />
    <glyph glyph-name="v_f.dlig" horiz-adv-x="817" 
d="M567 0v560q0 140 143 140h103v-95h-89q-27 0 -38.5 -12t-11.5 -38v-43h138v-95h-137v-417h-108zM191 0l-189 512h116l141 -396l139 396h114l-189 -512h-132z" />
    <glyph glyph-name="v_t.dlig" horiz-adv-x="818" 
d="M559 139v516h108v-143h124v-95h-124v-267q0 -30 12 -42.5t41 -12.5h82v-95h-104q-73 0 -106 34t-33 105zM191 0l-189 512h116l141 -396l139 396h114l-189 -512h-132z" />
    <glyph glyph-name="w_f.dlig" horiz-adv-x="1101" 
d="M851 0v560q0 140 143 140h103v-95h-89q-27 0 -38.5 -12t-11.5 -38v-43h138v-95h-137v-417h-108zM171 0l-167 512h114l117 -392l117 392h99l112 -392l121 392h110l-170 -512h-116l-108 348l-112 -348h-117z" />
    <glyph glyph-name="w_t.dlig" horiz-adv-x="1102" 
d="M843 139v516h108v-143h124v-95h-124v-267q0 -30 12 -42.5t41 -12.5h82v-95h-104q-73 0 -106 34t-33 105zM171 0l-167 512h114l117 -392l117 392h99l112 -392l121 392h110l-170 -512h-116l-108 348l-112 -348h-117z" />
    <glyph glyph-name="w_w_w.dlig" horiz-adv-x="2159" 
d="M1924 120l121 392h110l-170 -512h-116l-108 348l-113 -348h-116l-113 346l-114 -346h-117l-108 348l-112 -348h-117l-112 345l-115 -345h-116l-108 348l-112 -348h-117l-167 512h114l117 -392l117 392h99l112 -392l121 392h114l117 -392l118 392h98l112 -392l121 392h115
l117 -392l117 392h99z" />
    <glyph glyph-name="y_f.dlig" horiz-adv-x="819" 
d="M569 0v560q0 140 143 140h103v-95h-89q-27 0 -38.5 -12t-11.5 -38v-43h138v-95h-137v-417h-108zM201 -3l-199 515h115l143 -389l139 389h115l-232 -592q-26 -68 -51 -94t-78 -26h-116v95h76q31 0 43.5 10t24.5 42z" />
    <glyph glyph-name="y_t.dlig" horiz-adv-x="820" 
d="M561 139v516h108v-143h124v-95h-124v-267q0 -30 12 -42.5t41 -12.5h82v-95h-104q-73 0 -106 34t-33 105zM201 -3l-199 515h115l143 -389l139 389h115l-232 -592q-26 -68 -51 -94t-78 -26h-116v95h76q31 0 43.5 10t24.5 42z" />
    <glyph glyph-name="u1F10B.zero" horiz-adv-x="797" 
d="M398 706q156 0 258.5 -101t102.5 -255t-102.5 -255t-258.5 -101t-258.5 101t-102.5 255t102.5 255t258.5 101zM398 638q-122 0 -202 -81.5t-80 -206.5t80 -206.5t202 -81.5q123 0 203 81.5t80 206.5t-80 206.5t-203 81.5zM398 538q69 0 110 -51t41 -137t-41 -137
t-110 -51t-110 51t-41 137t41 137t110 51zM398 472q-35 0 -55.5 -33.5t-20.5 -88.5q0 -27 4 -43l124 136q-20 29 -52 29zM398 229q35 0 55.5 33t20.5 88q0 27 -4 44l-124 -138q21 -27 52 -27z" />
    <glyph glyph-name="uni2780.ss09" horiz-adv-x="797" 
d="M398 706q156 0 258.5 -101t102.5 -255t-102.5 -255t-258.5 -101t-258.5 101t-102.5 255t102.5 255t258.5 101zM398 638q-122 0 -202 -81.5t-80 -206.5t80 -206.5t202 -81.5q123 0 203 81.5t80 206.5t-80 206.5t-203 81.5zM442 532v-294h80v-70h-235v69h82v163
q-6 -8 -19 -8h-64v69h62q10 0 16.5 9.5t6.5 22.5v39h71z" />
    <glyph glyph-name="uni2783.ss10" horiz-adv-x="797" 
d="M398 706q156 0 258.5 -101t102.5 -255t-102.5 -255t-258.5 -101t-258.5 101t-102.5 255t102.5 255t258.5 101zM398 638q-122 0 -202 -81.5t-80 -206.5t80 -206.5t202 -81.5q123 0 203 81.5t80 206.5t-80 206.5t-203 81.5zM237 320l160 212h92v-364h-73v86h-179v66z
M416 320v138l-105 -138h105z" />
    <glyph glyph-name="uni2786.ss09" horiz-adv-x="797" 
d="M398 706q156 0 258.5 -101t102.5 -255t-102.5 -255t-258.5 -101t-258.5 101t-102.5 255t102.5 255t258.5 101zM398 638q-122 0 -202 -81.5t-80 -206.5t80 -206.5t202 -81.5q123 0 203 81.5t80 206.5t-80 206.5t-203 81.5zM267 532h272v-61l-153 -303h-80l152 299l-124 -1
v-51h-67v117z" />
    <glyph glyph-name="u1F10C.zero" horiz-adv-x="793" 
d="M396 706q-155 0 -257 -101t-102 -255t102 -255t257 -101t257 101t102 255t-102 255t-257 101zM396 538q69 0 110 -51t41 -137t-41 -137t-110 -51t-110 51t-41 137t41 137t110 51zM396 472q-35 0 -55.5 -33.5t-20.5 -88.5q0 -27 4 -43l124 136q-20 29 -52 29zM396 229
q35 0 55.5 33t20.5 88q0 27 -4 44l-124 -138q21 -27 52 -27z" />
    <glyph glyph-name="uni278A.ss09" horiz-adv-x="793" 
d="M396 706q-155 0 -257 -101t-102 -255t102 -255t257 -101t257 101t102 255t-102 255t-257 101zM440 532v-294h80v-70h-235v69h82v163q-6 -8 -19 -8h-64v69h62q10 0 16.5 9.5t6.5 22.5v39h71z" />
    <glyph glyph-name="uni278D.ss10" horiz-adv-x="793" 
d="M396 706q-155 0 -257 -101t-102 -255t102 -255t257 -101t257 101t102 255t-102 255t-257 101zM234 320l160 212h92v-364h-73v86h-179v66zM413 320v138l-105 -138h105z" />
    <glyph glyph-name="uni2790.ss09" horiz-adv-x="793" 
d="M396 706q-155 0 -257 -101t-102 -255t102 -255t257 -101t257 101t102 255t-102 255t-257 101zM265 532h272v-61l-153 -303h-80l152 299l-124 -1v-51h-67v117z" />
    <glyph glyph-name="zero.zero" horiz-adv-x="630" 
d="M315 706q123 0 199.5 -94t76.5 -246v-32q0 -156 -76 -248t-200 -92t-200 92t-76 248v32q0 152 76.5 246t199.5 94zM149 362v-24q0 -50 9 -91l283 289q-44 75 -126 75q-75 0 -120.5 -66.5t-45.5 -182.5zM481 338v24q0 51 -9 93l-283 -291q44 -75 126 -75q75 0 120.5 66
t45.5 183z" />
    <glyph glyph-name="one.ss09" horiz-adv-x="450" 
d="M292 700v-603h144v-97h-407v97h153v373q-14 -7 -36 -7h-119v95h106q25 0 38 18.5t13 46.5v77h108z" />
    <glyph glyph-name="four.ss10" horiz-adv-x="555" 
d="M13 259l336 441h141v-700h-111v161h-366v98zM379 259v331l-253 -331h253z" />
    <glyph glyph-name="seven.ss09" horiz-adv-x="541" 
d="M531 700v-74l-301 -626h-117l299 603h-291v-115h-96v212h506z" />
    <glyph glyph-name="zero.osf" horiz-adv-x="613" 
d="M306 -6q-118 0 -195 74t-77 188q0 113 77 187.5t195 74.5t195.5 -74.5t77.5 -187.5q0 -114 -77 -188t-196 -74zM306 87q70 0 116.5 48.5t46.5 120.5t-46.5 120.5t-116.5 48.5t-116 -48.5t-46 -120.5t46 -120.5t116 -48.5z" />
    <glyph glyph-name="zero.osf.zero" horiz-adv-x="613" 
d="M306 518q118 0 195.5 -74.5t77.5 -187.5q0 -114 -77 -188t-196 -74q-118 0 -195 74t-77 188q0 113 77 187.5t195 74.5zM306 426q-70 0 -116.5 -48.5t-46.5 -121.5q0 -51 23 -91l232 233q-39 28 -92 28zM306 86q70 0 117 48.5t47 121.5q0 49 -22 88l-230 -233
q39 -25 88 -25z" />
    <glyph glyph-name="one.osf" horiz-adv-x="309" 
d="M6 304v94h91q25 0 37.5 17.5t12.5 45.5v51h107v-512h-109v311q-20 -7 -49 -7h-90z" />
    <glyph glyph-name="one.osf.ss09" horiz-adv-x="426" 
d="M279 512v-420h134v-92h-389v92h147v221q-19 -8 -49 -8h-93v93h94q25 0 37.5 17.5t12.5 45.5v51h106z" />
    <glyph glyph-name="two.osf" horiz-adv-x="499" 
d="M325 167l-135 -75h282v-92h-449v88l224 129q56 32 80.5 57.5t24.5 63.5q0 41 -27.5 64.5t-77.5 23.5q-55 0 -87.5 -31.5t-32.5 -88.5h-106q0 96 62 154t167 58q99 0 156 -48.5t57 -129.5q0 -95 -138 -173z" />
    <glyph glyph-name="three.osf" horiz-adv-x="571" 
d="M408 176q126 -29 126 -162q0 -90 -69 -145t-183 -55q-121 0 -187.5 57.5t-67.5 165.5h107q1 -66 40.5 -99.5t108.5 -33.5q62 0 101 31t39 83q0 50 -35.5 77.5t-99.5 27.5h-64v93h56q59 0 95.5 29t36.5 74q-1 50 -37 79.5t-93 29.5q-60 0 -98.5 -36.5t-40.5 -92.5h-106
q2 96 70 157.5t177 61.5t173.5 -52.5t64.5 -137.5q0 -59 -31 -98t-83 -54z" />
    <glyph glyph-name="four.osf" horiz-adv-x="572" 
d="M13 94l320 418h136v-418h90v-94h-90v-180h-106v180h-350v94zM363 94v309l-235 -309h235z" />
    <glyph glyph-name="four.osf.ss10" horiz-adv-x="529" 
d="M13 94l323 418h138v-692h-107v180h-354v94zM367 94v312l-239 -312h239z" />
    <glyph glyph-name="five.osf" horiz-adv-x="561" 
d="M306 282q102 0 166 -64.5t64 -168.5q0 -111 -72 -173t-178 -62q-110 0 -177 61.5t-72 155.5h108q5 -53 43.5 -89t97.5 -36q60 0 99.5 38.5t39.5 103.5q0 62 -38.5 102t-100.5 40q-94 0 -132 -85l-107 1l22 406h424v-95h-329l-12 -194q56 59 154 59z" />
    <glyph glyph-name="six.osf" horiz-adv-x="585" 
d="M302 -6q-134 0 -206 107q-62 90 -62 241q0 165 71 258.5t203 93.5q102 0 163.5 -51.5t73.5 -143.5h-108q-27 103 -133 103q-82 0 -124 -59t-42 -164q0 -16 1 -27l7 13q56 88 177 88q104 0 166 -63t62 -165q0 -103 -70 -167t-179 -64zM304 84q61 0 99 39t38 101t-36.5 101
t-98.5 39t-100.5 -39t-38.5 -100q0 -63 37.5 -102t99.5 -39z" />
    <glyph glyph-name="seven.osf" horiz-adv-x="511" 
d="M13 417v95h482v-91l-309 -601h-120l308 597h-361z" />
    <glyph glyph-name="seven.osf.ss09" horiz-adv-x="529" 
d="M21 300v212h493v-91l-302 -601h-120l301 596h-274v-116h-98z" />
    <glyph glyph-name="eight.osf" horiz-adv-x="590" 
d="M416 359q60 -15 98.5 -58t38.5 -114q0 -86 -69 -139.5t-189 -53.5t-189 53.5t-69 139.5q0 70 38.5 112.5t98.5 57.5q-50 16 -83.5 55.5t-33.5 100.5q0 81 64 131t174 50q109 0 173.5 -50t64.5 -131q0 -58 -33.5 -98.5t-83.5 -55.5zM295 615q-57 0 -93 -29.5t-36 -75.5
q0 -47 36 -76.5t93 -29.5t93 29.5t36 76.5q0 46 -36 75.5t-93 29.5zM295 75q66 0 107 33.5t41 85.5t-41 86t-107 34t-107 -34t-41 -86t41 -85.5t107 -33.5z" />
    <glyph glyph-name="nine.osf" horiz-adv-x="585" 
d="M277 -186q-102 0 -163.5 52t-73.5 144h108q13 -48 46.5 -76t86.5 -28q81 0 123.5 60.5t42.5 165.5q0 17 -1 28q-3 -7 -8 -14q-55 -89 -176 -89q-104 0 -166 64t-62 166q0 103 70 167t179 64q134 0 206 -107q62 -90 62 -242q0 -166 -71 -260.5t-203 -94.5zM279 148
q62 0 100.5 39t38.5 100q0 62 -38 101.5t-99 39.5t-99 -39.5t-38 -100.5q0 -62 36.5 -101t98.5 -39z" />
    <glyph glyph-name="zero.tf" 
d="M300 -6q-120 0 -191.5 94.5t-71.5 245.5v32q0 151 71.5 245.5t191.5 94.5t191.5 -94.5t71.5 -245.5v-32q0 -151 -71.5 -245.5t-191.5 -94.5zM300 89q72 0 112.5 69t40.5 180v24q0 112 -40.5 180.5t-112.5 68.5t-112.5 -68.5t-40.5 -180.5v-24q0 -111 40.5 -180t112.5 -69
z" />
    <glyph glyph-name="zero.tf.zero" 
d="M300 706q120 0 191.5 -94.5t71.5 -245.5v-32q0 -151 -71.5 -245.5t-191.5 -94.5t-191.5 94.5t-71.5 245.5v32q0 151 71.5 245.5t191.5 94.5zM146 362v-24q0 -46 8 -91l269 279q-42 88 -123 88q-73 0 -113.5 -69t-40.5 -183zM454 338v24q0 48 -7 84l-267 -278
q41 -81 120 -81q73 0 113.5 69t40.5 182z" />
    <glyph glyph-name="one.tf" 
d="M370 700v-603h176v-97h-466v97h180v374q-14 -7 -36 -7h-123v94h111q24 0 37 18.5t13 46.5v77h108z" />
    <glyph glyph-name="two.tf" 
d="M42 0v89l269 229q55 46 82.5 84.5t27.5 84.5q0 59 -36 91.5t-97 32.5q-60 0 -97 -38t-37 -103v-12h-111v18q0 101 67.5 165.5t177.5 64.5q116 0 181 -58t65 -156q0 -71 -37 -124.5t-111 -115.5l-187 -155h339v-97h-496z" />
    <glyph glyph-name="three.tf" 
d="M412 364q58 -12 95.5 -53.5t37.5 -114.5q0 -91 -70.5 -146.5t-188.5 -55.5q-120 0 -189.5 60t-69.5 167h109q1 -63 44.5 -99t111.5 -36q61 0 100.5 32t39.5 85q0 50 -38 78.5t-109 28.5h-65v92h58q67 0 102.5 30t35.5 80q0 47 -37 74.5t-93 27.5q-60 0 -98.5 -33.5
t-39.5 -87.5h-108q1 94 69.5 153.5t177.5 59.5q112 0 177 -51t65 -136q0 -62 -32 -101.5t-85 -53.5z" />
    <glyph glyph-name="four.tf" 
d="M21 162v94l329 444h130v-442h98v-96h-98v-162h-110v162h-349zM370 579l-235 -321h235v321z" />
    <glyph glyph-name="four.tf.ss10" 
d="M30 259l336 441h141v-700h-110v161h-367v98zM397 259v331l-254 -331h254z" />
    <glyph glyph-name="five.tf" 
d="M319 472q104 0 168.5 -65.5t64.5 -171.5q0 -113 -72.5 -176.5t-181.5 -63.5q-115 0 -184.5 64.5t-74.5 161.5h109q6 -57 46.5 -95t104.5 -38q58 0 99.5 39t41.5 108q0 64 -38.5 105t-102.5 41q-41 0 -81.5 -19t-59.5 -67l-107 2l22 403h437v-97h-336l-12 -190
q55 59 157 59z" />
    <glyph glyph-name="six.tf" 
d="M98 107q-58 94 -58 236q0 171 73 267t202 96q97 0 161 -53t77 -145h-110q-12 50 -46.5 78t-88.5 28q-79 0 -123 -65t-44 -176v-27q0 1 3 7l5 10q25 47 71.5 74t108.5 27q105 0 170 -64.5t65 -170.5q0 -103 -69.5 -169t-180.5 -66q-143 0 -216 113zM454 229
q0 63 -38 103.5t-100 40.5q-64 0 -103.5 -40.5t-39.5 -104.5q0 -63 38.5 -103t101.5 -40t102 40.5t39 103.5z" />
    <glyph glyph-name="seven.tf" 
d="M44 603v97h502v-74l-328 -626h-119l326 603h-381z" />
    <glyph glyph-name="seven.tf.ss09" 
d="M560 700v-74l-300 -626h-117l299 603h-291v-115h-96v212h505z" />
    <glyph glyph-name="eight.tf" 
d="M423 364q60 -13 100 -58t40 -115q0 -88 -70.5 -142.5t-192.5 -54.5t-192.5 54.5t-70.5 142.5q0 69 39.5 113.5t100.5 58.5q-51 13 -85.5 54.5t-34.5 102.5q0 83 66 134.5t177 51.5t177 -51.5t66 -134.5q0 -59 -34.5 -101.5t-85.5 -54.5zM300 620q-59 0 -95 -28.5
t-36 -74.5q0 -47 36 -75.5t95 -28.5q60 0 95.5 28.5t35.5 75.5q0 46 -35.5 74.5t-95.5 28.5zM300 79q66 0 108 33.5t42 84.5t-42 84t-108 33t-108 -33t-42 -84t42 -84.5t108 -33.5z" />
    <glyph glyph-name="nine.tf" 
d="M285 -6q-97 0 -161 53t-77 145h110q12 -50 46.5 -78t88.5 -28q79 0 123 65t44 176v27q0 -1 -3 -7l-5 -10q-25 -47 -71.5 -74t-108.5 -27q-105 0 -170 64.5t-65 170.5q0 103 69.5 169t180.5 66q143 0 216 -113q58 -94 58 -236q0 -171 -73 -267t-202 -96zM284 327
q64 0 103.5 40.5t39.5 104.5q0 63 -38.5 103t-101.5 40t-102 -40.5t-39 -103.5t38 -103.5t100 -40.5z" />
    <glyph glyph-name="zero.tosf" 
d="M300 -6q-115 0 -190 74t-75 187q0 114 75 188t190 74t190 -74t75 -188q0 -113 -75 -187t-190 -74zM300 87q67 0 111.5 48t44.5 120t-44.5 120.5t-111.5 48.5t-111.5 -48.5t-44.5 -120.5t44.5 -120t111.5 -48z" />
    <glyph glyph-name="zero.tosf.zero" 
d="M300 517q115 0 190 -74t75 -188q0 -113 -75 -187t-190 -74t-190 74t-75 187q0 114 75 188t190 74zM300 425q-67 0 -112 -48.5t-45 -121.5q0 -47 20 -85l226 227q-39 28 -89 28zM300 86q68 0 112.5 48t44.5 121q0 48 -20 86l-225 -228q40 -27 88 -27z" />
    <glyph glyph-name="one.tosf" 
d="M373 512v-420h182v-92h-471v92h181v220q-21 -9 -49 -9h-119v94h120q25 0 37.5 17.5t12.5 45.5v52h106z" />
    <glyph glyph-name="two.tosf" 
d="M377 167l-135 -75h282v-92h-449v88l223 129q56 32 81 57.5t25 63.5q0 41 -28 64.5t-77 23.5q-55 0 -87.5 -31.5t-32.5 -88.5h-106q0 96 62 154t166 58q99 0 156 -48.5t57 -129.5q0 -95 -137 -173z" />
    <glyph glyph-name="three.tosf" 
d="M419 176q58 -12 95.5 -53.5t37.5 -114.5q0 -91 -70.5 -146.5t-188.5 -55.5q-120 0 -189.5 60t-69.5 167h109q1 -63 44.5 -99t111.5 -36q61 0 101 32t40 85q0 50 -38.5 78.5t-109.5 28.5h-65v92h58q67 0 103 30t36 80q0 47 -37.5 74.5t-93.5 27.5q-60 0 -98.5 -33.5
t-39.5 -87.5h-108q1 94 69.5 153.5t177.5 59.5q112 0 177 -51t65 -136q0 -62 -32 -101.5t-85 -53.5z" />
    <glyph glyph-name="four.tosf" 
d="M19 94l321 418h136v-418h90v-94h-90v-180h-106v180h-351v94zM370 94v309l-236 -309h236z" />
    <glyph glyph-name="four.tosf.ss10" 
d="M30 71l336 441h141v-700h-110v161h-367v98zM397 71v331l-254 -331h254z" />
    <glyph glyph-name="five.tosf" 
d="M332 283q102 0 166 -64.5t64 -168.5q0 -111 -72 -173t-178 -62q-110 0 -177 61.5t-72 154.5h108q5 -53 43.5 -89t98.5 -36q59 0 98.5 39t39.5 104q0 62 -38 102t-100 40q-94 0 -133 -85l-107 1l22 405h424v-95h-329l-12 -193q56 59 154 59z" />
    <glyph glyph-name="six.tosf" 
d="M310 -6q-133 0 -205 107q-63 89 -63 241q0 165 71 258.5t203 93.5q102 0 163.5 -51.5t74.5 -143.5h-109q-27 103 -133 103q-81 0 -123.5 -59.5t-42.5 -163.5q0 -16 1 -27l7 13q58 88 178 88q103 0 165 -63t62 -165q0 -103 -70 -167t-179 -64zM312 84q62 0 99.5 39
t37.5 101t-36.5 101t-97.5 39q-63 0 -101.5 -39t-38.5 -100q0 -62 38 -101.5t99 -39.5z" />
    <glyph glyph-name="seven.tosf" 
d="M45 417v95h482v-91l-309 -601h-120l308 597h-361z" />
    <glyph glyph-name="seven.tosf.ss09" 
d="M53 300v212h492v-91l-302 -601h-119l301 596h-275v-116h-97z" />
    <glyph glyph-name="eight.tosf" 
d="M422 359q60 -15 98.5 -58t38.5 -114q0 -86 -69 -139.5t-189 -53.5q-121 0 -190 53.5t-69 139.5q0 70 38.5 112.5t98.5 57.5q-50 16 -83.5 55.5t-33.5 100.5q0 81 64.5 131t174.5 50q109 0 173.5 -50t64.5 -131q0 -58 -33.5 -98.5t-83.5 -55.5zM301 615q-58 0 -94 -29
t-36 -76t36 -76.5t94 -29.5q57 0 93 29.5t36 76.5q0 46 -36.5 75.5t-92.5 29.5zM301 75q66 0 106.5 33.5t40.5 85.5t-41 86t-106 34q-67 0 -107.5 -34t-40.5 -86t40.5 -85.5t107.5 -33.5z" />
    <glyph glyph-name="nine.tosf" 
d="M280 -186q-102 0 -163.5 52t-73.5 144h108q13 -48 46.5 -76t86.5 -28q82 0 124 60t42 166q0 17 -1 28q-3 -7 -8 -14q-55 -89 -176 -89q-103 0 -165.5 64t-62.5 166q0 103 70 167t180 64q133 0 205 -107q62 -90 62 -242q0 -166 -71 -260.5t-203 -94.5zM282 148
q62 0 101 39t39 100q0 62 -38 101.5t-100 39.5q-61 0 -99 -39.5t-38 -100.5q0 -62 36.5 -101t98.5 -39z" />
    <glyph glyph-name="uni2080.zero" horiz-adv-x="342" 
d="M171 270q69 0 110 -51t41 -137t-41 -137t-110 -51t-110 51t-41 137t41 137t110 51zM171 204q-35 0 -55.5 -33.5t-20.5 -88.5q0 -27 4 -43l124 136q-20 29 -52 29zM171 -39q35 0 55.5 33t20.5 88q0 27 -4 44l-124 -138q21 -27 52 -27z" />
    <glyph glyph-name="uni2081.ss09" horiz-adv-x="236" 
d="M156 264v-294h80v-70h-235v69h82v163q-6 -8 -19 -8h-64v69h62q10 0 16.5 9.5t6.5 22.5v39h71z" />
    <glyph glyph-name="uni2084.ss10" horiz-adv-x="321" 
d="M19 52l160 212h92v-364h-73v86h-179v66zM198 52v138l-105 -138h105z" />
    <glyph glyph-name="uni2087.ss09" horiz-adv-x="305" 
d="M19 264h272v-61l-153 -303h-80l152 299l-124 -1v-51h-67v117z" />
    <glyph glyph-name="zero.dnom" horiz-adv-x="342" 
d="M20 182q0 86 41 137t110 51t110 -51t41 -137t-41 -137t-110 -51t-110 51t-41 137zM246 182q0 55 -20 88t-55 33t-55 -33t-20 -88t20 -87.5t55 -32.5t55 32.5t20 87.5z" />
    <glyph glyph-name="zero.dnom.zero" horiz-adv-x="342" 
d="M171 370q69 0 110 -51t41 -137t-41 -137t-110 -51t-110 51t-41 137t41 137t110 51zM171 304q-35 0 -55.5 -33.5t-20.5 -88.5q0 -27 4 -43l124 136q-20 29 -52 29zM171 61q35 0 55.5 33t20.5 88q0 27 -4 44l-124 -138q21 -27 52 -27z" />
    <glyph glyph-name="one.dnom" horiz-adv-x="213" 
d="M92 325v39h71v-364h-73v232q-6 -8 -19 -8h-64v69h62q10 0 16.5 9.5t6.5 22.5z" />
    <glyph glyph-name="one.dnom.ss09" horiz-adv-x="236" 
d="M156 364v-294h80v-70h-235v69h82v163q-6 -8 -19 -8h-64v69h62q10 0 16.5 9.5t6.5 22.5v39h71z" />
    <glyph glyph-name="two.dnom" horiz-adv-x="320" 
d="M94 232h-73v7q0 59 39 95t97 36q63 0 101 -32.5t38 -85.5q0 -36 -18 -61.5t-52 -51.5l-91 -70h164v-69h-276v65l147 109q49 38 49 76q0 24 -17 38.5t-44 14.5q-29 0 -46.5 -17.5t-17.5 -49.5v-4z" />
    <glyph glyph-name="three.dnom" horiz-adv-x="330" 
d="M102 252h-74q1 55 38 86.5t99 31.5t98.5 -28t36.5 -74q0 -30 -17.5 -49.5t-43.5 -26.5q32 -6 50.5 -28t18.5 -55q0 -53 -39 -84t-107 -31q-69 0 -106 32.5t-38 92.5h74q1 -28 19.5 -44t50.5 -16q30 0 49 14t19 38q0 50 -69 50h-24v49h22q29 0 47 13t18 35q0 21 -16 34
t-43 13q-28 0 -45 -14.5t-18 -38.5z" />
    <glyph glyph-name="four.dnom" horiz-adv-x="346" 
d="M19 151l160 213h92v-214h56v-65h-56v-85h-73v85h-179v66zM198 150v142l-107 -142h107z" />
    <glyph glyph-name="four.dnom.ss10" horiz-adv-x="321" 
d="M19 152l160 212h92v-364h-73v86h-179v66zM198 152v138l-105 -138h105z" />
    <glyph glyph-name="five.dnom" horiz-adv-x="316" 
d="M39 364h235v-65h-177l-6 -87q31 34 82 34q54 0 87.5 -34.5t33.5 -89.5q0 -58 -37.5 -93t-97.5 -35q-56 0 -93.5 31t-41.5 82h73q4 -21 21 -33.5t42 -12.5q26 0 42.5 17t16.5 44q0 28 -16.5 44.5t-43.5 16.5q-41 1 -60 -34h-70z" />
    <glyph glyph-name="six.dnom" horiz-adv-x="326" 
d="M19 176q0 88 42.5 141t112.5 53q50 0 86.5 -29t43.5 -80h-71q-4 23 -21.5 37t-41.5 14q-36 0 -58.5 -32t-22.5 -81v-24q8 26 31 43.5t61 17.5q57 0 91.5 -33t34.5 -87q0 -55 -37.5 -88.5t-99.5 -33.5q-73 0 -112 49.5t-39 132.5zM234 116q0 28 -18 45.5t-46 17.5
q-29 0 -47 -17t-18 -45t18 -45.5t47 -17.5t46.5 17t17.5 45z" />
    <glyph glyph-name="seven.dnom" horiz-adv-x="286" 
d="M6 298v66h266v-61l-152 -303h-81l152 299z" />
    <glyph glyph-name="seven.dnom.ss09" horiz-adv-x="305" 
d="M19 364h272v-61l-153 -303h-80l152 299l-124 -1v-51h-67v117z" />
    <glyph glyph-name="eight.dnom" horiz-adv-x="332" 
d="M20 99q0 33 19 57t53 34q-60 22 -60 82q0 43 37 70.5t98 27.5q60 0 97.5 -27.5t37.5 -70.5q0 -58 -59 -82q69 -20 69 -91q0 -46 -39 -75.5t-106 -29.5q-66 0 -106.5 29.5t-40.5 75.5zM229 263q0 22 -17.5 36t-44.5 14t-44.5 -14t-17.5 -36t17.5 -35.5t44.5 -13.5
t44.5 13.5t17.5 35.5zM237 106q0 23 -20 38.5t-50 15.5t-50.5 -15.5t-20.5 -38.5t20 -38t51 -15q30 0 50 15t20 38z" />
    <glyph glyph-name="nine.dnom" horiz-adv-x="326" 
d="M307 188q0 -88 -42 -141t-112 -53q-51 0 -87 29t-44 80h71q12 -51 63 -51q37 0 59.5 31t22.5 82v24q-20 -61 -92 -61q-58 0 -92.5 33t-34.5 87q0 56 37.5 89t100.5 33q72 0 111 -49.5t39 -132.5zM93 248q0 -28 17.5 -45.5t46.5 -17.5t46.5 17t17.5 45t-17.5 45.5
t-46.5 17.5t-46.5 -17t-17.5 -45z" />
    <glyph glyph-name="zero.numr" horiz-adv-x="342" 
d="M20 519q0 86 41 137t110 51t110 -51t41 -137t-41 -137t-110 -51t-110 51t-41 137zM246 519q0 55 -20 88t-55 33t-55 -33t-20 -88t20 -87.5t55 -32.5t55 32.5t20 87.5z" />
    <glyph glyph-name="zero.numr.zero" horiz-adv-x="342" 
d="M171 707q69 0 110 -51t41 -137t-41 -137t-110 -51t-110 51t-41 137t41 137t110 51zM171 641q-35 0 -55.5 -33.5t-20.5 -88.5q0 -27 4 -43l124 136q-20 29 -52 29zM171 398q35 0 55.5 33t20.5 88q0 27 -4 44l-124 -138q21 -27 52 -27z" />
    <glyph glyph-name="one.numr" horiz-adv-x="213" 
d="M92 662v39h71v-364h-73v232q-6 -8 -19 -8h-64v69h62q10 0 16.5 9.5t6.5 22.5z" />
    <glyph glyph-name="one.numr.ss09" horiz-adv-x="236" 
d="M156 700v-294h80v-70h-235v69h82v163q-6 -8 -19 -8h-64v69h62q10 0 16.5 9.5t6.5 22.5v39h71z" />
    <glyph glyph-name="two.numr" horiz-adv-x="320" 
d="M94 568h-73v7q0 59 39 95t97 36q63 0 101 -32.5t38 -85.5q0 -36 -18 -61.5t-52 -51.5l-91 -70h164v-69h-276v65l147 109q49 38 49 76q0 24 -17 38.5t-44 14.5q-29 0 -46.5 -17.5t-17.5 -49.5v-4z" />
    <glyph glyph-name="three.numr" horiz-adv-x="330" 
d="M102 590h-74q1 55 38 86.5t99 31.5t98.5 -28t36.5 -74q0 -30 -17.5 -49.5t-43.5 -26.5q32 -6 50.5 -28t18.5 -55q0 -53 -39 -84t-107 -31q-69 0 -106 32.5t-38 92.5h74q1 -28 19.5 -44t50.5 -16q30 0 49 14t19 38q0 50 -69 50h-24v49h22q29 0 47 13t18 35q0 21 -16 34
t-43 13q-28 0 -45 -14.5t-18 -38.5z" />
    <glyph glyph-name="four.numr" horiz-adv-x="346" 
d="M19 487l160 213h92v-214h56v-65h-56v-85h-73v85h-179v66zM198 486v142l-107 -142h107z" />
    <glyph glyph-name="four.numr.ss10" horiz-adv-x="321" 
d="M19 488l160 212h92v-364h-73v86h-179v66zM198 488v138l-105 -138h105z" />
    <glyph glyph-name="five.numr" horiz-adv-x="316" 
d="M39 700h235v-65h-177l-6 -87q31 34 82 34q54 0 87.5 -34.5t33.5 -89.5q0 -58 -37.5 -93t-97.5 -35q-56 0 -93.5 31t-41.5 82h73q4 -21 21 -33.5t42 -12.5q26 0 42.5 17t16.5 44q0 28 -16.5 44.5t-43.5 16.5q-41 1 -60 -34h-70z" />
    <glyph glyph-name="six.numr" horiz-adv-x="326" 
d="M19 513q0 88 42.5 141t112.5 53q50 0 86.5 -29t43.5 -80h-71q-4 23 -21.5 37t-41.5 14q-36 0 -58.5 -32t-22.5 -81v-24q8 26 31 43.5t61 17.5q57 0 91.5 -33t34.5 -87q0 -55 -37.5 -88.5t-99.5 -33.5q-73 0 -112 49.5t-39 132.5zM234 453q0 28 -18 45.5t-46 17.5
q-29 0 -47 -17t-18 -45t18 -45.5t47 -17.5t46.5 17t17.5 45z" />
    <glyph glyph-name="seven.numr" horiz-adv-x="286" 
d="M6 633v66h266v-61l-152 -303h-81l152 299z" />
    <glyph glyph-name="seven.numr.ss09" horiz-adv-x="305" 
d="M19 699h272v-61l-153 -303h-80l152 299l-124 -1v-51h-67v117z" />
    <glyph glyph-name="eight.numr" horiz-adv-x="332" 
d="M20 436q0 33 19 57t53 34q-60 22 -60 82q0 43 37 70.5t98 27.5q60 0 97.5 -27.5t37.5 -70.5q0 -58 -59 -82q69 -20 69 -91q0 -46 -39 -75.5t-106 -29.5q-66 0 -106.5 29.5t-40.5 75.5zM229 600q0 22 -17.5 36t-44.5 14t-44.5 -14t-17.5 -36t17.5 -35.5t44.5 -13.5
t44.5 13.5t17.5 35.5zM237 443q0 23 -20 38.5t-50 15.5t-50.5 -15.5t-20.5 -38.5t20 -38t51 -15q30 0 50 15t20 38z" />
    <glyph glyph-name="nine.numr" horiz-adv-x="326" 
d="M307 525q0 -88 -42 -141t-112 -53q-51 0 -87 29t-44 80h71q12 -51 63 -51q37 0 59.5 31t22.5 82v24q-20 -61 -92 -61q-58 0 -92.5 33t-34.5 87q0 56 37.5 89t100.5 33q72 0 111 -49.5t39 -132.5zM93 585q0 -28 17.5 -45.5t46.5 -17.5t46.5 17t17.5 45t-17.5 45.5
t-46.5 17.5t-46.5 -17t-17.5 -45z" />
    <glyph glyph-name="uni2070.zero" horiz-adv-x="342" 
d="M171 807q69 0 110 -51t41 -137t-41 -137t-110 -51t-110 51t-41 137t41 137t110 51zM171 741q-35 0 -55.5 -33.5t-20.5 -88.5q0 -27 4 -43l124 136q-20 29 -52 29zM171 498q35 0 55.5 33t20.5 88q0 27 -4 44l-124 -138q21 -27 52 -27z" />
    <glyph glyph-name="uni00B9.ss09" horiz-adv-x="236" 
d="M156 800v-294h80v-70h-235v69h82v163q-6 -8 -19 -8h-64v69h62q10 0 16.5 9.5t6.5 22.5v39h71z" />
    <glyph glyph-name="uni2074.ss10" horiz-adv-x="321" 
d="M19 588l160 212h92v-364h-73v86h-179v66zM198 588v138l-105 -138h105z" />
    <glyph glyph-name="uni2077.ss09" horiz-adv-x="305" 
d="M19 800h272v-61l-153 -303h-80l152 299l-124 -1v-51h-67v117z" />
    <glyph glyph-name="colon.case" horiz-adv-x="224" 
d="M43 456q0 30 19.5 49t49.5 19t50 -19t20 -49t-20 -49t-50 -19t-49.5 19t-19.5 49zM43 93q0 30 19.5 49t49.5 19t50 -19t20 -49t-20 -49t-50 -19t-49.5 19t-19.5 49z" />
    <glyph glyph-name="semicolon.case" horiz-adv-x="224" 
d="M39 462q0 31 19.5 50t49.5 19t50 -19.5t20 -49.5t-20 -49t-50 -19t-49.5 19t-19.5 49zM103 166q41 0 65.5 -32.5t24.5 -82.5q0 -72 -43 -111.5t-118 -41.5v59q44 1 66 23t22 52q0 9 -1 13q-13 -10 -33 -10q-26 0 -42.5 16.5t-16.5 46.5t21 49t55 19z" />
    <glyph glyph-name="periodcentered.case" horiz-adv-x="264" 
d="M63 349q0 30 19.5 49t49.5 19t50 -19t20 -49t-20 -49t-50 -19t-49.5 19t-19.5 49z" />
    <glyph glyph-name="bar.case" horiz-adv-x="242" 
d="M64 0v700h114v-700h-114z" />
    <glyph glyph-name="brokenbar.case" horiz-adv-x="242" 
d="M64 383v317h114v-317h-114zM64 0v313h114v-313h-114z" />
    <glyph glyph-name="slash.case" horiz-adv-x="343" 
d="M1 0l232 700h108l-231 -700h-109z" />
    <glyph glyph-name="backslash.case" horiz-adv-x="343" 
d="M1 700h109l231 -700h-109z" />
    <glyph glyph-name="parenleft.case" horiz-adv-x="277" 
d="M47 350q0 96 27 189t70 161h112q-102 -148 -102 -350q0 -95 26.5 -187t75.5 -163h-112q-43 67 -70 160.5t-27 189.5z" />
    <glyph glyph-name="parenright.case" horiz-adv-x="277" 
d="M133 0h-112q49 71 75.5 163.5t26.5 186.5q0 200 -102 350h112q43 -68 70 -161t27 -189t-27 -189.5t-70 -160.5z" />
    <glyph glyph-name="braceleft.case" horiz-adv-x="360" 
d="M341 605h-32q-89 -1 -89 -83q0 -23 5 -42q0 -1 1.5 -14.5t1.5 -20.5q0 -39 -23.5 -63t-58.5 -32q36 -8 59.5 -32t23.5 -62q0 -11 -4 -35q-5 -20 -5 -43q0 -82 89 -83h32v-95h-44q-84 0 -129.5 32t-45.5 110q0 9 4 39q3 22 3 39q0 85 -100 85v92q50 0 75 19.5t25 64.5
q0 6 -1.5 19.5t-1.5 17.5q-4 28 -4 40q0 78 45.5 110t129.5 32h44v-95z" />
    <glyph glyph-name="braceright.case" horiz-adv-x="360" 
d="M231 481q0 -45 25 -64.5t75 -19.5v-92q-51 0 -75.5 -20t-24.5 -65q0 -16 3 -39q4 -30 4 -39q0 -78 -45.5 -110t-129.5 -32h-44v95h32q89 1 89 83q0 23 -5 43q-4 24 -4 35q0 38 23.5 62t59.5 32q-35 8 -58.5 32t-23.5 63q0 5 0.5 10.5t1.5 13t1 11.5q5 19 5 42
q0 82 -89 83h-32v95h44q84 0 129.5 -32t45.5 -110q0 -12 -4 -40q0 -4 -1.5 -17.5t-1.5 -19.5z" />
    <glyph glyph-name="bracketleft.case" horiz-adv-x="304" 
d="M58 0v700h228v-95h-125v-510h125v-95h-228z" />
    <glyph glyph-name="bracketright.case" horiz-adv-x="304" 
d="M19 700h227v-700h-227v95h124v510h-124v95z" />
    <glyph glyph-name="hyphen.case" horiz-adv-x="444" 
d="M392 308h-340v95h340v-95z" />
    <glyph glyph-name="endash.case" horiz-adv-x="604" 
d="M552 308h-500v95h500v-95z" />
    <glyph glyph-name="emdash.case" horiz-adv-x="933" 
d="M52 307v95h829v-95h-829z" />
    <glyph glyph-name="guillemotleft.case" horiz-adv-x="556" 
d="M186 601h109l-154 -256l154 -256h-109l-155 256zM414 600h109l-154 -256l154 -256h-109l-156 256z" />
    <glyph glyph-name="guillemotright.case" horiz-adv-x="556" 
d="M414 345l-153 256h109l155 -256l-155 -256h-109zM187 344l-154 256h109l156 -256l-156 -256h-109z" />
    <glyph glyph-name="guilsinglleft.case" horiz-adv-x="319" 
d="M181 600h109l-154 -256l154 -256h-109l-155 256z" />
    <glyph glyph-name="guilsinglright.case" horiz-adv-x="319" 
d="M182 344l-154 256h109l156 -256l-156 -256h-109z" />
    <glyph glyph-name="dotmath.case" horiz-adv-x="224" 
d="M43 358q0 30 19.5 49t49.5 19t50 -19t20 -49t-20 -49t-50 -19t-49.5 19t-19.5 49z" />
    <glyph glyph-name="plus.case" horiz-adv-x="520" 
d="M210 401v169h99v-169h160v-91h-160v-169h-99v169h-159v91h159z" />
    <glyph glyph-name="minus.case" horiz-adv-x="520" 
d="M469 310h-418v91h418v-91z" />
    <glyph glyph-name="multiply.case" horiz-adv-x="520" 
d="M52 492l68 69l143 -142l139 140l64 -64l-139 -140l142 -142l-70 -69l-142 142l-139 -140l-64 65l140 139z" />
    <glyph glyph-name="divide.case" horiz-adv-x="520" 
d="M193 541q0 29 19 47.5t48 18.5t48 -18.5t19 -47.5t-19 -47.5t-48 -18.5t-48 18.5t-19 47.5zM469 310h-418v91h418v-91zM193 170q0 29 19 47.5t48 18.5t48 -18.5t19 -47.5t-19 -47.5t-48 -18.5t-48 18.5t-19 47.5z" />
    <glyph glyph-name="equal.case" horiz-adv-x="520" 
d="M459 407h-398v92h398v-92zM459 196h-398v91h398v-91z" />
    <glyph glyph-name="notequal.case" horiz-adv-x="520" 
d="M459 499v-92h-130l-40 -120h170v-91h-201l-31 -94h-102l31 94h-95v91h126l40 120h-166v92h196l30 89h102l-30 -89h100z" />
    <glyph glyph-name="greater.case" horiz-adv-x="520" 
d="M67 572l386 -167v-102l-386 -167v105l266 113l-266 113v105z" />
    <glyph glyph-name="less.case" horiz-adv-x="520" 
d="M453 136l-386 167v102l386 167v-105l-266 -113l266 -113v-105z" />
    <glyph glyph-name="greaterequal.case" horiz-adv-x="520" 
d="M67 592l386 -167v-102l-386 -167v105l266 113l-266 114v104zM453 16h-386v91h386v-91z" />
    <glyph glyph-name="lessequal.case" horiz-adv-x="520" 
d="M453 156l-386 167v102l386 167v-104l-266 -114l266 -113v-105zM453 16h-386v91h386v-91z" />
    <glyph glyph-name="plusminus.case" horiz-adv-x="520" 
d="M210 425v169h99v-169h160v-91h-160v-169h-99v169h-159v91h159zM469 16h-418v91h418v-91z" />
    <glyph glyph-name="approxequal.case" horiz-adv-x="520" 
d="M139 377h-88q0 77 32 117.5t90 40.5q38 0 67.5 -15.5t51 -31t39.5 -15.5q50 0 50 63h88q0 -77 -32 -117.5t-90 -40.5q-30 0 -55.5 9.5t-39.5 21t-31 21t-32 9.5q-50 0 -50 -62zM139 153h-88q0 77 32 117.5t90 40.5q38 0 67.5 -15.5t51 -31t39.5 -15.5q50 0 50 62h88
q0 -77 -32 -117t-90 -40q-30 0 -55.5 9.5t-39.5 21t-31 21t-32 9.5q-50 0 -50 -62z" />
    <glyph glyph-name="asciitilde.case" horiz-adv-x="520" 
d="M139 275h-88q0 77 32 117.5t90 40.5q38 0 67.5 -15.5t51 -31t39.5 -15.5q50 0 50 62h88q0 -77 -32 -117t-90 -40q-30 0 -55.5 9.5t-39.5 21t-31 21t-32 9.5q-50 0 -50 -62z" />
    <glyph glyph-name="logicalnot.case" horiz-adv-x="520" 
d="M51 331v92h379v-255h-96v163h-283z" />
    <glyph glyph-name="arrowup.case" horiz-adv-x="730" 
d="M114 296l-78 79l329 331l329 -331l-78 -79l-195 199v-495h-112v495z" />
    <glyph glyph-name="uni2197.case" horiz-adv-x="700" 
d="M147 524v111l467 1l-1 -466h-111l3 279l-391 -391l-78 78l391 390z" />
    <glyph glyph-name="arrowright.case" horiz-adv-x="799" 
d="M353 602l80 79l331 -329l-331 -330l-80 79l200 195h-497v111h497z" />
    <glyph glyph-name="uni2198.case" horiz-adv-x="700" 
d="M614 57l-467 1v111l280 -2l-391 390l78 78l391 -391l-3 279h111z" />
    <glyph glyph-name="arrowdown.case" horiz-adv-x="744" 
d="M372 -6l-329 331l78 79l196 -199v495h111v-495l195 199l79 -79z" />
    <glyph glyph-name="uni2199.case" horiz-adv-x="700" 
d="M195 244l391 391l78 -78l-391 -390l279 2v-111l-466 -1v466h111z" />
    <glyph glyph-name="arrowleft.case" horiz-adv-x="799" 
d="M36 352l331 329l79 -79l-199 -195h497v-111h-497l199 -195l-79 -79z" />
    <glyph glyph-name="uni2196.case" horiz-adv-x="700" 
d="M86 636l466 -1v-111l-279 2l391 -390l-78 -78l-391 391l2 -279h-111v466z" />
    <glyph glyph-name="arrowboth.case" horiz-adv-x="1053" 
d="M707 660l247 -248l64 -63l-311 -308l-77 77l175 176h-556l175 -175l-78 -78l-310 308l79 79l231 232l78 -78l-177 -176h559l-177 176z" />
    </font>
</defs>
</svg>
